M48
; DRILL file {KiCad (5.1.10)-1} date 01/10/22 13:31:19
; FORMAT={-:-/ absolute / metric / decimal}
; #@! TF.CreationDate,2022-01-10T13:31:19-05:00
; #@! TF.GenerationSoftware,Kicad,Pcbnew,(5.1.10)-1
; #@! TF.FileFunction,Plated,1,2,PTH
FMAT,2
METRIC
T1C0.800
T2C1.100
T3C1.470
%
G90
G05
T1
X33.337Y-53.975
X33.337Y-111.125
X33.575Y-92.075
X33.655Y-73.025
X40.957Y-53.975
X40.957Y-111.125
X41.195Y-92.075
X41.275Y-73.025
X52.225Y-53.975
X52.387Y-73.025
X52.625Y-92.075
X52.625Y-111.125
X59.845Y-53.975
X60.008Y-73.025
X60.245Y-92.075
X60.245Y-111.125
X71.438Y-53.975
X71.438Y-73.025
X71.438Y-92.075
X71.675Y-111.125
X79.057Y-53.975
X79.057Y-73.025
X79.057Y-92.075
X79.295Y-111.125
X90.487Y-73.025
X90.725Y-53.975
X90.725Y-92.075
X91.044Y-111.125
X98.108Y-73.025
X98.345Y-53.975
X98.345Y-92.075
X98.664Y-111.125
X109.537Y-92.075
X109.775Y-53.975
X109.775Y-73.025
X109.775Y-111.125
X117.157Y-92.075
X117.395Y-53.975
X117.395Y-73.025
X117.395Y-111.125
X128.35Y-92.075
X128.588Y-73.025
X128.825Y-53.975
X135.97Y-92.075
X136.207Y-73.025
X136.445Y-53.975
X137.875Y-111.125
X145.495Y-111.125
X147.637Y-53.975
X147.875Y-73.025
X147.875Y-92.075
X155.257Y-53.975
X155.495Y-73.025
X155.495Y-92.075
X166.45Y-92.075
X166.45Y-111.125
X166.688Y-53.975
X166.925Y-73.025
X174.07Y-92.075
X174.07Y-111.125
X174.308Y-53.975
X174.545Y-73.025
X185.5Y-111.125
X185.737Y-53.975
X185.737Y-92.075
X185.975Y-73.025
X193.12Y-111.125
X193.357Y-53.975
X193.357Y-92.075
X193.595Y-73.025
X204.55Y-111.125
X204.787Y-53.975
X205.025Y-73.025
X205.025Y-92.075
X212.17Y-111.125
X212.407Y-53.975
X212.645Y-73.025
X212.645Y-92.075
X223.837Y-73.025
X223.837Y-92.075
X223.837Y-111.125
X224.155Y-53.975
X231.457Y-73.025
X231.457Y-92.075
X231.457Y-111.125
X231.775Y-53.975
X242.887Y-53.975
X242.887Y-111.125
X243.125Y-73.025
X243.125Y-92.075
X250.507Y-53.975
X250.507Y-111.125
X250.745Y-73.025
X250.745Y-92.075
T2
X208.28Y-35.242
X208.28Y-50.482
X210.82Y-35.242
X210.82Y-50.482
X213.36Y-35.242
X213.36Y-50.482
X215.9Y-35.242
X215.9Y-50.482
X218.44Y-35.242
X218.44Y-50.482
X220.98Y-35.242
X220.98Y-50.482
X223.52Y-35.242
X223.52Y-50.482
X226.06Y-35.242
X226.06Y-50.482
X228.6Y-35.242
X228.6Y-50.482
X231.14Y-35.242
X231.14Y-50.482
X233.68Y-35.242
X233.68Y-50.482
X236.22Y-35.242
X236.22Y-50.482
T3
X33.496Y-60.96
X33.496Y-80.01
X33.496Y-99.06
X33.496Y-118.11
X34.806Y-59.5
X34.806Y-78.55
X34.806Y-97.6
X34.806Y-116.65
X39.806Y-59.0
X39.806Y-78.05
X39.806Y-97.1
X39.806Y-116.15
X39.846Y-58.42
X39.846Y-77.47
X39.846Y-96.52
X39.846Y-115.57
X52.546Y-60.96
X52.546Y-80.01
X52.546Y-99.06
X52.546Y-118.11
X53.856Y-59.5
X53.856Y-78.55
X53.856Y-97.6
X53.856Y-116.65
X58.856Y-59.0
X58.856Y-78.05
X58.856Y-97.1
X58.856Y-116.15
X58.896Y-58.42
X58.896Y-77.47
X58.896Y-96.52
X58.896Y-115.57
X71.596Y-60.96
X71.596Y-80.01
X71.596Y-99.06
X71.596Y-118.11
X72.906Y-59.5
X72.906Y-78.55
X72.906Y-97.6
X72.906Y-116.65
X77.906Y-59.0
X77.906Y-78.05
X77.906Y-97.1
X77.906Y-116.15
X77.946Y-58.42
X77.946Y-77.47
X77.946Y-96.52
X77.946Y-115.57
X90.646Y-60.96
X90.646Y-80.01
X90.646Y-99.06
X90.646Y-118.11
X91.956Y-59.5
X91.956Y-78.55
X91.956Y-97.6
X91.956Y-116.65
X96.956Y-59.0
X96.956Y-78.05
X96.956Y-97.1
X96.956Y-116.15
X96.996Y-58.42
X96.996Y-77.47
X96.996Y-96.52
X96.996Y-115.57
X109.696Y-60.96
X109.696Y-80.01
X109.696Y-99.06
X109.696Y-118.11
X111.006Y-59.5
X111.006Y-78.55
X111.006Y-97.6
X111.006Y-116.65
X116.006Y-59.0
X116.006Y-78.05
X116.006Y-97.1
X116.006Y-116.15
X116.046Y-58.42
X116.046Y-77.47
X116.046Y-96.52
X116.046Y-115.57
X128.746Y-60.96
X128.746Y-80.01
X128.746Y-99.06
X130.056Y-59.5
X130.056Y-78.55
X130.056Y-97.6
X135.056Y-59.0
X135.056Y-78.05
X135.056Y-97.1
X135.096Y-58.42
X135.096Y-77.47
X135.096Y-96.52
X138.271Y-118.11
X139.581Y-116.65
X144.581Y-116.15
X144.621Y-115.57
X147.796Y-60.96
X147.796Y-80.01
X147.796Y-99.06
X149.106Y-59.5
X149.106Y-78.55
X149.106Y-97.6
X154.106Y-59.0
X154.106Y-78.05
X154.106Y-97.1
X154.146Y-58.42
X154.146Y-77.47
X154.146Y-96.52
X166.846Y-60.96
X166.846Y-80.01
X166.846Y-99.06
X166.846Y-118.11
X168.156Y-59.5
X168.156Y-78.55
X168.156Y-97.6
X168.156Y-116.65
X173.156Y-59.0
X173.156Y-78.05
X173.156Y-97.1
X173.156Y-116.15
X173.196Y-58.42
X173.196Y-77.47
X173.196Y-96.52
X173.196Y-115.57
X185.896Y-60.96
X185.896Y-80.01
X185.896Y-99.06
X185.896Y-118.11
X187.206Y-59.5
X187.206Y-78.55
X187.206Y-97.6
X187.206Y-116.65
X192.206Y-59.0
X192.206Y-78.05
X192.206Y-97.1
X192.206Y-116.15
X192.246Y-58.42
X192.246Y-77.47
X192.246Y-96.52
X192.246Y-115.57
X204.946Y-60.96
X204.946Y-80.01
X204.946Y-99.06
X204.946Y-118.11
X206.256Y-59.5
X206.256Y-78.55
X206.256Y-97.6
X206.256Y-116.65
X211.256Y-59.0
X211.256Y-78.05
X211.256Y-97.1
X211.256Y-116.15
X211.296Y-58.42
X211.296Y-77.47
X211.296Y-96.52
X211.296Y-115.57
X223.996Y-60.96
X223.996Y-80.01
X223.996Y-99.06
X223.996Y-118.11
X225.306Y-59.5
X225.306Y-78.55
X225.306Y-97.6
X225.306Y-116.65
X230.306Y-59.0
X230.306Y-78.05
X230.306Y-97.1
X230.306Y-116.15
X230.346Y-58.42
X230.346Y-77.47
X230.346Y-96.52
X230.346Y-115.57
X243.046Y-60.96
X243.046Y-80.01
X243.046Y-99.06
X243.046Y-118.11
X244.356Y-59.5
X244.356Y-78.55
X244.356Y-97.6
X244.356Y-116.65
X249.356Y-59.0
X249.356Y-78.05
X249.356Y-97.1
X249.356Y-116.15
X249.396Y-58.42
X249.396Y-77.47
X249.396Y-96.52
X249.396Y-115.57
T0
M30
