M48
; DRILL file {KiCad (5.1.10)-1} date 01/10/22 13:31:19
; FORMAT={-:-/ absolute / metric / decimal}
; #@! TF.CreationDate,2022-01-10T13:31:19-05:00
; #@! TF.GenerationSoftware,Kicad,Pcbnew,(5.1.10)-1
; #@! TF.FileFunction,NonPlated,1,2,NPTH
FMAT,2
METRIC
T1C1.750
T2C3.048
T3C3.988
%
G90
G05
T1
X32.226Y-63.5
X32.226Y-82.55
X32.226Y-101.6
X32.226Y-120.65
X42.386Y-63.5
X42.386Y-82.55
X42.386Y-101.6
X42.386Y-120.65
X51.276Y-63.5
X51.276Y-82.55
X51.276Y-101.6
X51.276Y-120.65
X61.436Y-63.5
X61.436Y-82.55
X61.436Y-101.6
X61.436Y-120.65
X70.326Y-63.5
X70.326Y-82.55
X70.326Y-101.6
X70.326Y-120.65
X80.486Y-63.5
X80.486Y-82.55
X80.486Y-101.6
X80.486Y-120.65
X89.376Y-63.5
X89.376Y-82.55
X89.376Y-101.6
X89.376Y-120.65
X99.536Y-63.5
X99.536Y-82.55
X99.536Y-101.6
X99.536Y-120.65
X108.426Y-63.5
X108.426Y-82.55
X108.426Y-101.6
X108.426Y-120.65
X118.586Y-63.5
X118.586Y-82.55
X118.586Y-101.6
X118.586Y-120.65
X127.476Y-63.5
X127.476Y-82.55
X127.476Y-101.6
X137.001Y-120.65
X137.636Y-63.5
X137.636Y-82.55
X137.636Y-101.6
X146.526Y-63.5
X146.526Y-82.55
X146.526Y-101.6
X147.161Y-120.65
X156.686Y-63.5
X156.686Y-82.55
X156.686Y-101.6
X165.576Y-63.5
X165.576Y-82.55
X165.576Y-101.6
X165.576Y-120.65
X175.736Y-63.5
X175.736Y-82.55
X175.736Y-101.6
X175.736Y-120.65
X184.626Y-63.5
X184.626Y-82.55
X184.626Y-101.6
X184.626Y-120.65
X194.786Y-63.5
X194.786Y-82.55
X194.786Y-101.6
X194.786Y-120.65
X203.676Y-63.5
X203.676Y-82.55
X203.676Y-101.6
X203.676Y-120.65
X213.836Y-63.5
X213.836Y-82.55
X213.836Y-101.6
X213.836Y-120.65
X222.726Y-63.5
X222.726Y-82.55
X222.726Y-101.6
X222.726Y-120.65
X232.886Y-63.5
X232.886Y-82.55
X232.886Y-101.6
X232.886Y-120.65
X241.776Y-63.5
X241.776Y-82.55
X241.776Y-101.6
X241.776Y-120.65
X251.936Y-63.5
X251.936Y-82.55
X251.936Y-101.6
X251.936Y-120.65
T2
X130.143Y-127.635
X154.019Y-127.635
T3
X37.306Y-63.5
X37.306Y-82.55
X37.306Y-101.6
X37.306Y-120.65
X56.356Y-63.5
X56.356Y-82.55
X56.356Y-101.6
X56.356Y-120.65
X75.406Y-63.5
X75.406Y-82.55
X75.406Y-101.6
X75.406Y-120.65
X94.456Y-63.5
X94.456Y-82.55
X94.456Y-101.6
X94.456Y-120.65
X113.506Y-63.5
X113.506Y-82.55
X113.506Y-101.6
X113.506Y-120.65
X130.143Y-112.395
X132.556Y-63.5
X132.556Y-82.55
X132.556Y-101.6
X142.081Y-120.65
X151.606Y-63.5
X151.606Y-82.55
X151.606Y-101.6
X154.019Y-112.395
X170.656Y-63.5
X170.656Y-82.55
X170.656Y-101.6
X170.656Y-120.65
X189.706Y-63.5
X189.706Y-82.55
X189.706Y-101.6
X189.706Y-120.65
X208.756Y-63.5
X208.756Y-82.55
X208.756Y-101.6
X208.756Y-120.65
X227.806Y-63.5
X227.806Y-82.55
X227.806Y-101.6
X227.806Y-120.65
X246.856Y-63.5
X246.856Y-82.55
X246.856Y-101.6
X246.856Y-120.65
T0
M30
