G04 #@! TF.GenerationSoftware,KiCad,Pcbnew,(5.1.10)-1*
G04 #@! TF.CreationDate,2022-01-10T13:30:35-05:00*
G04 #@! TF.ProjectId,40,3430252e-6b69-4636-9164-5f7063625858,rev?*
G04 #@! TF.SameCoordinates,Original*
G04 #@! TF.FileFunction,Other,User*
%FSLAX46Y46*%
G04 Gerber Fmt 4.6, Leading zero omitted, Abs format (unit mm)*
G04 Created by KiCad (PCBNEW (5.1.10)-1) date 2022-01-10 13:30:35*
%MOMM*%
%LPD*%
G01*
G04 APERTURE LIST*
%ADD10C,0.050000*%
G04 APERTURE END LIST*
D10*
X184687500Y-52725000D02*
X184687500Y-55225000D01*
X184687500Y-55225000D02*
X194407500Y-55225000D01*
X194407500Y-55225000D02*
X194407500Y-52725000D01*
X194407500Y-52725000D02*
X184687500Y-52725000D01*
X165637500Y-52725000D02*
X165637500Y-55225000D01*
X165637500Y-55225000D02*
X175357500Y-55225000D01*
X175357500Y-55225000D02*
X175357500Y-52725000D01*
X175357500Y-52725000D02*
X165637500Y-52725000D01*
X146587500Y-52725000D02*
X146587500Y-55225000D01*
X146587500Y-55225000D02*
X156307500Y-55225000D01*
X156307500Y-55225000D02*
X156307500Y-52725000D01*
X156307500Y-52725000D02*
X146587500Y-52725000D01*
X127775000Y-52725000D02*
X127775000Y-55225000D01*
X127775000Y-55225000D02*
X137495000Y-55225000D01*
X137495000Y-55225000D02*
X137495000Y-52725000D01*
X137495000Y-52725000D02*
X127775000Y-52725000D01*
X108725000Y-52725000D02*
X108725000Y-55225000D01*
X108725000Y-55225000D02*
X118445000Y-55225000D01*
X118445000Y-55225000D02*
X118445000Y-52725000D01*
X118445000Y-52725000D02*
X108725000Y-52725000D01*
X89675000Y-52725000D02*
X89675000Y-55225000D01*
X89675000Y-55225000D02*
X99395000Y-55225000D01*
X99395000Y-55225000D02*
X99395000Y-52725000D01*
X99395000Y-52725000D02*
X89675000Y-52725000D01*
X70387500Y-52725000D02*
X70387500Y-55225000D01*
X70387500Y-55225000D02*
X80107500Y-55225000D01*
X80107500Y-55225000D02*
X80107500Y-52725000D01*
X80107500Y-52725000D02*
X70387500Y-52725000D01*
X51175000Y-52725000D02*
X51175000Y-55225000D01*
X51175000Y-55225000D02*
X60895000Y-55225000D01*
X60895000Y-55225000D02*
X60895000Y-52725000D01*
X60895000Y-52725000D02*
X51175000Y-52725000D01*
X32287500Y-52725000D02*
X32287500Y-55225000D01*
X32287500Y-55225000D02*
X42007500Y-55225000D01*
X42007500Y-55225000D02*
X42007500Y-52725000D01*
X42007500Y-52725000D02*
X32287500Y-52725000D01*
X241837500Y-109875000D02*
X241837500Y-112375000D01*
X241837500Y-112375000D02*
X251557500Y-112375000D01*
X251557500Y-112375000D02*
X251557500Y-109875000D01*
X251557500Y-109875000D02*
X241837500Y-109875000D01*
X222787500Y-109875000D02*
X222787500Y-112375000D01*
X222787500Y-112375000D02*
X232507500Y-112375000D01*
X232507500Y-112375000D02*
X232507500Y-109875000D01*
X232507500Y-109875000D02*
X222787500Y-109875000D01*
X203500000Y-109875000D02*
X203500000Y-112375000D01*
X203500000Y-112375000D02*
X213220000Y-112375000D01*
X213220000Y-112375000D02*
X213220000Y-109875000D01*
X213220000Y-109875000D02*
X203500000Y-109875000D01*
X184450000Y-109875000D02*
X184450000Y-112375000D01*
X184450000Y-112375000D02*
X194170000Y-112375000D01*
X194170000Y-112375000D02*
X194170000Y-109875000D01*
X194170000Y-109875000D02*
X184450000Y-109875000D01*
X165400000Y-109875000D02*
X165400000Y-112375000D01*
X165400000Y-112375000D02*
X175120000Y-112375000D01*
X175120000Y-112375000D02*
X175120000Y-109875000D01*
X175120000Y-109875000D02*
X165400000Y-109875000D01*
X136825000Y-109875000D02*
X136825000Y-112375000D01*
X136825000Y-112375000D02*
X146545000Y-112375000D01*
X146545000Y-112375000D02*
X146545000Y-109875000D01*
X146545000Y-109875000D02*
X136825000Y-109875000D01*
X108725000Y-109875000D02*
X108725000Y-112375000D01*
X108725000Y-112375000D02*
X118445000Y-112375000D01*
X118445000Y-112375000D02*
X118445000Y-109875000D01*
X118445000Y-109875000D02*
X108725000Y-109875000D01*
X89993750Y-109875000D02*
X89993750Y-112375000D01*
X89993750Y-112375000D02*
X99713750Y-112375000D01*
X99713750Y-112375000D02*
X99713750Y-109875000D01*
X99713750Y-109875000D02*
X89993750Y-109875000D01*
X70625000Y-109875000D02*
X70625000Y-112375000D01*
X70625000Y-112375000D02*
X80345000Y-112375000D01*
X80345000Y-112375000D02*
X80345000Y-109875000D01*
X80345000Y-109875000D02*
X70625000Y-109875000D01*
X51575000Y-109875000D02*
X51575000Y-112375000D01*
X51575000Y-112375000D02*
X61295000Y-112375000D01*
X61295000Y-112375000D02*
X61295000Y-109875000D01*
X61295000Y-109875000D02*
X51575000Y-109875000D01*
X32287500Y-109875000D02*
X32287500Y-112375000D01*
X32287500Y-112375000D02*
X42007500Y-112375000D01*
X42007500Y-112375000D02*
X42007500Y-109875000D01*
X42007500Y-109875000D02*
X32287500Y-109875000D01*
X242075000Y-90825000D02*
X242075000Y-93325000D01*
X242075000Y-93325000D02*
X251795000Y-93325000D01*
X251795000Y-93325000D02*
X251795000Y-90825000D01*
X251795000Y-90825000D02*
X242075000Y-90825000D01*
X222787500Y-90825000D02*
X222787500Y-93325000D01*
X222787500Y-93325000D02*
X232507500Y-93325000D01*
X232507500Y-93325000D02*
X232507500Y-90825000D01*
X232507500Y-90825000D02*
X222787500Y-90825000D01*
X203975000Y-90825000D02*
X203975000Y-93325000D01*
X203975000Y-93325000D02*
X213695000Y-93325000D01*
X213695000Y-93325000D02*
X213695000Y-90825000D01*
X213695000Y-90825000D02*
X203975000Y-90825000D01*
X184687500Y-90825000D02*
X184687500Y-93325000D01*
X184687500Y-93325000D02*
X194407500Y-93325000D01*
X194407500Y-93325000D02*
X194407500Y-90825000D01*
X194407500Y-90825000D02*
X184687500Y-90825000D01*
X165400000Y-90825000D02*
X165400000Y-93325000D01*
X165400000Y-93325000D02*
X175120000Y-93325000D01*
X175120000Y-93325000D02*
X175120000Y-90825000D01*
X175120000Y-90825000D02*
X165400000Y-90825000D01*
X146825000Y-90825000D02*
X146825000Y-93325000D01*
X146825000Y-93325000D02*
X156545000Y-93325000D01*
X156545000Y-93325000D02*
X156545000Y-90825000D01*
X156545000Y-90825000D02*
X146825000Y-90825000D01*
X127300000Y-90825000D02*
X127300000Y-93325000D01*
X127300000Y-93325000D02*
X137020000Y-93325000D01*
X137020000Y-93325000D02*
X137020000Y-90825000D01*
X137020000Y-90825000D02*
X127300000Y-90825000D01*
X108487500Y-90825000D02*
X108487500Y-93325000D01*
X108487500Y-93325000D02*
X118207500Y-93325000D01*
X118207500Y-93325000D02*
X118207500Y-90825000D01*
X118207500Y-90825000D02*
X108487500Y-90825000D01*
X89675000Y-90825000D02*
X89675000Y-93325000D01*
X89675000Y-93325000D02*
X99395000Y-93325000D01*
X99395000Y-93325000D02*
X99395000Y-90825000D01*
X99395000Y-90825000D02*
X89675000Y-90825000D01*
X70387500Y-90825000D02*
X70387500Y-93325000D01*
X70387500Y-93325000D02*
X80107500Y-93325000D01*
X80107500Y-93325000D02*
X80107500Y-90825000D01*
X80107500Y-90825000D02*
X70387500Y-90825000D01*
X51575000Y-90825000D02*
X51575000Y-93325000D01*
X51575000Y-93325000D02*
X61295000Y-93325000D01*
X61295000Y-93325000D02*
X61295000Y-90825000D01*
X61295000Y-90825000D02*
X51575000Y-90825000D01*
X32525000Y-90825000D02*
X32525000Y-93325000D01*
X32525000Y-93325000D02*
X42245000Y-93325000D01*
X42245000Y-93325000D02*
X42245000Y-90825000D01*
X42245000Y-90825000D02*
X32525000Y-90825000D01*
X242075000Y-71775000D02*
X242075000Y-74275000D01*
X242075000Y-74275000D02*
X251795000Y-74275000D01*
X251795000Y-74275000D02*
X251795000Y-71775000D01*
X251795000Y-71775000D02*
X242075000Y-71775000D01*
X222787500Y-71775000D02*
X222787500Y-74275000D01*
X222787500Y-74275000D02*
X232507500Y-74275000D01*
X232507500Y-74275000D02*
X232507500Y-71775000D01*
X232507500Y-71775000D02*
X222787500Y-71775000D01*
X203975000Y-71775000D02*
X203975000Y-74275000D01*
X203975000Y-74275000D02*
X213695000Y-74275000D01*
X213695000Y-74275000D02*
X213695000Y-71775000D01*
X213695000Y-71775000D02*
X203975000Y-71775000D01*
X184925000Y-71775000D02*
X184925000Y-74275000D01*
X184925000Y-74275000D02*
X194645000Y-74275000D01*
X194645000Y-74275000D02*
X194645000Y-71775000D01*
X194645000Y-71775000D02*
X184925000Y-71775000D01*
X165875000Y-71775000D02*
X165875000Y-74275000D01*
X165875000Y-74275000D02*
X175595000Y-74275000D01*
X175595000Y-74275000D02*
X175595000Y-71775000D01*
X175595000Y-71775000D02*
X165875000Y-71775000D01*
X146825000Y-71775000D02*
X146825000Y-74275000D01*
X146825000Y-74275000D02*
X156545000Y-74275000D01*
X156545000Y-74275000D02*
X156545000Y-71775000D01*
X156545000Y-71775000D02*
X146825000Y-71775000D01*
X127537500Y-71775000D02*
X127537500Y-74275000D01*
X127537500Y-74275000D02*
X137257500Y-74275000D01*
X137257500Y-74275000D02*
X137257500Y-71775000D01*
X137257500Y-71775000D02*
X127537500Y-71775000D01*
X108725000Y-71775000D02*
X108725000Y-74275000D01*
X108725000Y-74275000D02*
X118445000Y-74275000D01*
X118445000Y-74275000D02*
X118445000Y-71775000D01*
X118445000Y-71775000D02*
X108725000Y-71775000D01*
X89437500Y-71775000D02*
X89437500Y-74275000D01*
X89437500Y-74275000D02*
X99157500Y-74275000D01*
X99157500Y-74275000D02*
X99157500Y-71775000D01*
X99157500Y-71775000D02*
X89437500Y-71775000D01*
X70387500Y-71775000D02*
X70387500Y-74275000D01*
X70387500Y-74275000D02*
X80107500Y-74275000D01*
X80107500Y-74275000D02*
X80107500Y-71775000D01*
X80107500Y-71775000D02*
X70387500Y-71775000D01*
X51337500Y-71775000D02*
X51337500Y-74275000D01*
X51337500Y-74275000D02*
X61057500Y-74275000D01*
X61057500Y-74275000D02*
X61057500Y-71775000D01*
X61057500Y-71775000D02*
X51337500Y-71775000D01*
X32605000Y-71775000D02*
X32605000Y-74275000D01*
X32605000Y-74275000D02*
X42325000Y-74275000D01*
X42325000Y-74275000D02*
X42325000Y-71775000D01*
X42325000Y-71775000D02*
X32605000Y-71775000D01*
X241837500Y-52725000D02*
X241837500Y-55225000D01*
X241837500Y-55225000D02*
X251557500Y-55225000D01*
X251557500Y-55225000D02*
X251557500Y-52725000D01*
X251557500Y-52725000D02*
X241837500Y-52725000D01*
X223105000Y-52725000D02*
X223105000Y-55225000D01*
X223105000Y-55225000D02*
X232825000Y-55225000D01*
X232825000Y-55225000D02*
X232825000Y-52725000D01*
X232825000Y-52725000D02*
X223105000Y-52725000D01*
X203737500Y-52725000D02*
X203737500Y-55225000D01*
X203737500Y-55225000D02*
X213457500Y-55225000D01*
X213457500Y-55225000D02*
X213457500Y-52725000D01*
X213457500Y-52725000D02*
X203737500Y-52725000D01*
M02*
