G04 #@! TF.GenerationSoftware,KiCad,Pcbnew,(5.1.10)-1*
G04 #@! TF.CreationDate,2022-01-10T13:30:35-05:00*
G04 #@! TF.ProjectId,40,3430252e-6b69-4636-9164-5f7063625858,rev?*
G04 #@! TF.SameCoordinates,Original*
G04 #@! TF.FileFunction,Soldermask,Bot*
G04 #@! TF.FilePolarity,Negative*
%FSLAX46Y46*%
G04 Gerber Fmt 4.6, Leading zero omitted, Abs format (unit mm)*
G04 Created by KiCad (PCBNEW (5.1.10)-1) date 2022-01-10 13:30:35*
%MOMM*%
%LPD*%
G01*
G04 APERTURE LIST*
%ADD10C,0.700000*%
%ADD11C,1.600000*%
%ADD12R,1.600000X1.600000*%
%ADD13C,1.750000*%
%ADD14C,2.250000*%
%ADD15C,3.987800*%
%ADD16O,1.600000X1.600000*%
%ADD17C,3.048000*%
G04 APERTURE END LIST*
D10*
X183411607Y-38036607D02*
X183411607Y-40703273D01*
X184363988Y-36512797D02*
X185316369Y-39369940D01*
X182840178Y-39369940D01*
X180554464Y-36703273D02*
X180173511Y-36703273D01*
X179792559Y-36893750D01*
X179602083Y-37084226D01*
X179411607Y-37465178D01*
X179221130Y-38227083D01*
X179221130Y-39179464D01*
X179411607Y-39941369D01*
X179602083Y-40322321D01*
X179792559Y-40512797D01*
X180173511Y-40703273D01*
X180554464Y-40703273D01*
X180935416Y-40512797D01*
X181125892Y-40322321D01*
X181316369Y-39941369D01*
X181506845Y-39179464D01*
X181506845Y-38227083D01*
X181316369Y-37465178D01*
X181125892Y-37084226D01*
X180935416Y-36893750D01*
X180554464Y-36703273D01*
X177697321Y-40703273D02*
X174649702Y-36703273D01*
X177125892Y-36703273D02*
X176744940Y-36893750D01*
X176554464Y-37274702D01*
X176744940Y-37655654D01*
X177125892Y-37846130D01*
X177506845Y-37655654D01*
X177697321Y-37274702D01*
X177506845Y-36893750D01*
X177125892Y-36703273D01*
X174840178Y-40512797D02*
X174649702Y-40131845D01*
X174840178Y-39750892D01*
X175221130Y-39560416D01*
X175602083Y-39750892D01*
X175792559Y-40131845D01*
X175602083Y-40512797D01*
X175221130Y-40703273D01*
X174840178Y-40512797D01*
X169316369Y-40703273D02*
X169697321Y-40512797D01*
X169887797Y-40322321D01*
X170078273Y-39941369D01*
X170078273Y-38798511D01*
X169887797Y-38417559D01*
X169697321Y-38227083D01*
X169316369Y-38036607D01*
X168744940Y-38036607D01*
X168363988Y-38227083D01*
X168173511Y-38417559D01*
X167983035Y-38798511D01*
X167983035Y-39941369D01*
X168173511Y-40322321D01*
X168363988Y-40512797D01*
X168744940Y-40703273D01*
X169316369Y-40703273D01*
X166268750Y-40703273D02*
X166268750Y-38036607D01*
X166268750Y-38798511D02*
X166078273Y-38417559D01*
X165887797Y-38227083D01*
X165506845Y-38036607D01*
X165125892Y-38036607D01*
X164363988Y-38036607D02*
X162840178Y-38036607D01*
X163792559Y-36703273D02*
X163792559Y-40131845D01*
X163602083Y-40512797D01*
X163221130Y-40703273D01*
X162840178Y-40703273D01*
X161506845Y-40703273D02*
X161506845Y-36703273D01*
X159792559Y-40703273D02*
X159792559Y-38608035D01*
X159983035Y-38227083D01*
X160363988Y-38036607D01*
X160935416Y-38036607D01*
X161316369Y-38227083D01*
X161506845Y-38417559D01*
X157316369Y-40703273D02*
X157697321Y-40512797D01*
X157887797Y-40322321D01*
X158078273Y-39941369D01*
X158078273Y-38798511D01*
X157887797Y-38417559D01*
X157697321Y-38227083D01*
X157316369Y-38036607D01*
X156744940Y-38036607D01*
X156363988Y-38227083D01*
X156173511Y-38417559D01*
X155983035Y-38798511D01*
X155983035Y-39941369D01*
X156173511Y-40322321D01*
X156363988Y-40512797D01*
X156744940Y-40703273D01*
X157316369Y-40703273D01*
X153697321Y-40703273D02*
X154078273Y-40512797D01*
X154268750Y-40131845D01*
X154268750Y-36703273D01*
X152173511Y-40703273D02*
X152173511Y-38036607D01*
X152173511Y-36703273D02*
X152363988Y-36893750D01*
X152173511Y-37084226D01*
X151983035Y-36893750D01*
X152173511Y-36703273D01*
X152173511Y-37084226D01*
X150268750Y-38036607D02*
X150268750Y-40703273D01*
X150268750Y-38417559D02*
X150078273Y-38227083D01*
X149697321Y-38036607D01*
X149125892Y-38036607D01*
X148744940Y-38227083D01*
X148554464Y-38608035D01*
X148554464Y-40703273D01*
X145125892Y-40512797D02*
X145506845Y-40703273D01*
X146268750Y-40703273D01*
X146649702Y-40512797D01*
X146840178Y-40131845D01*
X146840178Y-38608035D01*
X146649702Y-38227083D01*
X146268750Y-38036607D01*
X145506845Y-38036607D01*
X145125892Y-38227083D01*
X144935416Y-38608035D01*
X144935416Y-38988988D01*
X146840178Y-39369940D01*
X141506845Y-40703273D02*
X141506845Y-38608035D01*
X141697321Y-38227083D01*
X142078273Y-38036607D01*
X142840178Y-38036607D01*
X143221130Y-38227083D01*
X141506845Y-40512797D02*
X141887797Y-40703273D01*
X142840178Y-40703273D01*
X143221130Y-40512797D01*
X143411607Y-40131845D01*
X143411607Y-39750892D01*
X143221130Y-39369940D01*
X142840178Y-39179464D01*
X141887797Y-39179464D01*
X141506845Y-38988988D01*
X139602083Y-40703273D02*
X139602083Y-38036607D01*
X139602083Y-38798511D02*
X139411607Y-38417559D01*
X139221130Y-38227083D01*
X138840178Y-38036607D01*
X138459226Y-38036607D01*
X134078273Y-40703273D02*
X134078273Y-36703273D01*
X133697321Y-39179464D02*
X132554464Y-40703273D01*
X132554464Y-38036607D02*
X134078273Y-39560416D01*
X129316369Y-40512797D02*
X129697321Y-40703273D01*
X130459226Y-40703273D01*
X130840178Y-40512797D01*
X131030654Y-40131845D01*
X131030654Y-38608035D01*
X130840178Y-38227083D01*
X130459226Y-38036607D01*
X129697321Y-38036607D01*
X129316369Y-38227083D01*
X129125892Y-38608035D01*
X129125892Y-38988988D01*
X131030654Y-39369940D01*
X127792559Y-38036607D02*
X126840178Y-40703273D01*
X125887797Y-38036607D02*
X126840178Y-40703273D01*
X127221130Y-41655654D01*
X127411607Y-41846130D01*
X127792559Y-42036607D01*
X124363988Y-40703273D02*
X124363988Y-36703273D01*
X124363988Y-38227083D02*
X123983035Y-38036607D01*
X123221130Y-38036607D01*
X122840178Y-38227083D01*
X122649702Y-38417559D01*
X122459226Y-38798511D01*
X122459226Y-39941369D01*
X122649702Y-40322321D01*
X122840178Y-40512797D01*
X123221130Y-40703273D01*
X123983035Y-40703273D01*
X124363988Y-40512797D01*
X120173511Y-40703273D02*
X120554464Y-40512797D01*
X120744940Y-40322321D01*
X120935416Y-39941369D01*
X120935416Y-38798511D01*
X120744940Y-38417559D01*
X120554464Y-38227083D01*
X120173511Y-38036607D01*
X119602083Y-38036607D01*
X119221130Y-38227083D01*
X119030654Y-38417559D01*
X118840178Y-38798511D01*
X118840178Y-39941369D01*
X119030654Y-40322321D01*
X119221130Y-40512797D01*
X119602083Y-40703273D01*
X120173511Y-40703273D01*
X115411607Y-40703273D02*
X115411607Y-38608035D01*
X115602083Y-38227083D01*
X115983035Y-38036607D01*
X116744940Y-38036607D01*
X117125892Y-38227083D01*
X115411607Y-40512797D02*
X115792559Y-40703273D01*
X116744940Y-40703273D01*
X117125892Y-40512797D01*
X117316369Y-40131845D01*
X117316369Y-39750892D01*
X117125892Y-39369940D01*
X116744940Y-39179464D01*
X115792559Y-39179464D01*
X115411607Y-38988988D01*
X113506845Y-40703273D02*
X113506845Y-38036607D01*
X113506845Y-38798511D02*
X113316369Y-38417559D01*
X113125892Y-38227083D01*
X112744940Y-38036607D01*
X112363988Y-38036607D01*
X109316369Y-40703273D02*
X109316369Y-36703273D01*
X109316369Y-40512797D02*
X109697321Y-40703273D01*
X110459226Y-40703273D01*
X110840178Y-40512797D01*
X111030654Y-40322321D01*
X111221130Y-39941369D01*
X111221130Y-38798511D01*
X111030654Y-38417559D01*
X110840178Y-38227083D01*
X110459226Y-38036607D01*
X109697321Y-38036607D01*
X109316369Y-38227083D01*
X107221130Y-40512797D02*
X107221130Y-40703273D01*
X107411607Y-41084226D01*
X107602083Y-41274702D01*
X100744940Y-40512797D02*
X101125892Y-40703273D01*
X101887797Y-40703273D01*
X102268750Y-40512797D01*
X102459226Y-40322321D01*
X102649702Y-39941369D01*
X102649702Y-38798511D01*
X102459226Y-38417559D01*
X102268750Y-38227083D01*
X101887797Y-38036607D01*
X101125892Y-38036607D01*
X100744940Y-38227083D01*
X97316369Y-38036607D02*
X97316369Y-40703273D01*
X99030654Y-38036607D02*
X99030654Y-40131845D01*
X98840178Y-40512797D01*
X98459226Y-40703273D01*
X97887797Y-40703273D01*
X97506845Y-40512797D01*
X97316369Y-40322321D01*
X95602083Y-40512797D02*
X95221130Y-40703273D01*
X94459226Y-40703273D01*
X94078273Y-40512797D01*
X93887797Y-40131845D01*
X93887797Y-39941369D01*
X94078273Y-39560416D01*
X94459226Y-39369940D01*
X95030654Y-39369940D01*
X95411607Y-39179464D01*
X95602083Y-38798511D01*
X95602083Y-38608035D01*
X95411607Y-38227083D01*
X95030654Y-38036607D01*
X94459226Y-38036607D01*
X94078273Y-38227083D01*
X92744940Y-38036607D02*
X91221130Y-38036607D01*
X92173511Y-36703273D02*
X92173511Y-40131845D01*
X91983035Y-40512797D01*
X91602083Y-40703273D01*
X91221130Y-40703273D01*
X89316369Y-40703273D02*
X89697321Y-40512797D01*
X89887797Y-40322321D01*
X90078273Y-39941369D01*
X90078273Y-38798511D01*
X89887797Y-38417559D01*
X89697321Y-38227083D01*
X89316369Y-38036607D01*
X88744940Y-38036607D01*
X88363988Y-38227083D01*
X88173511Y-38417559D01*
X87983035Y-38798511D01*
X87983035Y-39941369D01*
X88173511Y-40322321D01*
X88363988Y-40512797D01*
X88744940Y-40703273D01*
X89316369Y-40703273D01*
X86268750Y-40703273D02*
X86268750Y-38036607D01*
X86268750Y-38417559D02*
X86078273Y-38227083D01*
X85697321Y-38036607D01*
X85125892Y-38036607D01*
X84744940Y-38227083D01*
X84554464Y-38608035D01*
X84554464Y-40703273D01*
X84554464Y-38608035D02*
X84363988Y-38227083D01*
X83983035Y-38036607D01*
X83411607Y-38036607D01*
X83030654Y-38227083D01*
X82840178Y-38608035D01*
X82840178Y-40703273D01*
X80935416Y-39179464D02*
X77887797Y-39179464D01*
X74268750Y-40703273D02*
X74268750Y-36703273D01*
X74268750Y-40512797D02*
X74649702Y-40703273D01*
X75411607Y-40703273D01*
X75792559Y-40512797D01*
X75983035Y-40322321D01*
X76173511Y-39941369D01*
X76173511Y-38798511D01*
X75983035Y-38417559D01*
X75792559Y-38227083D01*
X75411607Y-38036607D01*
X74649702Y-38036607D01*
X74268750Y-38227083D01*
X70840178Y-40512797D02*
X71221130Y-40703273D01*
X71983035Y-40703273D01*
X72363988Y-40512797D01*
X72554464Y-40131845D01*
X72554464Y-38608035D01*
X72363988Y-38227083D01*
X71983035Y-38036607D01*
X71221130Y-38036607D01*
X70840178Y-38227083D01*
X70649702Y-38608035D01*
X70649702Y-38988988D01*
X72554464Y-39369940D01*
X69125892Y-40512797D02*
X68744940Y-40703273D01*
X67983035Y-40703273D01*
X67602083Y-40512797D01*
X67411607Y-40131845D01*
X67411607Y-39941369D01*
X67602083Y-39560416D01*
X67983035Y-39369940D01*
X68554464Y-39369940D01*
X68935416Y-39179464D01*
X69125892Y-38798511D01*
X69125892Y-38608035D01*
X68935416Y-38227083D01*
X68554464Y-38036607D01*
X67983035Y-38036607D01*
X67602083Y-38227083D01*
X65697321Y-40703273D02*
X65697321Y-38036607D01*
X65697321Y-36703273D02*
X65887797Y-36893750D01*
X65697321Y-37084226D01*
X65506845Y-36893750D01*
X65697321Y-36703273D01*
X65697321Y-37084226D01*
X62078273Y-38036607D02*
X62078273Y-41274702D01*
X62268750Y-41655654D01*
X62459226Y-41846130D01*
X62840178Y-42036607D01*
X63411607Y-42036607D01*
X63792559Y-41846130D01*
X62078273Y-40512797D02*
X62459226Y-40703273D01*
X63221130Y-40703273D01*
X63602083Y-40512797D01*
X63792559Y-40322321D01*
X63983035Y-39941369D01*
X63983035Y-38798511D01*
X63792559Y-38417559D01*
X63602083Y-38227083D01*
X63221130Y-38036607D01*
X62459226Y-38036607D01*
X62078273Y-38227083D01*
X60173511Y-38036607D02*
X60173511Y-40703273D01*
X60173511Y-38417559D02*
X59983035Y-38227083D01*
X59602083Y-38036607D01*
X59030654Y-38036607D01*
X58649702Y-38227083D01*
X58459226Y-38608035D01*
X58459226Y-40703273D01*
X55030654Y-40512797D02*
X55411607Y-40703273D01*
X56173511Y-40703273D01*
X56554464Y-40512797D01*
X56744940Y-40131845D01*
X56744940Y-38608035D01*
X56554464Y-38227083D01*
X56173511Y-38036607D01*
X55411607Y-38036607D01*
X55030654Y-38227083D01*
X54840178Y-38608035D01*
X54840178Y-38988988D01*
X56744940Y-39369940D01*
X51411607Y-40703273D02*
X51411607Y-36703273D01*
X51411607Y-40512797D02*
X51792559Y-40703273D01*
X52554464Y-40703273D01*
X52935416Y-40512797D01*
X53125892Y-40322321D01*
X53316369Y-39941369D01*
X53316369Y-38798511D01*
X53125892Y-38417559D01*
X52935416Y-38227083D01*
X52554464Y-38036607D01*
X51792559Y-38036607D01*
X51411607Y-38227083D01*
D11*
X208280000Y-35242500D03*
X210820000Y-35242500D03*
X213360000Y-35242500D03*
X215900000Y-35242500D03*
X218440000Y-35242500D03*
X220980000Y-35242500D03*
X223520000Y-35242500D03*
X226060000Y-35242500D03*
X228600000Y-35242500D03*
X231140000Y-35242500D03*
X233680000Y-35242500D03*
X236220000Y-35242500D03*
X236220000Y-50482500D03*
X233680000Y-50482500D03*
X231140000Y-50482500D03*
X228600000Y-50482500D03*
X226060000Y-50482500D03*
X223520000Y-50482500D03*
X220980000Y-50482500D03*
X218440000Y-50482500D03*
X215900000Y-50482500D03*
X213360000Y-50482500D03*
X210820000Y-50482500D03*
D12*
X208280000Y-50482500D03*
D13*
X156686250Y-101600000D03*
X146526250Y-101600000D03*
D14*
X149106250Y-97600000D03*
D15*
X151606250Y-101600000D03*
G36*
G01*
X147044938Y-99897350D02*
X147044933Y-99897345D01*
G75*
G02*
X146958905Y-98308683I751317J837345D01*
G01*
X148268907Y-96848683D01*
G75*
G02*
X149857569Y-96762655I837345J-751317D01*
G01*
X149857569Y-96762655D01*
G75*
G02*
X149943597Y-98351317I-751317J-837345D01*
G01*
X148633595Y-99811317D01*
G75*
G02*
X147044933Y-99897345I-837345J751317D01*
G01*
G37*
D14*
X154146250Y-96520000D03*
G36*
G01*
X154029733Y-98222395D02*
X154028847Y-98222334D01*
G75*
G02*
X152983916Y-97022597I77403J1122334D01*
G01*
X153023916Y-96442597D01*
G75*
G02*
X154223653Y-95397666I1122334J-77403D01*
G01*
X154223653Y-95397666D01*
G75*
G02*
X155268584Y-96597403I-77403J-1122334D01*
G01*
X155228584Y-97177403D01*
G75*
G02*
X154028847Y-98222334I-1122334J77403D01*
G01*
G37*
D13*
X137636250Y-101600000D03*
X127476250Y-101600000D03*
D14*
X130056250Y-97600000D03*
D15*
X132556250Y-101600000D03*
G36*
G01*
X127994938Y-99897350D02*
X127994933Y-99897345D01*
G75*
G02*
X127908905Y-98308683I751317J837345D01*
G01*
X129218907Y-96848683D01*
G75*
G02*
X130807569Y-96762655I837345J-751317D01*
G01*
X130807569Y-96762655D01*
G75*
G02*
X130893597Y-98351317I-751317J-837345D01*
G01*
X129583595Y-99811317D01*
G75*
G02*
X127994933Y-99897345I-837345J751317D01*
G01*
G37*
D14*
X135096250Y-96520000D03*
G36*
G01*
X134979733Y-98222395D02*
X134978847Y-98222334D01*
G75*
G02*
X133933916Y-97022597I77403J1122334D01*
G01*
X133973916Y-96442597D01*
G75*
G02*
X135173653Y-95397666I1122334J-77403D01*
G01*
X135173653Y-95397666D01*
G75*
G02*
X136218584Y-96597403I-77403J-1122334D01*
G01*
X136178584Y-97177403D01*
G75*
G02*
X134978847Y-98222334I-1122334J77403D01*
G01*
G37*
D13*
X118586250Y-82550000D03*
X108426250Y-82550000D03*
D14*
X111006250Y-78550000D03*
D15*
X113506250Y-82550000D03*
G36*
G01*
X108944938Y-80847350D02*
X108944933Y-80847345D01*
G75*
G02*
X108858905Y-79258683I751317J837345D01*
G01*
X110168907Y-77798683D01*
G75*
G02*
X111757569Y-77712655I837345J-751317D01*
G01*
X111757569Y-77712655D01*
G75*
G02*
X111843597Y-79301317I-751317J-837345D01*
G01*
X110533595Y-80761317D01*
G75*
G02*
X108944933Y-80847345I-837345J751317D01*
G01*
G37*
D14*
X116046250Y-77470000D03*
G36*
G01*
X115929733Y-79172395D02*
X115928847Y-79172334D01*
G75*
G02*
X114883916Y-77972597I77403J1122334D01*
G01*
X114923916Y-77392597D01*
G75*
G02*
X116123653Y-76347666I1122334J-77403D01*
G01*
X116123653Y-76347666D01*
G75*
G02*
X117168584Y-77547403I-77403J-1122334D01*
G01*
X117128584Y-78127403D01*
G75*
G02*
X115928847Y-79172334I-1122334J77403D01*
G01*
G37*
D13*
X42386250Y-120650000D03*
X32226250Y-120650000D03*
D14*
X34806250Y-116650000D03*
D15*
X37306250Y-120650000D03*
G36*
G01*
X32744938Y-118947350D02*
X32744933Y-118947345D01*
G75*
G02*
X32658905Y-117358683I751317J837345D01*
G01*
X33968907Y-115898683D01*
G75*
G02*
X35557569Y-115812655I837345J-751317D01*
G01*
X35557569Y-115812655D01*
G75*
G02*
X35643597Y-117401317I-751317J-837345D01*
G01*
X34333595Y-118861317D01*
G75*
G02*
X32744933Y-118947345I-837345J751317D01*
G01*
G37*
D14*
X39846250Y-115570000D03*
G36*
G01*
X39729733Y-117272395D02*
X39728847Y-117272334D01*
G75*
G02*
X38683916Y-116072597I77403J1122334D01*
G01*
X38723916Y-115492597D01*
G75*
G02*
X39923653Y-114447666I1122334J-77403D01*
G01*
X39923653Y-114447666D01*
G75*
G02*
X40968584Y-115647403I-77403J-1122334D01*
G01*
X40928584Y-116227403D01*
G75*
G02*
X39728847Y-117272334I-1122334J77403D01*
G01*
G37*
D16*
X193357500Y-53975000D03*
D12*
X185737500Y-53975000D03*
D16*
X174307500Y-53975000D03*
D12*
X166687500Y-53975000D03*
D16*
X155257500Y-53975000D03*
D12*
X147637500Y-53975000D03*
D16*
X136445000Y-53975000D03*
D12*
X128825000Y-53975000D03*
D16*
X117395000Y-53975000D03*
D12*
X109775000Y-53975000D03*
D16*
X98345000Y-53975000D03*
D12*
X90725000Y-53975000D03*
D16*
X79057500Y-53975000D03*
D12*
X71437500Y-53975000D03*
D16*
X59845000Y-53975000D03*
D12*
X52225000Y-53975000D03*
D16*
X40957500Y-53975000D03*
D12*
X33337500Y-53975000D03*
D16*
X250507500Y-111125000D03*
D12*
X242887500Y-111125000D03*
D16*
X231457500Y-111125000D03*
D12*
X223837500Y-111125000D03*
D16*
X212170000Y-111125000D03*
D12*
X204550000Y-111125000D03*
D16*
X193120000Y-111125000D03*
D12*
X185500000Y-111125000D03*
D16*
X174070000Y-111125000D03*
D12*
X166450000Y-111125000D03*
D16*
X145495000Y-111125000D03*
D12*
X137875000Y-111125000D03*
D16*
X117395000Y-111125000D03*
D12*
X109775000Y-111125000D03*
D16*
X98663750Y-111125000D03*
D12*
X91043750Y-111125000D03*
D16*
X79295000Y-111125000D03*
D12*
X71675000Y-111125000D03*
D16*
X60245000Y-111125000D03*
D12*
X52625000Y-111125000D03*
D16*
X40957500Y-111125000D03*
D12*
X33337500Y-111125000D03*
D16*
X250745000Y-92075000D03*
D12*
X243125000Y-92075000D03*
D16*
X231457500Y-92075000D03*
D12*
X223837500Y-92075000D03*
D16*
X212645000Y-92075000D03*
D12*
X205025000Y-92075000D03*
D16*
X193357500Y-92075000D03*
D12*
X185737500Y-92075000D03*
D16*
X174070000Y-92075000D03*
D12*
X166450000Y-92075000D03*
D16*
X155495000Y-92075000D03*
D12*
X147875000Y-92075000D03*
D16*
X135970000Y-92075000D03*
D12*
X128350000Y-92075000D03*
D16*
X117157500Y-92075000D03*
D12*
X109537500Y-92075000D03*
D16*
X98345000Y-92075000D03*
D12*
X90725000Y-92075000D03*
D16*
X79057500Y-92075000D03*
D12*
X71437500Y-92075000D03*
D16*
X60245000Y-92075000D03*
D12*
X52625000Y-92075000D03*
D16*
X41195000Y-92075000D03*
D12*
X33575000Y-92075000D03*
D16*
X250745000Y-73025000D03*
D12*
X243125000Y-73025000D03*
D16*
X231457500Y-73025000D03*
D12*
X223837500Y-73025000D03*
D16*
X212645000Y-73025000D03*
D12*
X205025000Y-73025000D03*
D16*
X193595000Y-73025000D03*
D12*
X185975000Y-73025000D03*
D16*
X174545000Y-73025000D03*
D12*
X166925000Y-73025000D03*
D16*
X155495000Y-73025000D03*
D12*
X147875000Y-73025000D03*
D16*
X136207500Y-73025000D03*
D12*
X128587500Y-73025000D03*
D16*
X117395000Y-73025000D03*
D12*
X109775000Y-73025000D03*
D16*
X98107500Y-73025000D03*
D12*
X90487500Y-73025000D03*
D16*
X79057500Y-73025000D03*
D12*
X71437500Y-73025000D03*
D16*
X60007500Y-73025000D03*
D12*
X52387500Y-73025000D03*
D16*
X41275000Y-73025000D03*
D12*
X33655000Y-73025000D03*
D16*
X250507500Y-53975000D03*
D12*
X242887500Y-53975000D03*
D16*
X231775000Y-53975000D03*
D12*
X224155000Y-53975000D03*
D16*
X212407500Y-53975000D03*
D12*
X204787500Y-53975000D03*
D13*
X137636250Y-63500000D03*
X127476250Y-63500000D03*
D14*
X130056250Y-59500000D03*
D15*
X132556250Y-63500000D03*
G36*
G01*
X127994938Y-61797350D02*
X127994933Y-61797345D01*
G75*
G02*
X127908905Y-60208683I751317J837345D01*
G01*
X129218907Y-58748683D01*
G75*
G02*
X130807569Y-58662655I837345J-751317D01*
G01*
X130807569Y-58662655D01*
G75*
G02*
X130893597Y-60251317I-751317J-837345D01*
G01*
X129583595Y-61711317D01*
G75*
G02*
X127994933Y-61797345I-837345J751317D01*
G01*
G37*
D14*
X135096250Y-58420000D03*
G36*
G01*
X134979733Y-60122395D02*
X134978847Y-60122334D01*
G75*
G02*
X133933916Y-58922597I77403J1122334D01*
G01*
X133973916Y-58342597D01*
G75*
G02*
X135173653Y-57297666I1122334J-77403D01*
G01*
X135173653Y-57297666D01*
G75*
G02*
X136218584Y-58497403I-77403J-1122334D01*
G01*
X136178584Y-59077403D01*
G75*
G02*
X134978847Y-60122334I-1122334J77403D01*
G01*
G37*
D13*
X42386250Y-63500000D03*
X32226250Y-63500000D03*
D14*
X34806250Y-59500000D03*
D15*
X37306250Y-63500000D03*
G36*
G01*
X32744938Y-61797350D02*
X32744933Y-61797345D01*
G75*
G02*
X32658905Y-60208683I751317J837345D01*
G01*
X33968907Y-58748683D01*
G75*
G02*
X35557569Y-58662655I837345J-751317D01*
G01*
X35557569Y-58662655D01*
G75*
G02*
X35643597Y-60251317I-751317J-837345D01*
G01*
X34333595Y-61711317D01*
G75*
G02*
X32744933Y-61797345I-837345J751317D01*
G01*
G37*
D14*
X39846250Y-58420000D03*
G36*
G01*
X39729733Y-60122395D02*
X39728847Y-60122334D01*
G75*
G02*
X38683916Y-58922597I77403J1122334D01*
G01*
X38723916Y-58342597D01*
G75*
G02*
X39923653Y-57297666I1122334J-77403D01*
G01*
X39923653Y-57297666D01*
G75*
G02*
X40968584Y-58497403I-77403J-1122334D01*
G01*
X40928584Y-59077403D01*
G75*
G02*
X39728847Y-60122334I-1122334J77403D01*
G01*
G37*
D13*
X251936250Y-63500000D03*
X241776250Y-63500000D03*
D14*
X244356250Y-59500000D03*
D15*
X246856250Y-63500000D03*
G36*
G01*
X242294938Y-61797350D02*
X242294933Y-61797345D01*
G75*
G02*
X242208905Y-60208683I751317J837345D01*
G01*
X243518907Y-58748683D01*
G75*
G02*
X245107569Y-58662655I837345J-751317D01*
G01*
X245107569Y-58662655D01*
G75*
G02*
X245193597Y-60251317I-751317J-837345D01*
G01*
X243883595Y-61711317D01*
G75*
G02*
X242294933Y-61797345I-837345J751317D01*
G01*
G37*
D14*
X249396250Y-58420000D03*
G36*
G01*
X249279733Y-60122395D02*
X249278847Y-60122334D01*
G75*
G02*
X248233916Y-58922597I77403J1122334D01*
G01*
X248273916Y-58342597D01*
G75*
G02*
X249473653Y-57297666I1122334J-77403D01*
G01*
X249473653Y-57297666D01*
G75*
G02*
X250518584Y-58497403I-77403J-1122334D01*
G01*
X250478584Y-59077403D01*
G75*
G02*
X249278847Y-60122334I-1122334J77403D01*
G01*
G37*
D13*
X99536250Y-82550000D03*
X89376250Y-82550000D03*
D14*
X91956250Y-78550000D03*
D15*
X94456250Y-82550000D03*
G36*
G01*
X89894938Y-80847350D02*
X89894933Y-80847345D01*
G75*
G02*
X89808905Y-79258683I751317J837345D01*
G01*
X91118907Y-77798683D01*
G75*
G02*
X92707569Y-77712655I837345J-751317D01*
G01*
X92707569Y-77712655D01*
G75*
G02*
X92793597Y-79301317I-751317J-837345D01*
G01*
X91483595Y-80761317D01*
G75*
G02*
X89894933Y-80847345I-837345J751317D01*
G01*
G37*
D14*
X96996250Y-77470000D03*
G36*
G01*
X96879733Y-79172395D02*
X96878847Y-79172334D01*
G75*
G02*
X95833916Y-77972597I77403J1122334D01*
G01*
X95873916Y-77392597D01*
G75*
G02*
X97073653Y-76347666I1122334J-77403D01*
G01*
X97073653Y-76347666D01*
G75*
G02*
X98118584Y-77547403I-77403J-1122334D01*
G01*
X98078584Y-78127403D01*
G75*
G02*
X96878847Y-79172334I-1122334J77403D01*
G01*
G37*
D13*
X61436250Y-101600000D03*
X51276250Y-101600000D03*
D14*
X53856250Y-97600000D03*
D15*
X56356250Y-101600000D03*
G36*
G01*
X51794938Y-99897350D02*
X51794933Y-99897345D01*
G75*
G02*
X51708905Y-98308683I751317J837345D01*
G01*
X53018907Y-96848683D01*
G75*
G02*
X54607569Y-96762655I837345J-751317D01*
G01*
X54607569Y-96762655D01*
G75*
G02*
X54693597Y-98351317I-751317J-837345D01*
G01*
X53383595Y-99811317D01*
G75*
G02*
X51794933Y-99897345I-837345J751317D01*
G01*
G37*
D14*
X58896250Y-96520000D03*
G36*
G01*
X58779733Y-98222395D02*
X58778847Y-98222334D01*
G75*
G02*
X57733916Y-97022597I77403J1122334D01*
G01*
X57773916Y-96442597D01*
G75*
G02*
X58973653Y-95397666I1122334J-77403D01*
G01*
X58973653Y-95397666D01*
G75*
G02*
X60018584Y-96597403I-77403J-1122334D01*
G01*
X59978584Y-97177403D01*
G75*
G02*
X58778847Y-98222334I-1122334J77403D01*
G01*
G37*
D13*
X80486250Y-101600000D03*
X70326250Y-101600000D03*
D14*
X72906250Y-97600000D03*
D15*
X75406250Y-101600000D03*
G36*
G01*
X70844938Y-99897350D02*
X70844933Y-99897345D01*
G75*
G02*
X70758905Y-98308683I751317J837345D01*
G01*
X72068907Y-96848683D01*
G75*
G02*
X73657569Y-96762655I837345J-751317D01*
G01*
X73657569Y-96762655D01*
G75*
G02*
X73743597Y-98351317I-751317J-837345D01*
G01*
X72433595Y-99811317D01*
G75*
G02*
X70844933Y-99897345I-837345J751317D01*
G01*
G37*
D14*
X77946250Y-96520000D03*
G36*
G01*
X77829733Y-98222395D02*
X77828847Y-98222334D01*
G75*
G02*
X76783916Y-97022597I77403J1122334D01*
G01*
X76823916Y-96442597D01*
G75*
G02*
X78023653Y-95397666I1122334J-77403D01*
G01*
X78023653Y-95397666D01*
G75*
G02*
X79068584Y-96597403I-77403J-1122334D01*
G01*
X79028584Y-97177403D01*
G75*
G02*
X77828847Y-98222334I-1122334J77403D01*
G01*
G37*
D13*
X118586250Y-101600000D03*
X108426250Y-101600000D03*
D14*
X111006250Y-97600000D03*
D15*
X113506250Y-101600000D03*
G36*
G01*
X108944938Y-99897350D02*
X108944933Y-99897345D01*
G75*
G02*
X108858905Y-98308683I751317J837345D01*
G01*
X110168907Y-96848683D01*
G75*
G02*
X111757569Y-96762655I837345J-751317D01*
G01*
X111757569Y-96762655D01*
G75*
G02*
X111843597Y-98351317I-751317J-837345D01*
G01*
X110533595Y-99811317D01*
G75*
G02*
X108944933Y-99897345I-837345J751317D01*
G01*
G37*
D14*
X116046250Y-96520000D03*
G36*
G01*
X115929733Y-98222395D02*
X115928847Y-98222334D01*
G75*
G02*
X114883916Y-97022597I77403J1122334D01*
G01*
X114923916Y-96442597D01*
G75*
G02*
X116123653Y-95397666I1122334J-77403D01*
G01*
X116123653Y-95397666D01*
G75*
G02*
X117168584Y-96597403I-77403J-1122334D01*
G01*
X117128584Y-97177403D01*
G75*
G02*
X115928847Y-98222334I-1122334J77403D01*
G01*
G37*
D15*
X154019250Y-112395000D03*
X130143250Y-112395000D03*
D17*
X154019250Y-127635000D03*
X130143250Y-127635000D03*
D13*
X147161250Y-120650000D03*
X137001250Y-120650000D03*
D14*
X139581250Y-116650000D03*
D15*
X142081250Y-120650000D03*
G36*
G01*
X137519938Y-118947350D02*
X137519933Y-118947345D01*
G75*
G02*
X137433905Y-117358683I751317J837345D01*
G01*
X138743907Y-115898683D01*
G75*
G02*
X140332569Y-115812655I837345J-751317D01*
G01*
X140332569Y-115812655D01*
G75*
G02*
X140418597Y-117401317I-751317J-837345D01*
G01*
X139108595Y-118861317D01*
G75*
G02*
X137519933Y-118947345I-837345J751317D01*
G01*
G37*
D14*
X144621250Y-115570000D03*
G36*
G01*
X144504733Y-117272395D02*
X144503847Y-117272334D01*
G75*
G02*
X143458916Y-116072597I77403J1122334D01*
G01*
X143498916Y-115492597D01*
G75*
G02*
X144698653Y-114447666I1122334J-77403D01*
G01*
X144698653Y-114447666D01*
G75*
G02*
X145743584Y-115647403I-77403J-1122334D01*
G01*
X145703584Y-116227403D01*
G75*
G02*
X144503847Y-117272334I-1122334J77403D01*
G01*
G37*
D13*
X42386250Y-101600000D03*
X32226250Y-101600000D03*
D14*
X34806250Y-97600000D03*
D15*
X37306250Y-101600000D03*
G36*
G01*
X32744938Y-99897350D02*
X32744933Y-99897345D01*
G75*
G02*
X32658905Y-98308683I751317J837345D01*
G01*
X33968907Y-96848683D01*
G75*
G02*
X35557569Y-96762655I837345J-751317D01*
G01*
X35557569Y-96762655D01*
G75*
G02*
X35643597Y-98351317I-751317J-837345D01*
G01*
X34333595Y-99811317D01*
G75*
G02*
X32744933Y-99897345I-837345J751317D01*
G01*
G37*
D14*
X39846250Y-96520000D03*
G36*
G01*
X39729733Y-98222395D02*
X39728847Y-98222334D01*
G75*
G02*
X38683916Y-97022597I77403J1122334D01*
G01*
X38723916Y-96442597D01*
G75*
G02*
X39923653Y-95397666I1122334J-77403D01*
G01*
X39923653Y-95397666D01*
G75*
G02*
X40968584Y-96597403I-77403J-1122334D01*
G01*
X40928584Y-97177403D01*
G75*
G02*
X39728847Y-98222334I-1122334J77403D01*
G01*
G37*
D13*
X213836250Y-101600000D03*
X203676250Y-101600000D03*
D14*
X206256250Y-97600000D03*
D15*
X208756250Y-101600000D03*
G36*
G01*
X204194938Y-99897350D02*
X204194933Y-99897345D01*
G75*
G02*
X204108905Y-98308683I751317J837345D01*
G01*
X205418907Y-96848683D01*
G75*
G02*
X207007569Y-96762655I837345J-751317D01*
G01*
X207007569Y-96762655D01*
G75*
G02*
X207093597Y-98351317I-751317J-837345D01*
G01*
X205783595Y-99811317D01*
G75*
G02*
X204194933Y-99897345I-837345J751317D01*
G01*
G37*
D14*
X211296250Y-96520000D03*
G36*
G01*
X211179733Y-98222395D02*
X211178847Y-98222334D01*
G75*
G02*
X210133916Y-97022597I77403J1122334D01*
G01*
X210173916Y-96442597D01*
G75*
G02*
X211373653Y-95397666I1122334J-77403D01*
G01*
X211373653Y-95397666D01*
G75*
G02*
X212418584Y-96597403I-77403J-1122334D01*
G01*
X212378584Y-97177403D01*
G75*
G02*
X211178847Y-98222334I-1122334J77403D01*
G01*
G37*
D13*
X175736250Y-101600000D03*
X165576250Y-101600000D03*
D14*
X168156250Y-97600000D03*
D15*
X170656250Y-101600000D03*
G36*
G01*
X166094938Y-99897350D02*
X166094933Y-99897345D01*
G75*
G02*
X166008905Y-98308683I751317J837345D01*
G01*
X167318907Y-96848683D01*
G75*
G02*
X168907569Y-96762655I837345J-751317D01*
G01*
X168907569Y-96762655D01*
G75*
G02*
X168993597Y-98351317I-751317J-837345D01*
G01*
X167683595Y-99811317D01*
G75*
G02*
X166094933Y-99897345I-837345J751317D01*
G01*
G37*
D14*
X173196250Y-96520000D03*
G36*
G01*
X173079733Y-98222395D02*
X173078847Y-98222334D01*
G75*
G02*
X172033916Y-97022597I77403J1122334D01*
G01*
X172073916Y-96442597D01*
G75*
G02*
X173273653Y-95397666I1122334J-77403D01*
G01*
X173273653Y-95397666D01*
G75*
G02*
X174318584Y-96597403I-77403J-1122334D01*
G01*
X174278584Y-97177403D01*
G75*
G02*
X173078847Y-98222334I-1122334J77403D01*
G01*
G37*
D13*
X194786250Y-101600000D03*
X184626250Y-101600000D03*
D14*
X187206250Y-97600000D03*
D15*
X189706250Y-101600000D03*
G36*
G01*
X185144938Y-99897350D02*
X185144933Y-99897345D01*
G75*
G02*
X185058905Y-98308683I751317J837345D01*
G01*
X186368907Y-96848683D01*
G75*
G02*
X187957569Y-96762655I837345J-751317D01*
G01*
X187957569Y-96762655D01*
G75*
G02*
X188043597Y-98351317I-751317J-837345D01*
G01*
X186733595Y-99811317D01*
G75*
G02*
X185144933Y-99897345I-837345J751317D01*
G01*
G37*
D14*
X192246250Y-96520000D03*
G36*
G01*
X192129733Y-98222395D02*
X192128847Y-98222334D01*
G75*
G02*
X191083916Y-97022597I77403J1122334D01*
G01*
X191123916Y-96442597D01*
G75*
G02*
X192323653Y-95397666I1122334J-77403D01*
G01*
X192323653Y-95397666D01*
G75*
G02*
X193368584Y-96597403I-77403J-1122334D01*
G01*
X193328584Y-97177403D01*
G75*
G02*
X192128847Y-98222334I-1122334J77403D01*
G01*
G37*
D13*
X99536250Y-101600000D03*
X89376250Y-101600000D03*
D14*
X91956250Y-97600000D03*
D15*
X94456250Y-101600000D03*
G36*
G01*
X89894938Y-99897350D02*
X89894933Y-99897345D01*
G75*
G02*
X89808905Y-98308683I751317J837345D01*
G01*
X91118907Y-96848683D01*
G75*
G02*
X92707569Y-96762655I837345J-751317D01*
G01*
X92707569Y-96762655D01*
G75*
G02*
X92793597Y-98351317I-751317J-837345D01*
G01*
X91483595Y-99811317D01*
G75*
G02*
X89894933Y-99897345I-837345J751317D01*
G01*
G37*
D14*
X96996250Y-96520000D03*
G36*
G01*
X96879733Y-98222395D02*
X96878847Y-98222334D01*
G75*
G02*
X95833916Y-97022597I77403J1122334D01*
G01*
X95873916Y-96442597D01*
G75*
G02*
X97073653Y-95397666I1122334J-77403D01*
G01*
X97073653Y-95397666D01*
G75*
G02*
X98118584Y-96597403I-77403J-1122334D01*
G01*
X98078584Y-97177403D01*
G75*
G02*
X96878847Y-98222334I-1122334J77403D01*
G01*
G37*
D13*
X156686250Y-63500000D03*
X146526250Y-63500000D03*
D14*
X149106250Y-59500000D03*
D15*
X151606250Y-63500000D03*
G36*
G01*
X147044938Y-61797350D02*
X147044933Y-61797345D01*
G75*
G02*
X146958905Y-60208683I751317J837345D01*
G01*
X148268907Y-58748683D01*
G75*
G02*
X149857569Y-58662655I837345J-751317D01*
G01*
X149857569Y-58662655D01*
G75*
G02*
X149943597Y-60251317I-751317J-837345D01*
G01*
X148633595Y-61711317D01*
G75*
G02*
X147044933Y-61797345I-837345J751317D01*
G01*
G37*
D14*
X154146250Y-58420000D03*
G36*
G01*
X154029733Y-60122395D02*
X154028847Y-60122334D01*
G75*
G02*
X152983916Y-58922597I77403J1122334D01*
G01*
X153023916Y-58342597D01*
G75*
G02*
X154223653Y-57297666I1122334J-77403D01*
G01*
X154223653Y-57297666D01*
G75*
G02*
X155268584Y-58497403I-77403J-1122334D01*
G01*
X155228584Y-59077403D01*
G75*
G02*
X154028847Y-60122334I-1122334J77403D01*
G01*
G37*
D13*
X61436250Y-120650000D03*
X51276250Y-120650000D03*
D14*
X53856250Y-116650000D03*
D15*
X56356250Y-120650000D03*
G36*
G01*
X51794938Y-118947350D02*
X51794933Y-118947345D01*
G75*
G02*
X51708905Y-117358683I751317J837345D01*
G01*
X53018907Y-115898683D01*
G75*
G02*
X54607569Y-115812655I837345J-751317D01*
G01*
X54607569Y-115812655D01*
G75*
G02*
X54693597Y-117401317I-751317J-837345D01*
G01*
X53383595Y-118861317D01*
G75*
G02*
X51794933Y-118947345I-837345J751317D01*
G01*
G37*
D14*
X58896250Y-115570000D03*
G36*
G01*
X58779733Y-117272395D02*
X58778847Y-117272334D01*
G75*
G02*
X57733916Y-116072597I77403J1122334D01*
G01*
X57773916Y-115492597D01*
G75*
G02*
X58973653Y-114447666I1122334J-77403D01*
G01*
X58973653Y-114447666D01*
G75*
G02*
X60018584Y-115647403I-77403J-1122334D01*
G01*
X59978584Y-116227403D01*
G75*
G02*
X58778847Y-117272334I-1122334J77403D01*
G01*
G37*
D13*
X80486250Y-63500000D03*
X70326250Y-63500000D03*
D14*
X72906250Y-59500000D03*
D15*
X75406250Y-63500000D03*
G36*
G01*
X70844938Y-61797350D02*
X70844933Y-61797345D01*
G75*
G02*
X70758905Y-60208683I751317J837345D01*
G01*
X72068907Y-58748683D01*
G75*
G02*
X73657569Y-58662655I837345J-751317D01*
G01*
X73657569Y-58662655D01*
G75*
G02*
X73743597Y-60251317I-751317J-837345D01*
G01*
X72433595Y-61711317D01*
G75*
G02*
X70844933Y-61797345I-837345J751317D01*
G01*
G37*
D14*
X77946250Y-58420000D03*
G36*
G01*
X77829733Y-60122395D02*
X77828847Y-60122334D01*
G75*
G02*
X76783916Y-58922597I77403J1122334D01*
G01*
X76823916Y-58342597D01*
G75*
G02*
X78023653Y-57297666I1122334J-77403D01*
G01*
X78023653Y-57297666D01*
G75*
G02*
X79068584Y-58497403I-77403J-1122334D01*
G01*
X79028584Y-59077403D01*
G75*
G02*
X77828847Y-60122334I-1122334J77403D01*
G01*
G37*
D13*
X232886250Y-101600000D03*
X222726250Y-101600000D03*
D14*
X225306250Y-97600000D03*
D15*
X227806250Y-101600000D03*
G36*
G01*
X223244938Y-99897350D02*
X223244933Y-99897345D01*
G75*
G02*
X223158905Y-98308683I751317J837345D01*
G01*
X224468907Y-96848683D01*
G75*
G02*
X226057569Y-96762655I837345J-751317D01*
G01*
X226057569Y-96762655D01*
G75*
G02*
X226143597Y-98351317I-751317J-837345D01*
G01*
X224833595Y-99811317D01*
G75*
G02*
X223244933Y-99897345I-837345J751317D01*
G01*
G37*
D14*
X230346250Y-96520000D03*
G36*
G01*
X230229733Y-98222395D02*
X230228847Y-98222334D01*
G75*
G02*
X229183916Y-97022597I77403J1122334D01*
G01*
X229223916Y-96442597D01*
G75*
G02*
X230423653Y-95397666I1122334J-77403D01*
G01*
X230423653Y-95397666D01*
G75*
G02*
X231468584Y-96597403I-77403J-1122334D01*
G01*
X231428584Y-97177403D01*
G75*
G02*
X230228847Y-98222334I-1122334J77403D01*
G01*
G37*
D13*
X175736250Y-63500000D03*
X165576250Y-63500000D03*
D14*
X168156250Y-59500000D03*
D15*
X170656250Y-63500000D03*
G36*
G01*
X166094938Y-61797350D02*
X166094933Y-61797345D01*
G75*
G02*
X166008905Y-60208683I751317J837345D01*
G01*
X167318907Y-58748683D01*
G75*
G02*
X168907569Y-58662655I837345J-751317D01*
G01*
X168907569Y-58662655D01*
G75*
G02*
X168993597Y-60251317I-751317J-837345D01*
G01*
X167683595Y-61711317D01*
G75*
G02*
X166094933Y-61797345I-837345J751317D01*
G01*
G37*
D14*
X173196250Y-58420000D03*
G36*
G01*
X173079733Y-60122395D02*
X173078847Y-60122334D01*
G75*
G02*
X172033916Y-58922597I77403J1122334D01*
G01*
X172073916Y-58342597D01*
G75*
G02*
X173273653Y-57297666I1122334J-77403D01*
G01*
X173273653Y-57297666D01*
G75*
G02*
X174318584Y-58497403I-77403J-1122334D01*
G01*
X174278584Y-59077403D01*
G75*
G02*
X173078847Y-60122334I-1122334J77403D01*
G01*
G37*
D13*
X42386250Y-82550000D03*
X32226250Y-82550000D03*
D14*
X34806250Y-78550000D03*
D15*
X37306250Y-82550000D03*
G36*
G01*
X32744938Y-80847350D02*
X32744933Y-80847345D01*
G75*
G02*
X32658905Y-79258683I751317J837345D01*
G01*
X33968907Y-77798683D01*
G75*
G02*
X35557569Y-77712655I837345J-751317D01*
G01*
X35557569Y-77712655D01*
G75*
G02*
X35643597Y-79301317I-751317J-837345D01*
G01*
X34333595Y-80761317D01*
G75*
G02*
X32744933Y-80847345I-837345J751317D01*
G01*
G37*
D14*
X39846250Y-77470000D03*
G36*
G01*
X39729733Y-79172395D02*
X39728847Y-79172334D01*
G75*
G02*
X38683916Y-77972597I77403J1122334D01*
G01*
X38723916Y-77392597D01*
G75*
G02*
X39923653Y-76347666I1122334J-77403D01*
G01*
X39923653Y-76347666D01*
G75*
G02*
X40968584Y-77547403I-77403J-1122334D01*
G01*
X40928584Y-78127403D01*
G75*
G02*
X39728847Y-79172334I-1122334J77403D01*
G01*
G37*
D13*
X251936250Y-101600000D03*
X241776250Y-101600000D03*
D14*
X244356250Y-97600000D03*
D15*
X246856250Y-101600000D03*
G36*
G01*
X242294938Y-99897350D02*
X242294933Y-99897345D01*
G75*
G02*
X242208905Y-98308683I751317J837345D01*
G01*
X243518907Y-96848683D01*
G75*
G02*
X245107569Y-96762655I837345J-751317D01*
G01*
X245107569Y-96762655D01*
G75*
G02*
X245193597Y-98351317I-751317J-837345D01*
G01*
X243883595Y-99811317D01*
G75*
G02*
X242294933Y-99897345I-837345J751317D01*
G01*
G37*
D14*
X249396250Y-96520000D03*
G36*
G01*
X249279733Y-98222395D02*
X249278847Y-98222334D01*
G75*
G02*
X248233916Y-97022597I77403J1122334D01*
G01*
X248273916Y-96442597D01*
G75*
G02*
X249473653Y-95397666I1122334J-77403D01*
G01*
X249473653Y-95397666D01*
G75*
G02*
X250518584Y-96597403I-77403J-1122334D01*
G01*
X250478584Y-97177403D01*
G75*
G02*
X249278847Y-98222334I-1122334J77403D01*
G01*
G37*
D13*
X232886250Y-82550000D03*
X222726250Y-82550000D03*
D14*
X225306250Y-78550000D03*
D15*
X227806250Y-82550000D03*
G36*
G01*
X223244938Y-80847350D02*
X223244933Y-80847345D01*
G75*
G02*
X223158905Y-79258683I751317J837345D01*
G01*
X224468907Y-77798683D01*
G75*
G02*
X226057569Y-77712655I837345J-751317D01*
G01*
X226057569Y-77712655D01*
G75*
G02*
X226143597Y-79301317I-751317J-837345D01*
G01*
X224833595Y-80761317D01*
G75*
G02*
X223244933Y-80847345I-837345J751317D01*
G01*
G37*
D14*
X230346250Y-77470000D03*
G36*
G01*
X230229733Y-79172395D02*
X230228847Y-79172334D01*
G75*
G02*
X229183916Y-77972597I77403J1122334D01*
G01*
X229223916Y-77392597D01*
G75*
G02*
X230423653Y-76347666I1122334J-77403D01*
G01*
X230423653Y-76347666D01*
G75*
G02*
X231468584Y-77547403I-77403J-1122334D01*
G01*
X231428584Y-78127403D01*
G75*
G02*
X230228847Y-79172334I-1122334J77403D01*
G01*
G37*
D13*
X80486250Y-82550000D03*
X70326250Y-82550000D03*
D14*
X72906250Y-78550000D03*
D15*
X75406250Y-82550000D03*
G36*
G01*
X70844938Y-80847350D02*
X70844933Y-80847345D01*
G75*
G02*
X70758905Y-79258683I751317J837345D01*
G01*
X72068907Y-77798683D01*
G75*
G02*
X73657569Y-77712655I837345J-751317D01*
G01*
X73657569Y-77712655D01*
G75*
G02*
X73743597Y-79301317I-751317J-837345D01*
G01*
X72433595Y-80761317D01*
G75*
G02*
X70844933Y-80847345I-837345J751317D01*
G01*
G37*
D14*
X77946250Y-77470000D03*
G36*
G01*
X77829733Y-79172395D02*
X77828847Y-79172334D01*
G75*
G02*
X76783916Y-77972597I77403J1122334D01*
G01*
X76823916Y-77392597D01*
G75*
G02*
X78023653Y-76347666I1122334J-77403D01*
G01*
X78023653Y-76347666D01*
G75*
G02*
X79068584Y-77547403I-77403J-1122334D01*
G01*
X79028584Y-78127403D01*
G75*
G02*
X77828847Y-79172334I-1122334J77403D01*
G01*
G37*
D13*
X251936250Y-120650000D03*
X241776250Y-120650000D03*
D14*
X244356250Y-116650000D03*
D15*
X246856250Y-120650000D03*
G36*
G01*
X242294938Y-118947350D02*
X242294933Y-118947345D01*
G75*
G02*
X242208905Y-117358683I751317J837345D01*
G01*
X243518907Y-115898683D01*
G75*
G02*
X245107569Y-115812655I837345J-751317D01*
G01*
X245107569Y-115812655D01*
G75*
G02*
X245193597Y-117401317I-751317J-837345D01*
G01*
X243883595Y-118861317D01*
G75*
G02*
X242294933Y-118947345I-837345J751317D01*
G01*
G37*
D14*
X249396250Y-115570000D03*
G36*
G01*
X249279733Y-117272395D02*
X249278847Y-117272334D01*
G75*
G02*
X248233916Y-116072597I77403J1122334D01*
G01*
X248273916Y-115492597D01*
G75*
G02*
X249473653Y-114447666I1122334J-77403D01*
G01*
X249473653Y-114447666D01*
G75*
G02*
X250518584Y-115647403I-77403J-1122334D01*
G01*
X250478584Y-116227403D01*
G75*
G02*
X249278847Y-117272334I-1122334J77403D01*
G01*
G37*
D13*
X194786250Y-120650000D03*
X184626250Y-120650000D03*
D14*
X187206250Y-116650000D03*
D15*
X189706250Y-120650000D03*
G36*
G01*
X185144938Y-118947350D02*
X185144933Y-118947345D01*
G75*
G02*
X185058905Y-117358683I751317J837345D01*
G01*
X186368907Y-115898683D01*
G75*
G02*
X187957569Y-115812655I837345J-751317D01*
G01*
X187957569Y-115812655D01*
G75*
G02*
X188043597Y-117401317I-751317J-837345D01*
G01*
X186733595Y-118861317D01*
G75*
G02*
X185144933Y-118947345I-837345J751317D01*
G01*
G37*
D14*
X192246250Y-115570000D03*
G36*
G01*
X192129733Y-117272395D02*
X192128847Y-117272334D01*
G75*
G02*
X191083916Y-116072597I77403J1122334D01*
G01*
X191123916Y-115492597D01*
G75*
G02*
X192323653Y-114447666I1122334J-77403D01*
G01*
X192323653Y-114447666D01*
G75*
G02*
X193368584Y-115647403I-77403J-1122334D01*
G01*
X193328584Y-116227403D01*
G75*
G02*
X192128847Y-117272334I-1122334J77403D01*
G01*
G37*
D13*
X118586250Y-63500000D03*
X108426250Y-63500000D03*
D14*
X111006250Y-59500000D03*
D15*
X113506250Y-63500000D03*
G36*
G01*
X108944938Y-61797350D02*
X108944933Y-61797345D01*
G75*
G02*
X108858905Y-60208683I751317J837345D01*
G01*
X110168907Y-58748683D01*
G75*
G02*
X111757569Y-58662655I837345J-751317D01*
G01*
X111757569Y-58662655D01*
G75*
G02*
X111843597Y-60251317I-751317J-837345D01*
G01*
X110533595Y-61711317D01*
G75*
G02*
X108944933Y-61797345I-837345J751317D01*
G01*
G37*
D14*
X116046250Y-58420000D03*
G36*
G01*
X115929733Y-60122395D02*
X115928847Y-60122334D01*
G75*
G02*
X114883916Y-58922597I77403J1122334D01*
G01*
X114923916Y-58342597D01*
G75*
G02*
X116123653Y-57297666I1122334J-77403D01*
G01*
X116123653Y-57297666D01*
G75*
G02*
X117168584Y-58497403I-77403J-1122334D01*
G01*
X117128584Y-59077403D01*
G75*
G02*
X115928847Y-60122334I-1122334J77403D01*
G01*
G37*
D13*
X61436250Y-63500000D03*
X51276250Y-63500000D03*
D14*
X53856250Y-59500000D03*
D15*
X56356250Y-63500000D03*
G36*
G01*
X51794938Y-61797350D02*
X51794933Y-61797345D01*
G75*
G02*
X51708905Y-60208683I751317J837345D01*
G01*
X53018907Y-58748683D01*
G75*
G02*
X54607569Y-58662655I837345J-751317D01*
G01*
X54607569Y-58662655D01*
G75*
G02*
X54693597Y-60251317I-751317J-837345D01*
G01*
X53383595Y-61711317D01*
G75*
G02*
X51794933Y-61797345I-837345J751317D01*
G01*
G37*
D14*
X58896250Y-58420000D03*
G36*
G01*
X58779733Y-60122395D02*
X58778847Y-60122334D01*
G75*
G02*
X57733916Y-58922597I77403J1122334D01*
G01*
X57773916Y-58342597D01*
G75*
G02*
X58973653Y-57297666I1122334J-77403D01*
G01*
X58973653Y-57297666D01*
G75*
G02*
X60018584Y-58497403I-77403J-1122334D01*
G01*
X59978584Y-59077403D01*
G75*
G02*
X58778847Y-60122334I-1122334J77403D01*
G01*
G37*
D13*
X232886250Y-63500000D03*
X222726250Y-63500000D03*
D14*
X225306250Y-59500000D03*
D15*
X227806250Y-63500000D03*
G36*
G01*
X223244938Y-61797350D02*
X223244933Y-61797345D01*
G75*
G02*
X223158905Y-60208683I751317J837345D01*
G01*
X224468907Y-58748683D01*
G75*
G02*
X226057569Y-58662655I837345J-751317D01*
G01*
X226057569Y-58662655D01*
G75*
G02*
X226143597Y-60251317I-751317J-837345D01*
G01*
X224833595Y-61711317D01*
G75*
G02*
X223244933Y-61797345I-837345J751317D01*
G01*
G37*
D14*
X230346250Y-58420000D03*
G36*
G01*
X230229733Y-60122395D02*
X230228847Y-60122334D01*
G75*
G02*
X229183916Y-58922597I77403J1122334D01*
G01*
X229223916Y-58342597D01*
G75*
G02*
X230423653Y-57297666I1122334J-77403D01*
G01*
X230423653Y-57297666D01*
G75*
G02*
X231468584Y-58497403I-77403J-1122334D01*
G01*
X231428584Y-59077403D01*
G75*
G02*
X230228847Y-60122334I-1122334J77403D01*
G01*
G37*
D13*
X213836250Y-63500000D03*
X203676250Y-63500000D03*
D14*
X206256250Y-59500000D03*
D15*
X208756250Y-63500000D03*
G36*
G01*
X204194938Y-61797350D02*
X204194933Y-61797345D01*
G75*
G02*
X204108905Y-60208683I751317J837345D01*
G01*
X205418907Y-58748683D01*
G75*
G02*
X207007569Y-58662655I837345J-751317D01*
G01*
X207007569Y-58662655D01*
G75*
G02*
X207093597Y-60251317I-751317J-837345D01*
G01*
X205783595Y-61711317D01*
G75*
G02*
X204194933Y-61797345I-837345J751317D01*
G01*
G37*
D14*
X211296250Y-58420000D03*
G36*
G01*
X211179733Y-60122395D02*
X211178847Y-60122334D01*
G75*
G02*
X210133916Y-58922597I77403J1122334D01*
G01*
X210173916Y-58342597D01*
G75*
G02*
X211373653Y-57297666I1122334J-77403D01*
G01*
X211373653Y-57297666D01*
G75*
G02*
X212418584Y-58497403I-77403J-1122334D01*
G01*
X212378584Y-59077403D01*
G75*
G02*
X211178847Y-60122334I-1122334J77403D01*
G01*
G37*
D13*
X213836250Y-120650000D03*
X203676250Y-120650000D03*
D14*
X206256250Y-116650000D03*
D15*
X208756250Y-120650000D03*
G36*
G01*
X204194938Y-118947350D02*
X204194933Y-118947345D01*
G75*
G02*
X204108905Y-117358683I751317J837345D01*
G01*
X205418907Y-115898683D01*
G75*
G02*
X207007569Y-115812655I837345J-751317D01*
G01*
X207007569Y-115812655D01*
G75*
G02*
X207093597Y-117401317I-751317J-837345D01*
G01*
X205783595Y-118861317D01*
G75*
G02*
X204194933Y-118947345I-837345J751317D01*
G01*
G37*
D14*
X211296250Y-115570000D03*
G36*
G01*
X211179733Y-117272395D02*
X211178847Y-117272334D01*
G75*
G02*
X210133916Y-116072597I77403J1122334D01*
G01*
X210173916Y-115492597D01*
G75*
G02*
X211373653Y-114447666I1122334J-77403D01*
G01*
X211373653Y-114447666D01*
G75*
G02*
X212418584Y-115647403I-77403J-1122334D01*
G01*
X212378584Y-116227403D01*
G75*
G02*
X211178847Y-117272334I-1122334J77403D01*
G01*
G37*
D13*
X175736250Y-120650000D03*
X165576250Y-120650000D03*
D14*
X168156250Y-116650000D03*
D15*
X170656250Y-120650000D03*
G36*
G01*
X166094938Y-118947350D02*
X166094933Y-118947345D01*
G75*
G02*
X166008905Y-117358683I751317J837345D01*
G01*
X167318907Y-115898683D01*
G75*
G02*
X168907569Y-115812655I837345J-751317D01*
G01*
X168907569Y-115812655D01*
G75*
G02*
X168993597Y-117401317I-751317J-837345D01*
G01*
X167683595Y-118861317D01*
G75*
G02*
X166094933Y-118947345I-837345J751317D01*
G01*
G37*
D14*
X173196250Y-115570000D03*
G36*
G01*
X173079733Y-117272395D02*
X173078847Y-117272334D01*
G75*
G02*
X172033916Y-116072597I77403J1122334D01*
G01*
X172073916Y-115492597D01*
G75*
G02*
X173273653Y-114447666I1122334J-77403D01*
G01*
X173273653Y-114447666D01*
G75*
G02*
X174318584Y-115647403I-77403J-1122334D01*
G01*
X174278584Y-116227403D01*
G75*
G02*
X173078847Y-117272334I-1122334J77403D01*
G01*
G37*
D13*
X118586250Y-120650000D03*
X108426250Y-120650000D03*
D14*
X111006250Y-116650000D03*
D15*
X113506250Y-120650000D03*
G36*
G01*
X108944938Y-118947350D02*
X108944933Y-118947345D01*
G75*
G02*
X108858905Y-117358683I751317J837345D01*
G01*
X110168907Y-115898683D01*
G75*
G02*
X111757569Y-115812655I837345J-751317D01*
G01*
X111757569Y-115812655D01*
G75*
G02*
X111843597Y-117401317I-751317J-837345D01*
G01*
X110533595Y-118861317D01*
G75*
G02*
X108944933Y-118947345I-837345J751317D01*
G01*
G37*
D14*
X116046250Y-115570000D03*
G36*
G01*
X115929733Y-117272395D02*
X115928847Y-117272334D01*
G75*
G02*
X114883916Y-116072597I77403J1122334D01*
G01*
X114923916Y-115492597D01*
G75*
G02*
X116123653Y-114447666I1122334J-77403D01*
G01*
X116123653Y-114447666D01*
G75*
G02*
X117168584Y-115647403I-77403J-1122334D01*
G01*
X117128584Y-116227403D01*
G75*
G02*
X115928847Y-117272334I-1122334J77403D01*
G01*
G37*
D13*
X213836250Y-82550000D03*
X203676250Y-82550000D03*
D14*
X206256250Y-78550000D03*
D15*
X208756250Y-82550000D03*
G36*
G01*
X204194938Y-80847350D02*
X204194933Y-80847345D01*
G75*
G02*
X204108905Y-79258683I751317J837345D01*
G01*
X205418907Y-77798683D01*
G75*
G02*
X207007569Y-77712655I837345J-751317D01*
G01*
X207007569Y-77712655D01*
G75*
G02*
X207093597Y-79301317I-751317J-837345D01*
G01*
X205783595Y-80761317D01*
G75*
G02*
X204194933Y-80847345I-837345J751317D01*
G01*
G37*
D14*
X211296250Y-77470000D03*
G36*
G01*
X211179733Y-79172395D02*
X211178847Y-79172334D01*
G75*
G02*
X210133916Y-77972597I77403J1122334D01*
G01*
X210173916Y-77392597D01*
G75*
G02*
X211373653Y-76347666I1122334J-77403D01*
G01*
X211373653Y-76347666D01*
G75*
G02*
X212418584Y-77547403I-77403J-1122334D01*
G01*
X212378584Y-78127403D01*
G75*
G02*
X211178847Y-79172334I-1122334J77403D01*
G01*
G37*
D13*
X194786250Y-82550000D03*
X184626250Y-82550000D03*
D14*
X187206250Y-78550000D03*
D15*
X189706250Y-82550000D03*
G36*
G01*
X185144938Y-80847350D02*
X185144933Y-80847345D01*
G75*
G02*
X185058905Y-79258683I751317J837345D01*
G01*
X186368907Y-77798683D01*
G75*
G02*
X187957569Y-77712655I837345J-751317D01*
G01*
X187957569Y-77712655D01*
G75*
G02*
X188043597Y-79301317I-751317J-837345D01*
G01*
X186733595Y-80761317D01*
G75*
G02*
X185144933Y-80847345I-837345J751317D01*
G01*
G37*
D14*
X192246250Y-77470000D03*
G36*
G01*
X192129733Y-79172395D02*
X192128847Y-79172334D01*
G75*
G02*
X191083916Y-77972597I77403J1122334D01*
G01*
X191123916Y-77392597D01*
G75*
G02*
X192323653Y-76347666I1122334J-77403D01*
G01*
X192323653Y-76347666D01*
G75*
G02*
X193368584Y-77547403I-77403J-1122334D01*
G01*
X193328584Y-78127403D01*
G75*
G02*
X192128847Y-79172334I-1122334J77403D01*
G01*
G37*
D13*
X175736250Y-82550000D03*
X165576250Y-82550000D03*
D14*
X168156250Y-78550000D03*
D15*
X170656250Y-82550000D03*
G36*
G01*
X166094938Y-80847350D02*
X166094933Y-80847345D01*
G75*
G02*
X166008905Y-79258683I751317J837345D01*
G01*
X167318907Y-77798683D01*
G75*
G02*
X168907569Y-77712655I837345J-751317D01*
G01*
X168907569Y-77712655D01*
G75*
G02*
X168993597Y-79301317I-751317J-837345D01*
G01*
X167683595Y-80761317D01*
G75*
G02*
X166094933Y-80847345I-837345J751317D01*
G01*
G37*
D14*
X173196250Y-77470000D03*
G36*
G01*
X173079733Y-79172395D02*
X173078847Y-79172334D01*
G75*
G02*
X172033916Y-77972597I77403J1122334D01*
G01*
X172073916Y-77392597D01*
G75*
G02*
X173273653Y-76347666I1122334J-77403D01*
G01*
X173273653Y-76347666D01*
G75*
G02*
X174318584Y-77547403I-77403J-1122334D01*
G01*
X174278584Y-78127403D01*
G75*
G02*
X173078847Y-79172334I-1122334J77403D01*
G01*
G37*
D13*
X194786250Y-63500000D03*
X184626250Y-63500000D03*
D14*
X187206250Y-59500000D03*
D15*
X189706250Y-63500000D03*
G36*
G01*
X185144938Y-61797350D02*
X185144933Y-61797345D01*
G75*
G02*
X185058905Y-60208683I751317J837345D01*
G01*
X186368907Y-58748683D01*
G75*
G02*
X187957569Y-58662655I837345J-751317D01*
G01*
X187957569Y-58662655D01*
G75*
G02*
X188043597Y-60251317I-751317J-837345D01*
G01*
X186733595Y-61711317D01*
G75*
G02*
X185144933Y-61797345I-837345J751317D01*
G01*
G37*
D14*
X192246250Y-58420000D03*
G36*
G01*
X192129733Y-60122395D02*
X192128847Y-60122334D01*
G75*
G02*
X191083916Y-58922597I77403J1122334D01*
G01*
X191123916Y-58342597D01*
G75*
G02*
X192323653Y-57297666I1122334J-77403D01*
G01*
X192323653Y-57297666D01*
G75*
G02*
X193368584Y-58497403I-77403J-1122334D01*
G01*
X193328584Y-59077403D01*
G75*
G02*
X192128847Y-60122334I-1122334J77403D01*
G01*
G37*
D13*
X156686250Y-82550000D03*
X146526250Y-82550000D03*
D14*
X149106250Y-78550000D03*
D15*
X151606250Y-82550000D03*
G36*
G01*
X147044938Y-80847350D02*
X147044933Y-80847345D01*
G75*
G02*
X146958905Y-79258683I751317J837345D01*
G01*
X148268907Y-77798683D01*
G75*
G02*
X149857569Y-77712655I837345J-751317D01*
G01*
X149857569Y-77712655D01*
G75*
G02*
X149943597Y-79301317I-751317J-837345D01*
G01*
X148633595Y-80761317D01*
G75*
G02*
X147044933Y-80847345I-837345J751317D01*
G01*
G37*
D14*
X154146250Y-77470000D03*
G36*
G01*
X154029733Y-79172395D02*
X154028847Y-79172334D01*
G75*
G02*
X152983916Y-77972597I77403J1122334D01*
G01*
X153023916Y-77392597D01*
G75*
G02*
X154223653Y-76347666I1122334J-77403D01*
G01*
X154223653Y-76347666D01*
G75*
G02*
X155268584Y-77547403I-77403J-1122334D01*
G01*
X155228584Y-78127403D01*
G75*
G02*
X154028847Y-79172334I-1122334J77403D01*
G01*
G37*
D13*
X137636250Y-82550000D03*
X127476250Y-82550000D03*
D14*
X130056250Y-78550000D03*
D15*
X132556250Y-82550000D03*
G36*
G01*
X127994938Y-80847350D02*
X127994933Y-80847345D01*
G75*
G02*
X127908905Y-79258683I751317J837345D01*
G01*
X129218907Y-77798683D01*
G75*
G02*
X130807569Y-77712655I837345J-751317D01*
G01*
X130807569Y-77712655D01*
G75*
G02*
X130893597Y-79301317I-751317J-837345D01*
G01*
X129583595Y-80761317D01*
G75*
G02*
X127994933Y-80847345I-837345J751317D01*
G01*
G37*
D14*
X135096250Y-77470000D03*
G36*
G01*
X134979733Y-79172395D02*
X134978847Y-79172334D01*
G75*
G02*
X133933916Y-77972597I77403J1122334D01*
G01*
X133973916Y-77392597D01*
G75*
G02*
X135173653Y-76347666I1122334J-77403D01*
G01*
X135173653Y-76347666D01*
G75*
G02*
X136218584Y-77547403I-77403J-1122334D01*
G01*
X136178584Y-78127403D01*
G75*
G02*
X134978847Y-79172334I-1122334J77403D01*
G01*
G37*
D13*
X99536250Y-120650000D03*
X89376250Y-120650000D03*
D14*
X91956250Y-116650000D03*
D15*
X94456250Y-120650000D03*
G36*
G01*
X89894938Y-118947350D02*
X89894933Y-118947345D01*
G75*
G02*
X89808905Y-117358683I751317J837345D01*
G01*
X91118907Y-115898683D01*
G75*
G02*
X92707569Y-115812655I837345J-751317D01*
G01*
X92707569Y-115812655D01*
G75*
G02*
X92793597Y-117401317I-751317J-837345D01*
G01*
X91483595Y-118861317D01*
G75*
G02*
X89894933Y-118947345I-837345J751317D01*
G01*
G37*
D14*
X96996250Y-115570000D03*
G36*
G01*
X96879733Y-117272395D02*
X96878847Y-117272334D01*
G75*
G02*
X95833916Y-116072597I77403J1122334D01*
G01*
X95873916Y-115492597D01*
G75*
G02*
X97073653Y-114447666I1122334J-77403D01*
G01*
X97073653Y-114447666D01*
G75*
G02*
X98118584Y-115647403I-77403J-1122334D01*
G01*
X98078584Y-116227403D01*
G75*
G02*
X96878847Y-117272334I-1122334J77403D01*
G01*
G37*
D13*
X251936250Y-82550000D03*
X241776250Y-82550000D03*
D14*
X244356250Y-78550000D03*
D15*
X246856250Y-82550000D03*
G36*
G01*
X242294938Y-80847350D02*
X242294933Y-80847345D01*
G75*
G02*
X242208905Y-79258683I751317J837345D01*
G01*
X243518907Y-77798683D01*
G75*
G02*
X245107569Y-77712655I837345J-751317D01*
G01*
X245107569Y-77712655D01*
G75*
G02*
X245193597Y-79301317I-751317J-837345D01*
G01*
X243883595Y-80761317D01*
G75*
G02*
X242294933Y-80847345I-837345J751317D01*
G01*
G37*
D14*
X249396250Y-77470000D03*
G36*
G01*
X249279733Y-79172395D02*
X249278847Y-79172334D01*
G75*
G02*
X248233916Y-77972597I77403J1122334D01*
G01*
X248273916Y-77392597D01*
G75*
G02*
X249473653Y-76347666I1122334J-77403D01*
G01*
X249473653Y-76347666D01*
G75*
G02*
X250518584Y-77547403I-77403J-1122334D01*
G01*
X250478584Y-78127403D01*
G75*
G02*
X249278847Y-79172334I-1122334J77403D01*
G01*
G37*
D13*
X99536250Y-63500000D03*
X89376250Y-63500000D03*
D14*
X91956250Y-59500000D03*
D15*
X94456250Y-63500000D03*
G36*
G01*
X89894938Y-61797350D02*
X89894933Y-61797345D01*
G75*
G02*
X89808905Y-60208683I751317J837345D01*
G01*
X91118907Y-58748683D01*
G75*
G02*
X92707569Y-58662655I837345J-751317D01*
G01*
X92707569Y-58662655D01*
G75*
G02*
X92793597Y-60251317I-751317J-837345D01*
G01*
X91483595Y-61711317D01*
G75*
G02*
X89894933Y-61797345I-837345J751317D01*
G01*
G37*
D14*
X96996250Y-58420000D03*
G36*
G01*
X96879733Y-60122395D02*
X96878847Y-60122334D01*
G75*
G02*
X95833916Y-58922597I77403J1122334D01*
G01*
X95873916Y-58342597D01*
G75*
G02*
X97073653Y-57297666I1122334J-77403D01*
G01*
X97073653Y-57297666D01*
G75*
G02*
X98118584Y-58497403I-77403J-1122334D01*
G01*
X98078584Y-59077403D01*
G75*
G02*
X96878847Y-60122334I-1122334J77403D01*
G01*
G37*
D13*
X232886250Y-120650000D03*
X222726250Y-120650000D03*
D14*
X225306250Y-116650000D03*
D15*
X227806250Y-120650000D03*
G36*
G01*
X223244938Y-118947350D02*
X223244933Y-118947345D01*
G75*
G02*
X223158905Y-117358683I751317J837345D01*
G01*
X224468907Y-115898683D01*
G75*
G02*
X226057569Y-115812655I837345J-751317D01*
G01*
X226057569Y-115812655D01*
G75*
G02*
X226143597Y-117401317I-751317J-837345D01*
G01*
X224833595Y-118861317D01*
G75*
G02*
X223244933Y-118947345I-837345J751317D01*
G01*
G37*
D14*
X230346250Y-115570000D03*
G36*
G01*
X230229733Y-117272395D02*
X230228847Y-117272334D01*
G75*
G02*
X229183916Y-116072597I77403J1122334D01*
G01*
X229223916Y-115492597D01*
G75*
G02*
X230423653Y-114447666I1122334J-77403D01*
G01*
X230423653Y-114447666D01*
G75*
G02*
X231468584Y-115647403I-77403J-1122334D01*
G01*
X231428584Y-116227403D01*
G75*
G02*
X230228847Y-117272334I-1122334J77403D01*
G01*
G37*
D13*
X80486250Y-120650000D03*
X70326250Y-120650000D03*
D14*
X72906250Y-116650000D03*
D15*
X75406250Y-120650000D03*
G36*
G01*
X70844938Y-118947350D02*
X70844933Y-118947345D01*
G75*
G02*
X70758905Y-117358683I751317J837345D01*
G01*
X72068907Y-115898683D01*
G75*
G02*
X73657569Y-115812655I837345J-751317D01*
G01*
X73657569Y-115812655D01*
G75*
G02*
X73743597Y-117401317I-751317J-837345D01*
G01*
X72433595Y-118861317D01*
G75*
G02*
X70844933Y-118947345I-837345J751317D01*
G01*
G37*
D14*
X77946250Y-115570000D03*
G36*
G01*
X77829733Y-117272395D02*
X77828847Y-117272334D01*
G75*
G02*
X76783916Y-116072597I77403J1122334D01*
G01*
X76823916Y-115492597D01*
G75*
G02*
X78023653Y-114447666I1122334J-77403D01*
G01*
X78023653Y-114447666D01*
G75*
G02*
X79068584Y-115647403I-77403J-1122334D01*
G01*
X79028584Y-116227403D01*
G75*
G02*
X77828847Y-117272334I-1122334J77403D01*
G01*
G37*
D13*
X61436250Y-82550000D03*
X51276250Y-82550000D03*
D14*
X53856250Y-78550000D03*
D15*
X56356250Y-82550000D03*
G36*
G01*
X51794938Y-80847350D02*
X51794933Y-80847345D01*
G75*
G02*
X51708905Y-79258683I751317J837345D01*
G01*
X53018907Y-77798683D01*
G75*
G02*
X54607569Y-77712655I837345J-751317D01*
G01*
X54607569Y-77712655D01*
G75*
G02*
X54693597Y-79301317I-751317J-837345D01*
G01*
X53383595Y-80761317D01*
G75*
G02*
X51794933Y-80847345I-837345J751317D01*
G01*
G37*
D14*
X58896250Y-77470000D03*
G36*
G01*
X58779733Y-79172395D02*
X58778847Y-79172334D01*
G75*
G02*
X57733916Y-77972597I77403J1122334D01*
G01*
X57773916Y-77392597D01*
G75*
G02*
X58973653Y-76347666I1122334J-77403D01*
G01*
X58973653Y-76347666D01*
G75*
G02*
X60018584Y-77547403I-77403J-1122334D01*
G01*
X59978584Y-78127403D01*
G75*
G02*
X58778847Y-79172334I-1122334J77403D01*
G01*
G37*
M02*
