G04 #@! TF.GenerationSoftware,KiCad,Pcbnew,(5.1.10)-1*
G04 #@! TF.CreationDate,2022-01-10T13:30:35-05:00*
G04 #@! TF.ProjectId,40,3430252e-6b69-4636-9164-5f7063625858,rev?*
G04 #@! TF.SameCoordinates,Original*
G04 #@! TF.FileFunction,Soldermask,Top*
G04 #@! TF.FilePolarity,Negative*
%FSLAX46Y46*%
G04 Gerber Fmt 4.6, Leading zero omitted, Abs format (unit mm)*
G04 Created by KiCad (PCBNEW (5.1.10)-1) date 2022-01-10 13:30:35*
%MOMM*%
%LPD*%
G01*
G04 APERTURE LIST*
%ADD10C,0.150000*%
%ADD11C,1.300000*%
%ADD12C,1.600000*%
%ADD13R,1.600000X1.600000*%
%ADD14C,1.750000*%
%ADD15C,3.987800*%
%ADD16O,1.600000X1.600000*%
%ADD17C,3.048000*%
G04 APERTURE END LIST*
D10*
X29761309Y-129039880D02*
X29761309Y-128039880D01*
X30094642Y-128373214D02*
X30475595Y-128373214D01*
X30237500Y-129039880D02*
X30237500Y-128182738D01*
X30285119Y-128087500D01*
X30380357Y-128039880D01*
X30475595Y-128039880D01*
X31427976Y-128373214D02*
X31808928Y-128373214D01*
X31570833Y-129039880D02*
X31570833Y-128182738D01*
X31618452Y-128087500D01*
X31713690Y-128039880D01*
X31808928Y-128039880D01*
X32285119Y-129039880D02*
X32189880Y-128992261D01*
X32142261Y-128944642D01*
X32094642Y-128849404D01*
X32094642Y-128563690D01*
X32142261Y-128468452D01*
X32189880Y-128420833D01*
X32285119Y-128373214D01*
X32427976Y-128373214D01*
X32523214Y-128420833D01*
X32570833Y-128468452D01*
X32618452Y-128563690D01*
X32618452Y-128849404D01*
X32570833Y-128944642D01*
X32523214Y-128992261D01*
X32427976Y-129039880D01*
X32285119Y-129039880D01*
X33475595Y-128373214D02*
X33475595Y-129039880D01*
X33047023Y-128373214D02*
X33047023Y-128897023D01*
X33094642Y-128992261D01*
X33189880Y-129039880D01*
X33332738Y-129039880D01*
X33427976Y-128992261D01*
X33475595Y-128944642D01*
X33951785Y-128373214D02*
X33951785Y-129039880D01*
X33951785Y-128468452D02*
X33999404Y-128420833D01*
X34094642Y-128373214D01*
X34237500Y-128373214D01*
X34332738Y-128420833D01*
X34380357Y-128516071D01*
X34380357Y-129039880D01*
X35285119Y-129039880D02*
X35285119Y-128039880D01*
X35285119Y-128992261D02*
X35189880Y-129039880D01*
X34999404Y-129039880D01*
X34904166Y-128992261D01*
X34856547Y-128944642D01*
X34808928Y-128849404D01*
X34808928Y-128563690D01*
X34856547Y-128468452D01*
X34904166Y-128420833D01*
X34999404Y-128373214D01*
X35189880Y-128373214D01*
X35285119Y-128420833D01*
X35808928Y-128992261D02*
X35808928Y-129039880D01*
X35761309Y-129135119D01*
X35713690Y-129182738D01*
X36999404Y-128373214D02*
X36999404Y-129373214D01*
X36999404Y-128420833D02*
X37094642Y-128373214D01*
X37285119Y-128373214D01*
X37380357Y-128420833D01*
X37427976Y-128468452D01*
X37475595Y-128563690D01*
X37475595Y-128849404D01*
X37427976Y-128944642D01*
X37380357Y-128992261D01*
X37285119Y-129039880D01*
X37094642Y-129039880D01*
X36999404Y-128992261D01*
X38047023Y-129039880D02*
X37951785Y-128992261D01*
X37904166Y-128897023D01*
X37904166Y-128039880D01*
X38808928Y-128992261D02*
X38713690Y-129039880D01*
X38523214Y-129039880D01*
X38427976Y-128992261D01*
X38380357Y-128897023D01*
X38380357Y-128516071D01*
X38427976Y-128420833D01*
X38523214Y-128373214D01*
X38713690Y-128373214D01*
X38808928Y-128420833D01*
X38856547Y-128516071D01*
X38856547Y-128611309D01*
X38380357Y-128706547D01*
X39713690Y-129039880D02*
X39713690Y-128516071D01*
X39666071Y-128420833D01*
X39570833Y-128373214D01*
X39380357Y-128373214D01*
X39285119Y-128420833D01*
X39713690Y-128992261D02*
X39618452Y-129039880D01*
X39380357Y-129039880D01*
X39285119Y-128992261D01*
X39237500Y-128897023D01*
X39237500Y-128801785D01*
X39285119Y-128706547D01*
X39380357Y-128658928D01*
X39618452Y-128658928D01*
X39713690Y-128611309D01*
X40142261Y-128992261D02*
X40237500Y-129039880D01*
X40427976Y-129039880D01*
X40523214Y-128992261D01*
X40570833Y-128897023D01*
X40570833Y-128849404D01*
X40523214Y-128754166D01*
X40427976Y-128706547D01*
X40285119Y-128706547D01*
X40189880Y-128658928D01*
X40142261Y-128563690D01*
X40142261Y-128516071D01*
X40189880Y-128420833D01*
X40285119Y-128373214D01*
X40427976Y-128373214D01*
X40523214Y-128420833D01*
X41380357Y-128992261D02*
X41285119Y-129039880D01*
X41094642Y-129039880D01*
X40999404Y-128992261D01*
X40951785Y-128897023D01*
X40951785Y-128516071D01*
X40999404Y-128420833D01*
X41094642Y-128373214D01*
X41285119Y-128373214D01*
X41380357Y-128420833D01*
X41427976Y-128516071D01*
X41427976Y-128611309D01*
X40951785Y-128706547D01*
X42999404Y-128992261D02*
X42904166Y-129039880D01*
X42713690Y-129039880D01*
X42618452Y-128992261D01*
X42570833Y-128897023D01*
X42570833Y-128516071D01*
X42618452Y-128420833D01*
X42713690Y-128373214D01*
X42904166Y-128373214D01*
X42999404Y-128420833D01*
X43047023Y-128516071D01*
X43047023Y-128611309D01*
X42570833Y-128706547D01*
X43475595Y-129039880D02*
X43475595Y-128373214D01*
X43475595Y-128468452D02*
X43523214Y-128420833D01*
X43618452Y-128373214D01*
X43761309Y-128373214D01*
X43856547Y-128420833D01*
X43904166Y-128516071D01*
X43904166Y-129039880D01*
X43904166Y-128516071D02*
X43951785Y-128420833D01*
X44047023Y-128373214D01*
X44189880Y-128373214D01*
X44285119Y-128420833D01*
X44332738Y-128516071D01*
X44332738Y-129039880D01*
X45237500Y-129039880D02*
X45237500Y-128516071D01*
X45189880Y-128420833D01*
X45094642Y-128373214D01*
X44904166Y-128373214D01*
X44808928Y-128420833D01*
X45237500Y-128992261D02*
X45142261Y-129039880D01*
X44904166Y-129039880D01*
X44808928Y-128992261D01*
X44761309Y-128897023D01*
X44761309Y-128801785D01*
X44808928Y-128706547D01*
X44904166Y-128658928D01*
X45142261Y-128658928D01*
X45237500Y-128611309D01*
X45713690Y-129039880D02*
X45713690Y-128373214D01*
X45713690Y-128039880D02*
X45666071Y-128087500D01*
X45713690Y-128135119D01*
X45761309Y-128087500D01*
X45713690Y-128039880D01*
X45713690Y-128135119D01*
X46332738Y-129039880D02*
X46237500Y-128992261D01*
X46189880Y-128897023D01*
X46189880Y-128039880D01*
X47427976Y-128992261D02*
X47523214Y-129039880D01*
X47713690Y-129039880D01*
X47808928Y-128992261D01*
X47856547Y-128897023D01*
X47856547Y-128849404D01*
X47808928Y-128754166D01*
X47713690Y-128706547D01*
X47570833Y-128706547D01*
X47475595Y-128658928D01*
X47427976Y-128563690D01*
X47427976Y-128516071D01*
X47475595Y-128420833D01*
X47570833Y-128373214D01*
X47713690Y-128373214D01*
X47808928Y-128420833D01*
X48713690Y-128373214D02*
X48713690Y-129373214D01*
X48713690Y-128992261D02*
X48618452Y-129039880D01*
X48427976Y-129039880D01*
X48332738Y-128992261D01*
X48285119Y-128944642D01*
X48237500Y-128849404D01*
X48237500Y-128563690D01*
X48285119Y-128468452D01*
X48332738Y-128420833D01*
X48427976Y-128373214D01*
X48618452Y-128373214D01*
X48713690Y-128420833D01*
X49094642Y-128039880D02*
X49713690Y-128039880D01*
X49380357Y-128420833D01*
X49523214Y-128420833D01*
X49618452Y-128468452D01*
X49666071Y-128516071D01*
X49713690Y-128611309D01*
X49713690Y-128849404D01*
X49666071Y-128944642D01*
X49618452Y-128992261D01*
X49523214Y-129039880D01*
X49237500Y-129039880D01*
X49142261Y-128992261D01*
X49094642Y-128944642D01*
X50047023Y-128039880D02*
X50713690Y-128039880D01*
X50285119Y-129039880D01*
X50999404Y-128039880D02*
X51618452Y-128039880D01*
X51285119Y-128420833D01*
X51427976Y-128420833D01*
X51523214Y-128468452D01*
X51570833Y-128516071D01*
X51618452Y-128611309D01*
X51618452Y-128849404D01*
X51570833Y-128944642D01*
X51523214Y-128992261D01*
X51427976Y-129039880D01*
X51142261Y-129039880D01*
X51047023Y-128992261D01*
X50999404Y-128944642D01*
X52475595Y-128039880D02*
X52285119Y-128039880D01*
X52189880Y-128087500D01*
X52142261Y-128135119D01*
X52047023Y-128277976D01*
X51999404Y-128468452D01*
X51999404Y-128849404D01*
X52047023Y-128944642D01*
X52094642Y-128992261D01*
X52189880Y-129039880D01*
X52380357Y-129039880D01*
X52475595Y-128992261D01*
X52523214Y-128944642D01*
X52570833Y-128849404D01*
X52570833Y-128611309D01*
X52523214Y-128516071D01*
X52475595Y-128468452D01*
X52380357Y-128420833D01*
X52189880Y-128420833D01*
X52094642Y-128468452D01*
X52047023Y-128516071D01*
X51999404Y-128611309D01*
X53618452Y-128563690D02*
X53570833Y-128516071D01*
X53475595Y-128468452D01*
X53380357Y-128468452D01*
X53285119Y-128516071D01*
X53237500Y-128563690D01*
X53189880Y-128658928D01*
X53189880Y-128754166D01*
X53237500Y-128849404D01*
X53285119Y-128897023D01*
X53380357Y-128944642D01*
X53475595Y-128944642D01*
X53570833Y-128897023D01*
X53618452Y-128849404D01*
X53618452Y-128468452D02*
X53618452Y-128849404D01*
X53666071Y-128897023D01*
X53713690Y-128897023D01*
X53808928Y-128849404D01*
X53856547Y-128754166D01*
X53856547Y-128516071D01*
X53761309Y-128373214D01*
X53618452Y-128277976D01*
X53427976Y-128230357D01*
X53237500Y-128277976D01*
X53094642Y-128373214D01*
X52999404Y-128516071D01*
X52951785Y-128706547D01*
X52999404Y-128897023D01*
X53094642Y-129039880D01*
X53237500Y-129135119D01*
X53427976Y-129182738D01*
X53618452Y-129135119D01*
X53761309Y-129039880D01*
X54713690Y-128373214D02*
X54713690Y-129182738D01*
X54666071Y-129277976D01*
X54618452Y-129325595D01*
X54523214Y-129373214D01*
X54380357Y-129373214D01*
X54285119Y-129325595D01*
X54713690Y-128992261D02*
X54618452Y-129039880D01*
X54427976Y-129039880D01*
X54332738Y-128992261D01*
X54285119Y-128944642D01*
X54237500Y-128849404D01*
X54237500Y-128563690D01*
X54285119Y-128468452D01*
X54332738Y-128420833D01*
X54427976Y-128373214D01*
X54618452Y-128373214D01*
X54713690Y-128420833D01*
X55189880Y-129039880D02*
X55189880Y-128373214D01*
X55189880Y-128468452D02*
X55237500Y-128420833D01*
X55332738Y-128373214D01*
X55475595Y-128373214D01*
X55570833Y-128420833D01*
X55618452Y-128516071D01*
X55618452Y-129039880D01*
X55618452Y-128516071D02*
X55666071Y-128420833D01*
X55761309Y-128373214D01*
X55904166Y-128373214D01*
X55999404Y-128420833D01*
X56047023Y-128516071D01*
X56047023Y-129039880D01*
X56951785Y-129039880D02*
X56951785Y-128516071D01*
X56904166Y-128420833D01*
X56808928Y-128373214D01*
X56618452Y-128373214D01*
X56523214Y-128420833D01*
X56951785Y-128992261D02*
X56856547Y-129039880D01*
X56618452Y-129039880D01*
X56523214Y-128992261D01*
X56475595Y-128897023D01*
X56475595Y-128801785D01*
X56523214Y-128706547D01*
X56618452Y-128658928D01*
X56856547Y-128658928D01*
X56951785Y-128611309D01*
X57427976Y-129039880D02*
X57427976Y-128373214D01*
X57427976Y-128039880D02*
X57380357Y-128087500D01*
X57427976Y-128135119D01*
X57475595Y-128087500D01*
X57427976Y-128039880D01*
X57427976Y-128135119D01*
X58047023Y-129039880D02*
X57951785Y-128992261D01*
X57904166Y-128897023D01*
X57904166Y-128039880D01*
X58427976Y-128944642D02*
X58475595Y-128992261D01*
X58427976Y-129039880D01*
X58380357Y-128992261D01*
X58427976Y-128944642D01*
X58427976Y-129039880D01*
X59332738Y-128992261D02*
X59237500Y-129039880D01*
X59047023Y-129039880D01*
X58951785Y-128992261D01*
X58904166Y-128944642D01*
X58856547Y-128849404D01*
X58856547Y-128563690D01*
X58904166Y-128468452D01*
X58951785Y-128420833D01*
X59047023Y-128373214D01*
X59237500Y-128373214D01*
X59332738Y-128420833D01*
X59904166Y-129039880D02*
X59808928Y-128992261D01*
X59761309Y-128944642D01*
X59713690Y-128849404D01*
X59713690Y-128563690D01*
X59761309Y-128468452D01*
X59808928Y-128420833D01*
X59904166Y-128373214D01*
X60047023Y-128373214D01*
X60142261Y-128420833D01*
X60189880Y-128468452D01*
X60237500Y-128563690D01*
X60237500Y-128849404D01*
X60189880Y-128944642D01*
X60142261Y-128992261D01*
X60047023Y-129039880D01*
X59904166Y-129039880D01*
X60666071Y-129039880D02*
X60666071Y-128373214D01*
X60666071Y-128468452D02*
X60713690Y-128420833D01*
X60808928Y-128373214D01*
X60951785Y-128373214D01*
X61047023Y-128420833D01*
X61094642Y-128516071D01*
X61094642Y-129039880D01*
X61094642Y-128516071D02*
X61142261Y-128420833D01*
X61237500Y-128373214D01*
X61380357Y-128373214D01*
X61475595Y-128420833D01*
X61523214Y-128516071D01*
X61523214Y-129039880D01*
X62904166Y-129039880D02*
X62808928Y-128992261D01*
X62761309Y-128944642D01*
X62713690Y-128849404D01*
X62713690Y-128563690D01*
X62761309Y-128468452D01*
X62808928Y-128420833D01*
X62904166Y-128373214D01*
X63047023Y-128373214D01*
X63142261Y-128420833D01*
X63189880Y-128468452D01*
X63237500Y-128563690D01*
X63237500Y-128849404D01*
X63189880Y-128944642D01*
X63142261Y-128992261D01*
X63047023Y-129039880D01*
X62904166Y-129039880D01*
X63666071Y-129039880D02*
X63666071Y-128373214D01*
X63666071Y-128563690D02*
X63713690Y-128468452D01*
X63761309Y-128420833D01*
X63856547Y-128373214D01*
X63951785Y-128373214D01*
X65475595Y-128992261D02*
X65380357Y-129039880D01*
X65189880Y-129039880D01*
X65094642Y-128992261D01*
X65047023Y-128944642D01*
X64999404Y-128849404D01*
X64999404Y-128563690D01*
X65047023Y-128468452D01*
X65094642Y-128420833D01*
X65189880Y-128373214D01*
X65380357Y-128373214D01*
X65475595Y-128420833D01*
X66332738Y-129039880D02*
X66332738Y-128516071D01*
X66285119Y-128420833D01*
X66189880Y-128373214D01*
X65999404Y-128373214D01*
X65904166Y-128420833D01*
X66332738Y-128992261D02*
X66237500Y-129039880D01*
X65999404Y-129039880D01*
X65904166Y-128992261D01*
X65856547Y-128897023D01*
X65856547Y-128801785D01*
X65904166Y-128706547D01*
X65999404Y-128658928D01*
X66237500Y-128658928D01*
X66332738Y-128611309D01*
X66951785Y-129039880D02*
X66856547Y-128992261D01*
X66808928Y-128897023D01*
X66808928Y-128039880D01*
X67475595Y-129039880D02*
X67380357Y-128992261D01*
X67332738Y-128897023D01*
X67332738Y-128039880D01*
X68761309Y-128468452D02*
X68666071Y-128420833D01*
X68618452Y-128373214D01*
X68570833Y-128277976D01*
X68570833Y-128230357D01*
X68618452Y-128135119D01*
X68666071Y-128087500D01*
X68761309Y-128039880D01*
X68951785Y-128039880D01*
X69047023Y-128087500D01*
X69094642Y-128135119D01*
X69142261Y-128230357D01*
X69142261Y-128277976D01*
X69094642Y-128373214D01*
X69047023Y-128420833D01*
X68951785Y-128468452D01*
X68761309Y-128468452D01*
X68666071Y-128516071D01*
X68618452Y-128563690D01*
X68570833Y-128658928D01*
X68570833Y-128849404D01*
X68618452Y-128944642D01*
X68666071Y-128992261D01*
X68761309Y-129039880D01*
X68951785Y-129039880D01*
X69047023Y-128992261D01*
X69094642Y-128944642D01*
X69142261Y-128849404D01*
X69142261Y-128658928D01*
X69094642Y-128563690D01*
X69047023Y-128516071D01*
X68951785Y-128468452D01*
X69999404Y-128039880D02*
X69808928Y-128039880D01*
X69713690Y-128087500D01*
X69666071Y-128135119D01*
X69570833Y-128277976D01*
X69523214Y-128468452D01*
X69523214Y-128849404D01*
X69570833Y-128944642D01*
X69618452Y-128992261D01*
X69713690Y-129039880D01*
X69904166Y-129039880D01*
X69999404Y-128992261D01*
X70047023Y-128944642D01*
X70094642Y-128849404D01*
X70094642Y-128611309D01*
X70047023Y-128516071D01*
X69999404Y-128468452D01*
X69904166Y-128420833D01*
X69713690Y-128420833D01*
X69618452Y-128468452D01*
X69570833Y-128516071D01*
X69523214Y-128611309D01*
X70951785Y-128373214D02*
X70951785Y-129039880D01*
X70713690Y-127992261D02*
X70475595Y-128706547D01*
X71094642Y-128706547D01*
X71475595Y-128658928D02*
X72237500Y-128658928D01*
X72618452Y-128039880D02*
X73237500Y-128039880D01*
X72904166Y-128420833D01*
X73047023Y-128420833D01*
X73142261Y-128468452D01*
X73189880Y-128516071D01*
X73237500Y-128611309D01*
X73237500Y-128849404D01*
X73189880Y-128944642D01*
X73142261Y-128992261D01*
X73047023Y-129039880D01*
X72761309Y-129039880D01*
X72666071Y-128992261D01*
X72618452Y-128944642D01*
X73618452Y-128135119D02*
X73666071Y-128087500D01*
X73761309Y-128039880D01*
X73999404Y-128039880D01*
X74094642Y-128087500D01*
X74142261Y-128135119D01*
X74189880Y-128230357D01*
X74189880Y-128325595D01*
X74142261Y-128468452D01*
X73570833Y-129039880D01*
X74189880Y-129039880D01*
X75094642Y-128039880D02*
X74618452Y-128039880D01*
X74570833Y-128516071D01*
X74618452Y-128468452D01*
X74713690Y-128420833D01*
X74951785Y-128420833D01*
X75047023Y-128468452D01*
X75094642Y-128516071D01*
X75142261Y-128611309D01*
X75142261Y-128849404D01*
X75094642Y-128944642D01*
X75047023Y-128992261D01*
X74951785Y-129039880D01*
X74713690Y-129039880D01*
X74618452Y-128992261D01*
X74570833Y-128944642D01*
X75570833Y-128658928D02*
X76332738Y-128658928D01*
X76951785Y-128468452D02*
X76856547Y-128420833D01*
X76808928Y-128373214D01*
X76761309Y-128277976D01*
X76761309Y-128230357D01*
X76808928Y-128135119D01*
X76856547Y-128087500D01*
X76951785Y-128039880D01*
X77142261Y-128039880D01*
X77237500Y-128087500D01*
X77285119Y-128135119D01*
X77332738Y-128230357D01*
X77332738Y-128277976D01*
X77285119Y-128373214D01*
X77237500Y-128420833D01*
X77142261Y-128468452D01*
X76951785Y-128468452D01*
X76856547Y-128516071D01*
X76808928Y-128563690D01*
X76761309Y-128658928D01*
X76761309Y-128849404D01*
X76808928Y-128944642D01*
X76856547Y-128992261D01*
X76951785Y-129039880D01*
X77142261Y-129039880D01*
X77237500Y-128992261D01*
X77285119Y-128944642D01*
X77332738Y-128849404D01*
X77332738Y-128658928D01*
X77285119Y-128563690D01*
X77237500Y-128516071D01*
X77142261Y-128468452D01*
X78189880Y-128373214D02*
X78189880Y-129039880D01*
X77951785Y-127992261D02*
X77713690Y-128706547D01*
X78332738Y-128706547D01*
X78856547Y-128468452D02*
X78761309Y-128420833D01*
X78713690Y-128373214D01*
X78666071Y-128277976D01*
X78666071Y-128230357D01*
X78713690Y-128135119D01*
X78761309Y-128087500D01*
X78856547Y-128039880D01*
X79047023Y-128039880D01*
X79142261Y-128087500D01*
X79189880Y-128135119D01*
X79237500Y-128230357D01*
X79237500Y-128277976D01*
X79189880Y-128373214D01*
X79142261Y-128420833D01*
X79047023Y-128468452D01*
X78856547Y-128468452D01*
X78761309Y-128516071D01*
X78713690Y-128563690D01*
X78666071Y-128658928D01*
X78666071Y-128849404D01*
X78713690Y-128944642D01*
X78761309Y-128992261D01*
X78856547Y-129039880D01*
X79047023Y-129039880D01*
X79142261Y-128992261D01*
X79189880Y-128944642D01*
X79237500Y-128849404D01*
X79237500Y-128658928D01*
X79189880Y-128563690D01*
X79142261Y-128516071D01*
X79047023Y-128468452D01*
X80142261Y-128039880D02*
X79666071Y-128039880D01*
X79618452Y-128516071D01*
X79666071Y-128468452D01*
X79761309Y-128420833D01*
X79999404Y-128420833D01*
X80094642Y-128468452D01*
X80142261Y-128516071D01*
X80189880Y-128611309D01*
X80189880Y-128849404D01*
X80142261Y-128944642D01*
X80094642Y-128992261D01*
X79999404Y-129039880D01*
X79761309Y-129039880D01*
X79666071Y-128992261D01*
X79618452Y-128944642D01*
X80618452Y-128944642D02*
X80666071Y-128992261D01*
X80618452Y-129039880D01*
X80570833Y-128992261D01*
X80618452Y-128944642D01*
X80618452Y-129039880D01*
X81713690Y-128039880D02*
X82285119Y-128039880D01*
X81999404Y-129039880D02*
X81999404Y-128039880D01*
X82618452Y-129039880D02*
X82618452Y-128039880D01*
X83047023Y-129039880D02*
X83047023Y-128516071D01*
X82999404Y-128420833D01*
X82904166Y-128373214D01*
X82761309Y-128373214D01*
X82666071Y-128420833D01*
X82618452Y-128468452D01*
X83951785Y-129039880D02*
X83951785Y-128516071D01*
X83904166Y-128420833D01*
X83808928Y-128373214D01*
X83618452Y-128373214D01*
X83523214Y-128420833D01*
X83951785Y-128992261D02*
X83856547Y-129039880D01*
X83618452Y-129039880D01*
X83523214Y-128992261D01*
X83475595Y-128897023D01*
X83475595Y-128801785D01*
X83523214Y-128706547D01*
X83618452Y-128658928D01*
X83856547Y-128658928D01*
X83951785Y-128611309D01*
X84427976Y-128373214D02*
X84427976Y-129039880D01*
X84427976Y-128468452D02*
X84475595Y-128420833D01*
X84570833Y-128373214D01*
X84713690Y-128373214D01*
X84808928Y-128420833D01*
X84856547Y-128516071D01*
X84856547Y-129039880D01*
X85332738Y-129039880D02*
X85332738Y-128039880D01*
X85427976Y-128658928D02*
X85713690Y-129039880D01*
X85713690Y-128373214D02*
X85332738Y-128754166D01*
X86094642Y-128992261D02*
X86189880Y-129039880D01*
X86380357Y-129039880D01*
X86475595Y-128992261D01*
X86523214Y-128897023D01*
X86523214Y-128849404D01*
X86475595Y-128754166D01*
X86380357Y-128706547D01*
X86237500Y-128706547D01*
X86142261Y-128658928D01*
X86094642Y-128563690D01*
X86094642Y-128516071D01*
X86142261Y-128420833D01*
X86237500Y-128373214D01*
X86380357Y-128373214D01*
X86475595Y-128420833D01*
X86951785Y-128944642D02*
X86999404Y-128992261D01*
X86951785Y-129039880D01*
X86904166Y-128992261D01*
X86951785Y-128944642D01*
X86951785Y-129039880D01*
X86951785Y-128658928D02*
X86904166Y-128087500D01*
X86951785Y-128039880D01*
X86999404Y-128087500D01*
X86951785Y-128658928D01*
X86951785Y-128039880D01*
D11*
X31387499Y-42318452D02*
X32387499Y-42627976D01*
X34054166Y-42627976D01*
X34720833Y-42318452D01*
X35054166Y-42008928D01*
X35387500Y-41389880D01*
X35387500Y-40770833D01*
X35054166Y-40151785D01*
X34720833Y-39842261D01*
X34054166Y-39532738D01*
X32720833Y-39223214D01*
X32054166Y-38913690D01*
X31720833Y-38604166D01*
X31387499Y-37985119D01*
X31387499Y-37366071D01*
X31720833Y-36747023D01*
X32054166Y-36437500D01*
X32720833Y-36127976D01*
X34387500Y-36127976D01*
X35387500Y-36437500D01*
X41387500Y-42627976D02*
X41387500Y-39223214D01*
X41054166Y-38604166D01*
X40387500Y-38294642D01*
X39054166Y-38294642D01*
X38387500Y-38604166D01*
X41387500Y-42318452D02*
X40720833Y-42627976D01*
X39054166Y-42627976D01*
X38387500Y-42318452D01*
X38054166Y-41699404D01*
X38054166Y-41080357D01*
X38387500Y-40461309D01*
X39054166Y-40151785D01*
X40720833Y-40151785D01*
X41387500Y-39842261D01*
X44720833Y-42627976D02*
X44720833Y-38294642D01*
X44720833Y-38913690D02*
X45054166Y-38604166D01*
X45720833Y-38294642D01*
X46720833Y-38294642D01*
X47387500Y-38604166D01*
X47720833Y-39223214D01*
X47720833Y-42627976D01*
X47720833Y-39223214D02*
X48054166Y-38604166D01*
X48720833Y-38294642D01*
X49720833Y-38294642D01*
X50387500Y-38604166D01*
X50720833Y-39223214D01*
X50720833Y-42627976D01*
X64054166Y-43247023D02*
X63387499Y-42937500D01*
X62720833Y-42318452D01*
X61720833Y-41389880D01*
X61054166Y-41080357D01*
X60387499Y-41080357D01*
X60720833Y-42627976D02*
X60054166Y-42318452D01*
X59387500Y-41699404D01*
X59054166Y-40461309D01*
X59054166Y-38294642D01*
X59387500Y-37056547D01*
X60054166Y-36437500D01*
X60720833Y-36127976D01*
X62054166Y-36127976D01*
X62720833Y-36437500D01*
X63387499Y-37056547D01*
X63720833Y-38294642D01*
X63720833Y-40461309D01*
X63387499Y-41699404D01*
X62720833Y-42318452D01*
X62054166Y-42627976D01*
X60720833Y-42627976D01*
X66720833Y-42627976D02*
X66720833Y-38294642D01*
X66720833Y-36127976D02*
X66387500Y-36437500D01*
X66720833Y-36747023D01*
X67054166Y-36437500D01*
X66720833Y-36127976D01*
X66720833Y-36747023D01*
X70054166Y-38294642D02*
X70054166Y-42627976D01*
X70054166Y-38913690D02*
X70387500Y-38604166D01*
X71054166Y-38294642D01*
X72054166Y-38294642D01*
X72720833Y-38604166D01*
X73054166Y-39223214D01*
X73054166Y-42627976D01*
D12*
X208280000Y-35242500D03*
X210820000Y-35242500D03*
X213360000Y-35242500D03*
X215900000Y-35242500D03*
X218440000Y-35242500D03*
X220980000Y-35242500D03*
X223520000Y-35242500D03*
X226060000Y-35242500D03*
X228600000Y-35242500D03*
X231140000Y-35242500D03*
X233680000Y-35242500D03*
X236220000Y-35242500D03*
X236220000Y-50482500D03*
X233680000Y-50482500D03*
X231140000Y-50482500D03*
X228600000Y-50482500D03*
X226060000Y-50482500D03*
X223520000Y-50482500D03*
X220980000Y-50482500D03*
X218440000Y-50482500D03*
X215900000Y-50482500D03*
X213360000Y-50482500D03*
X210820000Y-50482500D03*
D13*
X208280000Y-50482500D03*
D14*
X156686250Y-101600000D03*
X146526250Y-101600000D03*
D15*
X151606250Y-101600000D03*
D14*
X137636250Y-101600000D03*
X127476250Y-101600000D03*
D15*
X132556250Y-101600000D03*
D14*
X118586250Y-82550000D03*
X108426250Y-82550000D03*
D15*
X113506250Y-82550000D03*
D14*
X42386250Y-120650000D03*
X32226250Y-120650000D03*
D15*
X37306250Y-120650000D03*
D16*
X193357500Y-53975000D03*
D13*
X185737500Y-53975000D03*
D16*
X174307500Y-53975000D03*
D13*
X166687500Y-53975000D03*
D16*
X155257500Y-53975000D03*
D13*
X147637500Y-53975000D03*
D16*
X136445000Y-53975000D03*
D13*
X128825000Y-53975000D03*
D16*
X117395000Y-53975000D03*
D13*
X109775000Y-53975000D03*
D16*
X98345000Y-53975000D03*
D13*
X90725000Y-53975000D03*
D16*
X79057500Y-53975000D03*
D13*
X71437500Y-53975000D03*
D16*
X59845000Y-53975000D03*
D13*
X52225000Y-53975000D03*
D16*
X40957500Y-53975000D03*
D13*
X33337500Y-53975000D03*
D16*
X250507500Y-111125000D03*
D13*
X242887500Y-111125000D03*
D16*
X231457500Y-111125000D03*
D13*
X223837500Y-111125000D03*
D16*
X212170000Y-111125000D03*
D13*
X204550000Y-111125000D03*
D16*
X193120000Y-111125000D03*
D13*
X185500000Y-111125000D03*
D16*
X174070000Y-111125000D03*
D13*
X166450000Y-111125000D03*
D16*
X145495000Y-111125000D03*
D13*
X137875000Y-111125000D03*
D16*
X117395000Y-111125000D03*
D13*
X109775000Y-111125000D03*
D16*
X98663750Y-111125000D03*
D13*
X91043750Y-111125000D03*
D16*
X79295000Y-111125000D03*
D13*
X71675000Y-111125000D03*
D16*
X60245000Y-111125000D03*
D13*
X52625000Y-111125000D03*
D16*
X40957500Y-111125000D03*
D13*
X33337500Y-111125000D03*
D16*
X250745000Y-92075000D03*
D13*
X243125000Y-92075000D03*
D16*
X231457500Y-92075000D03*
D13*
X223837500Y-92075000D03*
D16*
X212645000Y-92075000D03*
D13*
X205025000Y-92075000D03*
D16*
X193357500Y-92075000D03*
D13*
X185737500Y-92075000D03*
D16*
X174070000Y-92075000D03*
D13*
X166450000Y-92075000D03*
D16*
X155495000Y-92075000D03*
D13*
X147875000Y-92075000D03*
D16*
X135970000Y-92075000D03*
D13*
X128350000Y-92075000D03*
D16*
X117157500Y-92075000D03*
D13*
X109537500Y-92075000D03*
D16*
X98345000Y-92075000D03*
D13*
X90725000Y-92075000D03*
D16*
X79057500Y-92075000D03*
D13*
X71437500Y-92075000D03*
D16*
X60245000Y-92075000D03*
D13*
X52625000Y-92075000D03*
D16*
X41195000Y-92075000D03*
D13*
X33575000Y-92075000D03*
D16*
X250745000Y-73025000D03*
D13*
X243125000Y-73025000D03*
D16*
X231457500Y-73025000D03*
D13*
X223837500Y-73025000D03*
D16*
X212645000Y-73025000D03*
D13*
X205025000Y-73025000D03*
D16*
X193595000Y-73025000D03*
D13*
X185975000Y-73025000D03*
D16*
X174545000Y-73025000D03*
D13*
X166925000Y-73025000D03*
D16*
X155495000Y-73025000D03*
D13*
X147875000Y-73025000D03*
D16*
X136207500Y-73025000D03*
D13*
X128587500Y-73025000D03*
D16*
X117395000Y-73025000D03*
D13*
X109775000Y-73025000D03*
D16*
X98107500Y-73025000D03*
D13*
X90487500Y-73025000D03*
D16*
X79057500Y-73025000D03*
D13*
X71437500Y-73025000D03*
D16*
X60007500Y-73025000D03*
D13*
X52387500Y-73025000D03*
D16*
X41275000Y-73025000D03*
D13*
X33655000Y-73025000D03*
D16*
X250507500Y-53975000D03*
D13*
X242887500Y-53975000D03*
D16*
X231775000Y-53975000D03*
D13*
X224155000Y-53975000D03*
D16*
X212407500Y-53975000D03*
D13*
X204787500Y-53975000D03*
D14*
X137636250Y-63500000D03*
X127476250Y-63500000D03*
D15*
X132556250Y-63500000D03*
D14*
X42386250Y-63500000D03*
X32226250Y-63500000D03*
D15*
X37306250Y-63500000D03*
D14*
X251936250Y-63500000D03*
X241776250Y-63500000D03*
D15*
X246856250Y-63500000D03*
D14*
X99536250Y-82550000D03*
X89376250Y-82550000D03*
D15*
X94456250Y-82550000D03*
D14*
X61436250Y-101600000D03*
X51276250Y-101600000D03*
D15*
X56356250Y-101600000D03*
D14*
X80486250Y-101600000D03*
X70326250Y-101600000D03*
D15*
X75406250Y-101600000D03*
D14*
X118586250Y-101600000D03*
X108426250Y-101600000D03*
D15*
X113506250Y-101600000D03*
X154019250Y-112395000D03*
X130143250Y-112395000D03*
D17*
X154019250Y-127635000D03*
X130143250Y-127635000D03*
D14*
X147161250Y-120650000D03*
X137001250Y-120650000D03*
D15*
X142081250Y-120650000D03*
D14*
X42386250Y-101600000D03*
X32226250Y-101600000D03*
D15*
X37306250Y-101600000D03*
D14*
X213836250Y-101600000D03*
X203676250Y-101600000D03*
D15*
X208756250Y-101600000D03*
D14*
X175736250Y-101600000D03*
X165576250Y-101600000D03*
D15*
X170656250Y-101600000D03*
D14*
X194786250Y-101600000D03*
X184626250Y-101600000D03*
D15*
X189706250Y-101600000D03*
D14*
X99536250Y-101600000D03*
X89376250Y-101600000D03*
D15*
X94456250Y-101600000D03*
D14*
X156686250Y-63500000D03*
X146526250Y-63500000D03*
D15*
X151606250Y-63500000D03*
D14*
X61436250Y-120650000D03*
X51276250Y-120650000D03*
D15*
X56356250Y-120650000D03*
D14*
X80486250Y-63500000D03*
X70326250Y-63500000D03*
D15*
X75406250Y-63500000D03*
D14*
X232886250Y-101600000D03*
X222726250Y-101600000D03*
D15*
X227806250Y-101600000D03*
D14*
X175736250Y-63500000D03*
X165576250Y-63500000D03*
D15*
X170656250Y-63500000D03*
D14*
X42386250Y-82550000D03*
X32226250Y-82550000D03*
D15*
X37306250Y-82550000D03*
D14*
X251936250Y-101600000D03*
X241776250Y-101600000D03*
D15*
X246856250Y-101600000D03*
D14*
X232886250Y-82550000D03*
X222726250Y-82550000D03*
D15*
X227806250Y-82550000D03*
D14*
X80486250Y-82550000D03*
X70326250Y-82550000D03*
D15*
X75406250Y-82550000D03*
D14*
X251936250Y-120650000D03*
X241776250Y-120650000D03*
D15*
X246856250Y-120650000D03*
D14*
X194786250Y-120650000D03*
X184626250Y-120650000D03*
D15*
X189706250Y-120650000D03*
D14*
X118586250Y-63500000D03*
X108426250Y-63500000D03*
D15*
X113506250Y-63500000D03*
D14*
X61436250Y-63500000D03*
X51276250Y-63500000D03*
D15*
X56356250Y-63500000D03*
D14*
X232886250Y-63500000D03*
X222726250Y-63500000D03*
D15*
X227806250Y-63500000D03*
D14*
X213836250Y-63500000D03*
X203676250Y-63500000D03*
D15*
X208756250Y-63500000D03*
D14*
X213836250Y-120650000D03*
X203676250Y-120650000D03*
D15*
X208756250Y-120650000D03*
D14*
X175736250Y-120650000D03*
X165576250Y-120650000D03*
D15*
X170656250Y-120650000D03*
D14*
X118586250Y-120650000D03*
X108426250Y-120650000D03*
D15*
X113506250Y-120650000D03*
D14*
X213836250Y-82550000D03*
X203676250Y-82550000D03*
D15*
X208756250Y-82550000D03*
D14*
X194786250Y-82550000D03*
X184626250Y-82550000D03*
D15*
X189706250Y-82550000D03*
D14*
X175736250Y-82550000D03*
X165576250Y-82550000D03*
D15*
X170656250Y-82550000D03*
D14*
X194786250Y-63500000D03*
X184626250Y-63500000D03*
D15*
X189706250Y-63500000D03*
D14*
X156686250Y-82550000D03*
X146526250Y-82550000D03*
D15*
X151606250Y-82550000D03*
D14*
X137636250Y-82550000D03*
X127476250Y-82550000D03*
D15*
X132556250Y-82550000D03*
D14*
X99536250Y-120650000D03*
X89376250Y-120650000D03*
D15*
X94456250Y-120650000D03*
D14*
X251936250Y-82550000D03*
X241776250Y-82550000D03*
D15*
X246856250Y-82550000D03*
D14*
X99536250Y-63500000D03*
X89376250Y-63500000D03*
D15*
X94456250Y-63500000D03*
D14*
X232886250Y-120650000D03*
X222726250Y-120650000D03*
D15*
X227806250Y-120650000D03*
D14*
X80486250Y-120650000D03*
X70326250Y-120650000D03*
D15*
X75406250Y-120650000D03*
D14*
X61436250Y-82550000D03*
X51276250Y-82550000D03*
D15*
X56356250Y-82550000D03*
M02*
