G04 #@! TF.GenerationSoftware,KiCad,Pcbnew,(5.1.10)-1*
G04 #@! TF.CreationDate,2022-01-10T13:30:35-05:00*
G04 #@! TF.ProjectId,40,3430252e-6b69-4636-9164-5f7063625858,rev?*
G04 #@! TF.SameCoordinates,Original*
G04 #@! TF.FileFunction,Legend,Top*
G04 #@! TF.FilePolarity,Positive*
%FSLAX46Y46*%
G04 Gerber Fmt 4.6, Leading zero omitted, Abs format (unit mm)*
G04 Created by KiCad (PCBNEW (5.1.10)-1) date 2022-01-10 13:30:35*
%MOMM*%
%LPD*%
G01*
G04 APERTURE LIST*
%ADD10C,0.150000*%
%ADD11C,0.120000*%
%ADD12C,1.300000*%
%ADD13C,1.600000*%
%ADD14R,1.600000X1.600000*%
%ADD15C,1.750000*%
%ADD16C,3.987800*%
%ADD17O,1.600000X1.600000*%
%ADD18C,3.048000*%
G04 APERTURE END LIST*
D10*
X237490000Y-33972500D02*
X237490000Y-51752500D01*
X207010000Y-33972500D02*
X237490000Y-33972500D01*
X207010000Y-39052500D02*
X207010000Y-33972500D01*
X204470000Y-39052500D02*
X207010000Y-39052500D01*
X204470000Y-46672500D02*
X204470000Y-39052500D01*
X207010000Y-46672500D02*
X204470000Y-46672500D01*
X207010000Y-51752500D02*
X207010000Y-46672500D01*
X207010000Y-51752500D02*
X237490000Y-51752500D01*
D11*
X187427500Y-52855000D02*
X187427500Y-55095000D01*
X187427500Y-55095000D02*
X191667500Y-55095000D01*
X191667500Y-55095000D02*
X191667500Y-52855000D01*
X191667500Y-52855000D02*
X187427500Y-52855000D01*
X186777500Y-53975000D02*
X187427500Y-53975000D01*
X192317500Y-53975000D02*
X191667500Y-53975000D01*
X188147500Y-52855000D02*
X188147500Y-55095000D01*
X188267500Y-52855000D02*
X188267500Y-55095000D01*
X188027500Y-52855000D02*
X188027500Y-55095000D01*
X168377500Y-52855000D02*
X168377500Y-55095000D01*
X168377500Y-55095000D02*
X172617500Y-55095000D01*
X172617500Y-55095000D02*
X172617500Y-52855000D01*
X172617500Y-52855000D02*
X168377500Y-52855000D01*
X167727500Y-53975000D02*
X168377500Y-53975000D01*
X173267500Y-53975000D02*
X172617500Y-53975000D01*
X169097500Y-52855000D02*
X169097500Y-55095000D01*
X169217500Y-52855000D02*
X169217500Y-55095000D01*
X168977500Y-52855000D02*
X168977500Y-55095000D01*
X149327500Y-52855000D02*
X149327500Y-55095000D01*
X149327500Y-55095000D02*
X153567500Y-55095000D01*
X153567500Y-55095000D02*
X153567500Y-52855000D01*
X153567500Y-52855000D02*
X149327500Y-52855000D01*
X148677500Y-53975000D02*
X149327500Y-53975000D01*
X154217500Y-53975000D02*
X153567500Y-53975000D01*
X150047500Y-52855000D02*
X150047500Y-55095000D01*
X150167500Y-52855000D02*
X150167500Y-55095000D01*
X149927500Y-52855000D02*
X149927500Y-55095000D01*
X130515000Y-52855000D02*
X130515000Y-55095000D01*
X130515000Y-55095000D02*
X134755000Y-55095000D01*
X134755000Y-55095000D02*
X134755000Y-52855000D01*
X134755000Y-52855000D02*
X130515000Y-52855000D01*
X129865000Y-53975000D02*
X130515000Y-53975000D01*
X135405000Y-53975000D02*
X134755000Y-53975000D01*
X131235000Y-52855000D02*
X131235000Y-55095000D01*
X131355000Y-52855000D02*
X131355000Y-55095000D01*
X131115000Y-52855000D02*
X131115000Y-55095000D01*
X111465000Y-52855000D02*
X111465000Y-55095000D01*
X111465000Y-55095000D02*
X115705000Y-55095000D01*
X115705000Y-55095000D02*
X115705000Y-52855000D01*
X115705000Y-52855000D02*
X111465000Y-52855000D01*
X110815000Y-53975000D02*
X111465000Y-53975000D01*
X116355000Y-53975000D02*
X115705000Y-53975000D01*
X112185000Y-52855000D02*
X112185000Y-55095000D01*
X112305000Y-52855000D02*
X112305000Y-55095000D01*
X112065000Y-52855000D02*
X112065000Y-55095000D01*
X92415000Y-52855000D02*
X92415000Y-55095000D01*
X92415000Y-55095000D02*
X96655000Y-55095000D01*
X96655000Y-55095000D02*
X96655000Y-52855000D01*
X96655000Y-52855000D02*
X92415000Y-52855000D01*
X91765000Y-53975000D02*
X92415000Y-53975000D01*
X97305000Y-53975000D02*
X96655000Y-53975000D01*
X93135000Y-52855000D02*
X93135000Y-55095000D01*
X93255000Y-52855000D02*
X93255000Y-55095000D01*
X93015000Y-52855000D02*
X93015000Y-55095000D01*
X73127500Y-52855000D02*
X73127500Y-55095000D01*
X73127500Y-55095000D02*
X77367500Y-55095000D01*
X77367500Y-55095000D02*
X77367500Y-52855000D01*
X77367500Y-52855000D02*
X73127500Y-52855000D01*
X72477500Y-53975000D02*
X73127500Y-53975000D01*
X78017500Y-53975000D02*
X77367500Y-53975000D01*
X73847500Y-52855000D02*
X73847500Y-55095000D01*
X73967500Y-52855000D02*
X73967500Y-55095000D01*
X73727500Y-52855000D02*
X73727500Y-55095000D01*
X53915000Y-52855000D02*
X53915000Y-55095000D01*
X53915000Y-55095000D02*
X58155000Y-55095000D01*
X58155000Y-55095000D02*
X58155000Y-52855000D01*
X58155000Y-52855000D02*
X53915000Y-52855000D01*
X53265000Y-53975000D02*
X53915000Y-53975000D01*
X58805000Y-53975000D02*
X58155000Y-53975000D01*
X54635000Y-52855000D02*
X54635000Y-55095000D01*
X54755000Y-52855000D02*
X54755000Y-55095000D01*
X54515000Y-52855000D02*
X54515000Y-55095000D01*
X35027500Y-52855000D02*
X35027500Y-55095000D01*
X35027500Y-55095000D02*
X39267500Y-55095000D01*
X39267500Y-55095000D02*
X39267500Y-52855000D01*
X39267500Y-52855000D02*
X35027500Y-52855000D01*
X34377500Y-53975000D02*
X35027500Y-53975000D01*
X39917500Y-53975000D02*
X39267500Y-53975000D01*
X35747500Y-52855000D02*
X35747500Y-55095000D01*
X35867500Y-52855000D02*
X35867500Y-55095000D01*
X35627500Y-52855000D02*
X35627500Y-55095000D01*
X244577500Y-110005000D02*
X244577500Y-112245000D01*
X244577500Y-112245000D02*
X248817500Y-112245000D01*
X248817500Y-112245000D02*
X248817500Y-110005000D01*
X248817500Y-110005000D02*
X244577500Y-110005000D01*
X243927500Y-111125000D02*
X244577500Y-111125000D01*
X249467500Y-111125000D02*
X248817500Y-111125000D01*
X245297500Y-110005000D02*
X245297500Y-112245000D01*
X245417500Y-110005000D02*
X245417500Y-112245000D01*
X245177500Y-110005000D02*
X245177500Y-112245000D01*
X225527500Y-110005000D02*
X225527500Y-112245000D01*
X225527500Y-112245000D02*
X229767500Y-112245000D01*
X229767500Y-112245000D02*
X229767500Y-110005000D01*
X229767500Y-110005000D02*
X225527500Y-110005000D01*
X224877500Y-111125000D02*
X225527500Y-111125000D01*
X230417500Y-111125000D02*
X229767500Y-111125000D01*
X226247500Y-110005000D02*
X226247500Y-112245000D01*
X226367500Y-110005000D02*
X226367500Y-112245000D01*
X226127500Y-110005000D02*
X226127500Y-112245000D01*
X206240000Y-110005000D02*
X206240000Y-112245000D01*
X206240000Y-112245000D02*
X210480000Y-112245000D01*
X210480000Y-112245000D02*
X210480000Y-110005000D01*
X210480000Y-110005000D02*
X206240000Y-110005000D01*
X205590000Y-111125000D02*
X206240000Y-111125000D01*
X211130000Y-111125000D02*
X210480000Y-111125000D01*
X206960000Y-110005000D02*
X206960000Y-112245000D01*
X207080000Y-110005000D02*
X207080000Y-112245000D01*
X206840000Y-110005000D02*
X206840000Y-112245000D01*
X187190000Y-110005000D02*
X187190000Y-112245000D01*
X187190000Y-112245000D02*
X191430000Y-112245000D01*
X191430000Y-112245000D02*
X191430000Y-110005000D01*
X191430000Y-110005000D02*
X187190000Y-110005000D01*
X186540000Y-111125000D02*
X187190000Y-111125000D01*
X192080000Y-111125000D02*
X191430000Y-111125000D01*
X187910000Y-110005000D02*
X187910000Y-112245000D01*
X188030000Y-110005000D02*
X188030000Y-112245000D01*
X187790000Y-110005000D02*
X187790000Y-112245000D01*
X168140000Y-110005000D02*
X168140000Y-112245000D01*
X168140000Y-112245000D02*
X172380000Y-112245000D01*
X172380000Y-112245000D02*
X172380000Y-110005000D01*
X172380000Y-110005000D02*
X168140000Y-110005000D01*
X167490000Y-111125000D02*
X168140000Y-111125000D01*
X173030000Y-111125000D02*
X172380000Y-111125000D01*
X168860000Y-110005000D02*
X168860000Y-112245000D01*
X168980000Y-110005000D02*
X168980000Y-112245000D01*
X168740000Y-110005000D02*
X168740000Y-112245000D01*
X139565000Y-110005000D02*
X139565000Y-112245000D01*
X139565000Y-112245000D02*
X143805000Y-112245000D01*
X143805000Y-112245000D02*
X143805000Y-110005000D01*
X143805000Y-110005000D02*
X139565000Y-110005000D01*
X138915000Y-111125000D02*
X139565000Y-111125000D01*
X144455000Y-111125000D02*
X143805000Y-111125000D01*
X140285000Y-110005000D02*
X140285000Y-112245000D01*
X140405000Y-110005000D02*
X140405000Y-112245000D01*
X140165000Y-110005000D02*
X140165000Y-112245000D01*
X111465000Y-110005000D02*
X111465000Y-112245000D01*
X111465000Y-112245000D02*
X115705000Y-112245000D01*
X115705000Y-112245000D02*
X115705000Y-110005000D01*
X115705000Y-110005000D02*
X111465000Y-110005000D01*
X110815000Y-111125000D02*
X111465000Y-111125000D01*
X116355000Y-111125000D02*
X115705000Y-111125000D01*
X112185000Y-110005000D02*
X112185000Y-112245000D01*
X112305000Y-110005000D02*
X112305000Y-112245000D01*
X112065000Y-110005000D02*
X112065000Y-112245000D01*
X92733750Y-110005000D02*
X92733750Y-112245000D01*
X92733750Y-112245000D02*
X96973750Y-112245000D01*
X96973750Y-112245000D02*
X96973750Y-110005000D01*
X96973750Y-110005000D02*
X92733750Y-110005000D01*
X92083750Y-111125000D02*
X92733750Y-111125000D01*
X97623750Y-111125000D02*
X96973750Y-111125000D01*
X93453750Y-110005000D02*
X93453750Y-112245000D01*
X93573750Y-110005000D02*
X93573750Y-112245000D01*
X93333750Y-110005000D02*
X93333750Y-112245000D01*
X73365000Y-110005000D02*
X73365000Y-112245000D01*
X73365000Y-112245000D02*
X77605000Y-112245000D01*
X77605000Y-112245000D02*
X77605000Y-110005000D01*
X77605000Y-110005000D02*
X73365000Y-110005000D01*
X72715000Y-111125000D02*
X73365000Y-111125000D01*
X78255000Y-111125000D02*
X77605000Y-111125000D01*
X74085000Y-110005000D02*
X74085000Y-112245000D01*
X74205000Y-110005000D02*
X74205000Y-112245000D01*
X73965000Y-110005000D02*
X73965000Y-112245000D01*
X54315000Y-110005000D02*
X54315000Y-112245000D01*
X54315000Y-112245000D02*
X58555000Y-112245000D01*
X58555000Y-112245000D02*
X58555000Y-110005000D01*
X58555000Y-110005000D02*
X54315000Y-110005000D01*
X53665000Y-111125000D02*
X54315000Y-111125000D01*
X59205000Y-111125000D02*
X58555000Y-111125000D01*
X55035000Y-110005000D02*
X55035000Y-112245000D01*
X55155000Y-110005000D02*
X55155000Y-112245000D01*
X54915000Y-110005000D02*
X54915000Y-112245000D01*
X35027500Y-110005000D02*
X35027500Y-112245000D01*
X35027500Y-112245000D02*
X39267500Y-112245000D01*
X39267500Y-112245000D02*
X39267500Y-110005000D01*
X39267500Y-110005000D02*
X35027500Y-110005000D01*
X34377500Y-111125000D02*
X35027500Y-111125000D01*
X39917500Y-111125000D02*
X39267500Y-111125000D01*
X35747500Y-110005000D02*
X35747500Y-112245000D01*
X35867500Y-110005000D02*
X35867500Y-112245000D01*
X35627500Y-110005000D02*
X35627500Y-112245000D01*
X244815000Y-90955000D02*
X244815000Y-93195000D01*
X244815000Y-93195000D02*
X249055000Y-93195000D01*
X249055000Y-93195000D02*
X249055000Y-90955000D01*
X249055000Y-90955000D02*
X244815000Y-90955000D01*
X244165000Y-92075000D02*
X244815000Y-92075000D01*
X249705000Y-92075000D02*
X249055000Y-92075000D01*
X245535000Y-90955000D02*
X245535000Y-93195000D01*
X245655000Y-90955000D02*
X245655000Y-93195000D01*
X245415000Y-90955000D02*
X245415000Y-93195000D01*
X225527500Y-90955000D02*
X225527500Y-93195000D01*
X225527500Y-93195000D02*
X229767500Y-93195000D01*
X229767500Y-93195000D02*
X229767500Y-90955000D01*
X229767500Y-90955000D02*
X225527500Y-90955000D01*
X224877500Y-92075000D02*
X225527500Y-92075000D01*
X230417500Y-92075000D02*
X229767500Y-92075000D01*
X226247500Y-90955000D02*
X226247500Y-93195000D01*
X226367500Y-90955000D02*
X226367500Y-93195000D01*
X226127500Y-90955000D02*
X226127500Y-93195000D01*
X206715000Y-90955000D02*
X206715000Y-93195000D01*
X206715000Y-93195000D02*
X210955000Y-93195000D01*
X210955000Y-93195000D02*
X210955000Y-90955000D01*
X210955000Y-90955000D02*
X206715000Y-90955000D01*
X206065000Y-92075000D02*
X206715000Y-92075000D01*
X211605000Y-92075000D02*
X210955000Y-92075000D01*
X207435000Y-90955000D02*
X207435000Y-93195000D01*
X207555000Y-90955000D02*
X207555000Y-93195000D01*
X207315000Y-90955000D02*
X207315000Y-93195000D01*
X187427500Y-90955000D02*
X187427500Y-93195000D01*
X187427500Y-93195000D02*
X191667500Y-93195000D01*
X191667500Y-93195000D02*
X191667500Y-90955000D01*
X191667500Y-90955000D02*
X187427500Y-90955000D01*
X186777500Y-92075000D02*
X187427500Y-92075000D01*
X192317500Y-92075000D02*
X191667500Y-92075000D01*
X188147500Y-90955000D02*
X188147500Y-93195000D01*
X188267500Y-90955000D02*
X188267500Y-93195000D01*
X188027500Y-90955000D02*
X188027500Y-93195000D01*
X168140000Y-90955000D02*
X168140000Y-93195000D01*
X168140000Y-93195000D02*
X172380000Y-93195000D01*
X172380000Y-93195000D02*
X172380000Y-90955000D01*
X172380000Y-90955000D02*
X168140000Y-90955000D01*
X167490000Y-92075000D02*
X168140000Y-92075000D01*
X173030000Y-92075000D02*
X172380000Y-92075000D01*
X168860000Y-90955000D02*
X168860000Y-93195000D01*
X168980000Y-90955000D02*
X168980000Y-93195000D01*
X168740000Y-90955000D02*
X168740000Y-93195000D01*
X149565000Y-90955000D02*
X149565000Y-93195000D01*
X149565000Y-93195000D02*
X153805000Y-93195000D01*
X153805000Y-93195000D02*
X153805000Y-90955000D01*
X153805000Y-90955000D02*
X149565000Y-90955000D01*
X148915000Y-92075000D02*
X149565000Y-92075000D01*
X154455000Y-92075000D02*
X153805000Y-92075000D01*
X150285000Y-90955000D02*
X150285000Y-93195000D01*
X150405000Y-90955000D02*
X150405000Y-93195000D01*
X150165000Y-90955000D02*
X150165000Y-93195000D01*
X130040000Y-90955000D02*
X130040000Y-93195000D01*
X130040000Y-93195000D02*
X134280000Y-93195000D01*
X134280000Y-93195000D02*
X134280000Y-90955000D01*
X134280000Y-90955000D02*
X130040000Y-90955000D01*
X129390000Y-92075000D02*
X130040000Y-92075000D01*
X134930000Y-92075000D02*
X134280000Y-92075000D01*
X130760000Y-90955000D02*
X130760000Y-93195000D01*
X130880000Y-90955000D02*
X130880000Y-93195000D01*
X130640000Y-90955000D02*
X130640000Y-93195000D01*
X111227500Y-90955000D02*
X111227500Y-93195000D01*
X111227500Y-93195000D02*
X115467500Y-93195000D01*
X115467500Y-93195000D02*
X115467500Y-90955000D01*
X115467500Y-90955000D02*
X111227500Y-90955000D01*
X110577500Y-92075000D02*
X111227500Y-92075000D01*
X116117500Y-92075000D02*
X115467500Y-92075000D01*
X111947500Y-90955000D02*
X111947500Y-93195000D01*
X112067500Y-90955000D02*
X112067500Y-93195000D01*
X111827500Y-90955000D02*
X111827500Y-93195000D01*
X92415000Y-90955000D02*
X92415000Y-93195000D01*
X92415000Y-93195000D02*
X96655000Y-93195000D01*
X96655000Y-93195000D02*
X96655000Y-90955000D01*
X96655000Y-90955000D02*
X92415000Y-90955000D01*
X91765000Y-92075000D02*
X92415000Y-92075000D01*
X97305000Y-92075000D02*
X96655000Y-92075000D01*
X93135000Y-90955000D02*
X93135000Y-93195000D01*
X93255000Y-90955000D02*
X93255000Y-93195000D01*
X93015000Y-90955000D02*
X93015000Y-93195000D01*
X73127500Y-90955000D02*
X73127500Y-93195000D01*
X73127500Y-93195000D02*
X77367500Y-93195000D01*
X77367500Y-93195000D02*
X77367500Y-90955000D01*
X77367500Y-90955000D02*
X73127500Y-90955000D01*
X72477500Y-92075000D02*
X73127500Y-92075000D01*
X78017500Y-92075000D02*
X77367500Y-92075000D01*
X73847500Y-90955000D02*
X73847500Y-93195000D01*
X73967500Y-90955000D02*
X73967500Y-93195000D01*
X73727500Y-90955000D02*
X73727500Y-93195000D01*
X54315000Y-90955000D02*
X54315000Y-93195000D01*
X54315000Y-93195000D02*
X58555000Y-93195000D01*
X58555000Y-93195000D02*
X58555000Y-90955000D01*
X58555000Y-90955000D02*
X54315000Y-90955000D01*
X53665000Y-92075000D02*
X54315000Y-92075000D01*
X59205000Y-92075000D02*
X58555000Y-92075000D01*
X55035000Y-90955000D02*
X55035000Y-93195000D01*
X55155000Y-90955000D02*
X55155000Y-93195000D01*
X54915000Y-90955000D02*
X54915000Y-93195000D01*
X35265000Y-90955000D02*
X35265000Y-93195000D01*
X35265000Y-93195000D02*
X39505000Y-93195000D01*
X39505000Y-93195000D02*
X39505000Y-90955000D01*
X39505000Y-90955000D02*
X35265000Y-90955000D01*
X34615000Y-92075000D02*
X35265000Y-92075000D01*
X40155000Y-92075000D02*
X39505000Y-92075000D01*
X35985000Y-90955000D02*
X35985000Y-93195000D01*
X36105000Y-90955000D02*
X36105000Y-93195000D01*
X35865000Y-90955000D02*
X35865000Y-93195000D01*
X244815000Y-71905000D02*
X244815000Y-74145000D01*
X244815000Y-74145000D02*
X249055000Y-74145000D01*
X249055000Y-74145000D02*
X249055000Y-71905000D01*
X249055000Y-71905000D02*
X244815000Y-71905000D01*
X244165000Y-73025000D02*
X244815000Y-73025000D01*
X249705000Y-73025000D02*
X249055000Y-73025000D01*
X245535000Y-71905000D02*
X245535000Y-74145000D01*
X245655000Y-71905000D02*
X245655000Y-74145000D01*
X245415000Y-71905000D02*
X245415000Y-74145000D01*
X225527500Y-71905000D02*
X225527500Y-74145000D01*
X225527500Y-74145000D02*
X229767500Y-74145000D01*
X229767500Y-74145000D02*
X229767500Y-71905000D01*
X229767500Y-71905000D02*
X225527500Y-71905000D01*
X224877500Y-73025000D02*
X225527500Y-73025000D01*
X230417500Y-73025000D02*
X229767500Y-73025000D01*
X226247500Y-71905000D02*
X226247500Y-74145000D01*
X226367500Y-71905000D02*
X226367500Y-74145000D01*
X226127500Y-71905000D02*
X226127500Y-74145000D01*
X206715000Y-71905000D02*
X206715000Y-74145000D01*
X206715000Y-74145000D02*
X210955000Y-74145000D01*
X210955000Y-74145000D02*
X210955000Y-71905000D01*
X210955000Y-71905000D02*
X206715000Y-71905000D01*
X206065000Y-73025000D02*
X206715000Y-73025000D01*
X211605000Y-73025000D02*
X210955000Y-73025000D01*
X207435000Y-71905000D02*
X207435000Y-74145000D01*
X207555000Y-71905000D02*
X207555000Y-74145000D01*
X207315000Y-71905000D02*
X207315000Y-74145000D01*
X187665000Y-71905000D02*
X187665000Y-74145000D01*
X187665000Y-74145000D02*
X191905000Y-74145000D01*
X191905000Y-74145000D02*
X191905000Y-71905000D01*
X191905000Y-71905000D02*
X187665000Y-71905000D01*
X187015000Y-73025000D02*
X187665000Y-73025000D01*
X192555000Y-73025000D02*
X191905000Y-73025000D01*
X188385000Y-71905000D02*
X188385000Y-74145000D01*
X188505000Y-71905000D02*
X188505000Y-74145000D01*
X188265000Y-71905000D02*
X188265000Y-74145000D01*
X168615000Y-71905000D02*
X168615000Y-74145000D01*
X168615000Y-74145000D02*
X172855000Y-74145000D01*
X172855000Y-74145000D02*
X172855000Y-71905000D01*
X172855000Y-71905000D02*
X168615000Y-71905000D01*
X167965000Y-73025000D02*
X168615000Y-73025000D01*
X173505000Y-73025000D02*
X172855000Y-73025000D01*
X169335000Y-71905000D02*
X169335000Y-74145000D01*
X169455000Y-71905000D02*
X169455000Y-74145000D01*
X169215000Y-71905000D02*
X169215000Y-74145000D01*
X149565000Y-71905000D02*
X149565000Y-74145000D01*
X149565000Y-74145000D02*
X153805000Y-74145000D01*
X153805000Y-74145000D02*
X153805000Y-71905000D01*
X153805000Y-71905000D02*
X149565000Y-71905000D01*
X148915000Y-73025000D02*
X149565000Y-73025000D01*
X154455000Y-73025000D02*
X153805000Y-73025000D01*
X150285000Y-71905000D02*
X150285000Y-74145000D01*
X150405000Y-71905000D02*
X150405000Y-74145000D01*
X150165000Y-71905000D02*
X150165000Y-74145000D01*
X130277500Y-71905000D02*
X130277500Y-74145000D01*
X130277500Y-74145000D02*
X134517500Y-74145000D01*
X134517500Y-74145000D02*
X134517500Y-71905000D01*
X134517500Y-71905000D02*
X130277500Y-71905000D01*
X129627500Y-73025000D02*
X130277500Y-73025000D01*
X135167500Y-73025000D02*
X134517500Y-73025000D01*
X130997500Y-71905000D02*
X130997500Y-74145000D01*
X131117500Y-71905000D02*
X131117500Y-74145000D01*
X130877500Y-71905000D02*
X130877500Y-74145000D01*
X111465000Y-71905000D02*
X111465000Y-74145000D01*
X111465000Y-74145000D02*
X115705000Y-74145000D01*
X115705000Y-74145000D02*
X115705000Y-71905000D01*
X115705000Y-71905000D02*
X111465000Y-71905000D01*
X110815000Y-73025000D02*
X111465000Y-73025000D01*
X116355000Y-73025000D02*
X115705000Y-73025000D01*
X112185000Y-71905000D02*
X112185000Y-74145000D01*
X112305000Y-71905000D02*
X112305000Y-74145000D01*
X112065000Y-71905000D02*
X112065000Y-74145000D01*
X92177500Y-71905000D02*
X92177500Y-74145000D01*
X92177500Y-74145000D02*
X96417500Y-74145000D01*
X96417500Y-74145000D02*
X96417500Y-71905000D01*
X96417500Y-71905000D02*
X92177500Y-71905000D01*
X91527500Y-73025000D02*
X92177500Y-73025000D01*
X97067500Y-73025000D02*
X96417500Y-73025000D01*
X92897500Y-71905000D02*
X92897500Y-74145000D01*
X93017500Y-71905000D02*
X93017500Y-74145000D01*
X92777500Y-71905000D02*
X92777500Y-74145000D01*
X73127500Y-71905000D02*
X73127500Y-74145000D01*
X73127500Y-74145000D02*
X77367500Y-74145000D01*
X77367500Y-74145000D02*
X77367500Y-71905000D01*
X77367500Y-71905000D02*
X73127500Y-71905000D01*
X72477500Y-73025000D02*
X73127500Y-73025000D01*
X78017500Y-73025000D02*
X77367500Y-73025000D01*
X73847500Y-71905000D02*
X73847500Y-74145000D01*
X73967500Y-71905000D02*
X73967500Y-74145000D01*
X73727500Y-71905000D02*
X73727500Y-74145000D01*
X54077500Y-71905000D02*
X54077500Y-74145000D01*
X54077500Y-74145000D02*
X58317500Y-74145000D01*
X58317500Y-74145000D02*
X58317500Y-71905000D01*
X58317500Y-71905000D02*
X54077500Y-71905000D01*
X53427500Y-73025000D02*
X54077500Y-73025000D01*
X58967500Y-73025000D02*
X58317500Y-73025000D01*
X54797500Y-71905000D02*
X54797500Y-74145000D01*
X54917500Y-71905000D02*
X54917500Y-74145000D01*
X54677500Y-71905000D02*
X54677500Y-74145000D01*
X35345000Y-71905000D02*
X35345000Y-74145000D01*
X35345000Y-74145000D02*
X39585000Y-74145000D01*
X39585000Y-74145000D02*
X39585000Y-71905000D01*
X39585000Y-71905000D02*
X35345000Y-71905000D01*
X34695000Y-73025000D02*
X35345000Y-73025000D01*
X40235000Y-73025000D02*
X39585000Y-73025000D01*
X36065000Y-71905000D02*
X36065000Y-74145000D01*
X36185000Y-71905000D02*
X36185000Y-74145000D01*
X35945000Y-71905000D02*
X35945000Y-74145000D01*
X244577500Y-52855000D02*
X244577500Y-55095000D01*
X244577500Y-55095000D02*
X248817500Y-55095000D01*
X248817500Y-55095000D02*
X248817500Y-52855000D01*
X248817500Y-52855000D02*
X244577500Y-52855000D01*
X243927500Y-53975000D02*
X244577500Y-53975000D01*
X249467500Y-53975000D02*
X248817500Y-53975000D01*
X245297500Y-52855000D02*
X245297500Y-55095000D01*
X245417500Y-52855000D02*
X245417500Y-55095000D01*
X245177500Y-52855000D02*
X245177500Y-55095000D01*
X225845000Y-52855000D02*
X225845000Y-55095000D01*
X225845000Y-55095000D02*
X230085000Y-55095000D01*
X230085000Y-55095000D02*
X230085000Y-52855000D01*
X230085000Y-52855000D02*
X225845000Y-52855000D01*
X225195000Y-53975000D02*
X225845000Y-53975000D01*
X230735000Y-53975000D02*
X230085000Y-53975000D01*
X226565000Y-52855000D02*
X226565000Y-55095000D01*
X226685000Y-52855000D02*
X226685000Y-55095000D01*
X226445000Y-52855000D02*
X226445000Y-55095000D01*
X206477500Y-52855000D02*
X206477500Y-55095000D01*
X206477500Y-55095000D02*
X210717500Y-55095000D01*
X210717500Y-55095000D02*
X210717500Y-52855000D01*
X210717500Y-52855000D02*
X206477500Y-52855000D01*
X205827500Y-53975000D02*
X206477500Y-53975000D01*
X211367500Y-53975000D02*
X210717500Y-53975000D01*
X207197500Y-52855000D02*
X207197500Y-55095000D01*
X207317500Y-52855000D02*
X207317500Y-55095000D01*
X207077500Y-52855000D02*
X207077500Y-55095000D01*
D10*
X188809404Y-52307380D02*
X188809404Y-51307380D01*
X189047500Y-51307380D01*
X189190357Y-51355000D01*
X189285595Y-51450238D01*
X189333214Y-51545476D01*
X189380833Y-51735952D01*
X189380833Y-51878809D01*
X189333214Y-52069285D01*
X189285595Y-52164523D01*
X189190357Y-52259761D01*
X189047500Y-52307380D01*
X188809404Y-52307380D01*
X189857023Y-52307380D02*
X190047500Y-52307380D01*
X190142738Y-52259761D01*
X190190357Y-52212142D01*
X190285595Y-52069285D01*
X190333214Y-51878809D01*
X190333214Y-51497857D01*
X190285595Y-51402619D01*
X190237976Y-51355000D01*
X190142738Y-51307380D01*
X189952261Y-51307380D01*
X189857023Y-51355000D01*
X189809404Y-51402619D01*
X189761785Y-51497857D01*
X189761785Y-51735952D01*
X189809404Y-51831190D01*
X189857023Y-51878809D01*
X189952261Y-51926428D01*
X190142738Y-51926428D01*
X190237976Y-51878809D01*
X190285595Y-51831190D01*
X190333214Y-51735952D01*
X185475595Y-52627380D02*
X185475595Y-51627380D01*
X186047023Y-52627380D02*
X185618452Y-52055952D01*
X186047023Y-51627380D02*
X185475595Y-52198809D01*
X169759404Y-52307380D02*
X169759404Y-51307380D01*
X169997500Y-51307380D01*
X170140357Y-51355000D01*
X170235595Y-51450238D01*
X170283214Y-51545476D01*
X170330833Y-51735952D01*
X170330833Y-51878809D01*
X170283214Y-52069285D01*
X170235595Y-52164523D01*
X170140357Y-52259761D01*
X169997500Y-52307380D01*
X169759404Y-52307380D01*
X170902261Y-51735952D02*
X170807023Y-51688333D01*
X170759404Y-51640714D01*
X170711785Y-51545476D01*
X170711785Y-51497857D01*
X170759404Y-51402619D01*
X170807023Y-51355000D01*
X170902261Y-51307380D01*
X171092738Y-51307380D01*
X171187976Y-51355000D01*
X171235595Y-51402619D01*
X171283214Y-51497857D01*
X171283214Y-51545476D01*
X171235595Y-51640714D01*
X171187976Y-51688333D01*
X171092738Y-51735952D01*
X170902261Y-51735952D01*
X170807023Y-51783571D01*
X170759404Y-51831190D01*
X170711785Y-51926428D01*
X170711785Y-52116904D01*
X170759404Y-52212142D01*
X170807023Y-52259761D01*
X170902261Y-52307380D01*
X171092738Y-52307380D01*
X171187976Y-52259761D01*
X171235595Y-52212142D01*
X171283214Y-52116904D01*
X171283214Y-51926428D01*
X171235595Y-51831190D01*
X171187976Y-51783571D01*
X171092738Y-51735952D01*
X166425595Y-52627380D02*
X166425595Y-51627380D01*
X166997023Y-52627380D02*
X166568452Y-52055952D01*
X166997023Y-51627380D02*
X166425595Y-52198809D01*
X150709404Y-52307380D02*
X150709404Y-51307380D01*
X150947500Y-51307380D01*
X151090357Y-51355000D01*
X151185595Y-51450238D01*
X151233214Y-51545476D01*
X151280833Y-51735952D01*
X151280833Y-51878809D01*
X151233214Y-52069285D01*
X151185595Y-52164523D01*
X151090357Y-52259761D01*
X150947500Y-52307380D01*
X150709404Y-52307380D01*
X151614166Y-51307380D02*
X152280833Y-51307380D01*
X151852261Y-52307380D01*
X147375595Y-52627380D02*
X147375595Y-51627380D01*
X147947023Y-52627380D02*
X147518452Y-52055952D01*
X147947023Y-51627380D02*
X147375595Y-52198809D01*
X131896904Y-52307380D02*
X131896904Y-51307380D01*
X132135000Y-51307380D01*
X132277857Y-51355000D01*
X132373095Y-51450238D01*
X132420714Y-51545476D01*
X132468333Y-51735952D01*
X132468333Y-51878809D01*
X132420714Y-52069285D01*
X132373095Y-52164523D01*
X132277857Y-52259761D01*
X132135000Y-52307380D01*
X131896904Y-52307380D01*
X133325476Y-51307380D02*
X133135000Y-51307380D01*
X133039761Y-51355000D01*
X132992142Y-51402619D01*
X132896904Y-51545476D01*
X132849285Y-51735952D01*
X132849285Y-52116904D01*
X132896904Y-52212142D01*
X132944523Y-52259761D01*
X133039761Y-52307380D01*
X133230238Y-52307380D01*
X133325476Y-52259761D01*
X133373095Y-52212142D01*
X133420714Y-52116904D01*
X133420714Y-51878809D01*
X133373095Y-51783571D01*
X133325476Y-51735952D01*
X133230238Y-51688333D01*
X133039761Y-51688333D01*
X132944523Y-51735952D01*
X132896904Y-51783571D01*
X132849285Y-51878809D01*
X128563095Y-52627380D02*
X128563095Y-51627380D01*
X129134523Y-52627380D02*
X128705952Y-52055952D01*
X129134523Y-51627380D02*
X128563095Y-52198809D01*
X112846904Y-52307380D02*
X112846904Y-51307380D01*
X113085000Y-51307380D01*
X113227857Y-51355000D01*
X113323095Y-51450238D01*
X113370714Y-51545476D01*
X113418333Y-51735952D01*
X113418333Y-51878809D01*
X113370714Y-52069285D01*
X113323095Y-52164523D01*
X113227857Y-52259761D01*
X113085000Y-52307380D01*
X112846904Y-52307380D01*
X114323095Y-51307380D02*
X113846904Y-51307380D01*
X113799285Y-51783571D01*
X113846904Y-51735952D01*
X113942142Y-51688333D01*
X114180238Y-51688333D01*
X114275476Y-51735952D01*
X114323095Y-51783571D01*
X114370714Y-51878809D01*
X114370714Y-52116904D01*
X114323095Y-52212142D01*
X114275476Y-52259761D01*
X114180238Y-52307380D01*
X113942142Y-52307380D01*
X113846904Y-52259761D01*
X113799285Y-52212142D01*
X109513095Y-52627380D02*
X109513095Y-51627380D01*
X110084523Y-52627380D02*
X109655952Y-52055952D01*
X110084523Y-51627380D02*
X109513095Y-52198809D01*
X93796904Y-52307380D02*
X93796904Y-51307380D01*
X94035000Y-51307380D01*
X94177857Y-51355000D01*
X94273095Y-51450238D01*
X94320714Y-51545476D01*
X94368333Y-51735952D01*
X94368333Y-51878809D01*
X94320714Y-52069285D01*
X94273095Y-52164523D01*
X94177857Y-52259761D01*
X94035000Y-52307380D01*
X93796904Y-52307380D01*
X95225476Y-51640714D02*
X95225476Y-52307380D01*
X94987380Y-51259761D02*
X94749285Y-51974047D01*
X95368333Y-51974047D01*
X90463095Y-52627380D02*
X90463095Y-51627380D01*
X91034523Y-52627380D02*
X90605952Y-52055952D01*
X91034523Y-51627380D02*
X90463095Y-52198809D01*
X74509404Y-52307380D02*
X74509404Y-51307380D01*
X74747500Y-51307380D01*
X74890357Y-51355000D01*
X74985595Y-51450238D01*
X75033214Y-51545476D01*
X75080833Y-51735952D01*
X75080833Y-51878809D01*
X75033214Y-52069285D01*
X74985595Y-52164523D01*
X74890357Y-52259761D01*
X74747500Y-52307380D01*
X74509404Y-52307380D01*
X75414166Y-51307380D02*
X76033214Y-51307380D01*
X75699880Y-51688333D01*
X75842738Y-51688333D01*
X75937976Y-51735952D01*
X75985595Y-51783571D01*
X76033214Y-51878809D01*
X76033214Y-52116904D01*
X75985595Y-52212142D01*
X75937976Y-52259761D01*
X75842738Y-52307380D01*
X75557023Y-52307380D01*
X75461785Y-52259761D01*
X75414166Y-52212142D01*
X71175595Y-52627380D02*
X71175595Y-51627380D01*
X71747023Y-52627380D02*
X71318452Y-52055952D01*
X71747023Y-51627380D02*
X71175595Y-52198809D01*
X55296904Y-52307380D02*
X55296904Y-51307380D01*
X55535000Y-51307380D01*
X55677857Y-51355000D01*
X55773095Y-51450238D01*
X55820714Y-51545476D01*
X55868333Y-51735952D01*
X55868333Y-51878809D01*
X55820714Y-52069285D01*
X55773095Y-52164523D01*
X55677857Y-52259761D01*
X55535000Y-52307380D01*
X55296904Y-52307380D01*
X56249285Y-51402619D02*
X56296904Y-51355000D01*
X56392142Y-51307380D01*
X56630238Y-51307380D01*
X56725476Y-51355000D01*
X56773095Y-51402619D01*
X56820714Y-51497857D01*
X56820714Y-51593095D01*
X56773095Y-51735952D01*
X56201666Y-52307380D01*
X56820714Y-52307380D01*
X51963095Y-52627380D02*
X51963095Y-51627380D01*
X52534523Y-52627380D02*
X52105952Y-52055952D01*
X52534523Y-51627380D02*
X51963095Y-52198809D01*
X36409404Y-52307380D02*
X36409404Y-51307380D01*
X36647500Y-51307380D01*
X36790357Y-51355000D01*
X36885595Y-51450238D01*
X36933214Y-51545476D01*
X36980833Y-51735952D01*
X36980833Y-51878809D01*
X36933214Y-52069285D01*
X36885595Y-52164523D01*
X36790357Y-52259761D01*
X36647500Y-52307380D01*
X36409404Y-52307380D01*
X37933214Y-52307380D02*
X37361785Y-52307380D01*
X37647500Y-52307380D02*
X37647500Y-51307380D01*
X37552261Y-51450238D01*
X37457023Y-51545476D01*
X37361785Y-51593095D01*
X33075595Y-52627380D02*
X33075595Y-51627380D01*
X33647023Y-52627380D02*
X33218452Y-52055952D01*
X33647023Y-51627380D02*
X33075595Y-52198809D01*
X245507023Y-109457380D02*
X244935595Y-109457380D01*
X245221309Y-109457380D02*
X245221309Y-108457380D01*
X245126071Y-108600238D01*
X245030833Y-108695476D01*
X244935595Y-108743095D01*
X245935595Y-109457380D02*
X245935595Y-108457380D01*
X246507023Y-109457380D01*
X246507023Y-108457380D01*
X247411785Y-108790714D02*
X247411785Y-109457380D01*
X247173690Y-108409761D02*
X246935595Y-109124047D01*
X247554642Y-109124047D01*
X248126071Y-108457380D02*
X248221309Y-108457380D01*
X248316547Y-108505000D01*
X248364166Y-108552619D01*
X248411785Y-108647857D01*
X248459404Y-108838333D01*
X248459404Y-109076428D01*
X248411785Y-109266904D01*
X248364166Y-109362142D01*
X248316547Y-109409761D01*
X248221309Y-109457380D01*
X248126071Y-109457380D01*
X248030833Y-109409761D01*
X247983214Y-109362142D01*
X247935595Y-109266904D01*
X247887976Y-109076428D01*
X247887976Y-108838333D01*
X247935595Y-108647857D01*
X247983214Y-108552619D01*
X248030833Y-108505000D01*
X248126071Y-108457380D01*
X242625595Y-109777380D02*
X242625595Y-108777380D01*
X243197023Y-109777380D02*
X242768452Y-109205952D01*
X243197023Y-108777380D02*
X242625595Y-109348809D01*
X226457023Y-109457380D02*
X225885595Y-109457380D01*
X226171309Y-109457380D02*
X226171309Y-108457380D01*
X226076071Y-108600238D01*
X225980833Y-108695476D01*
X225885595Y-108743095D01*
X226885595Y-109457380D02*
X226885595Y-108457380D01*
X227457023Y-109457380D01*
X227457023Y-108457380D01*
X227837976Y-108457380D02*
X228457023Y-108457380D01*
X228123690Y-108838333D01*
X228266547Y-108838333D01*
X228361785Y-108885952D01*
X228409404Y-108933571D01*
X228457023Y-109028809D01*
X228457023Y-109266904D01*
X228409404Y-109362142D01*
X228361785Y-109409761D01*
X228266547Y-109457380D01*
X227980833Y-109457380D01*
X227885595Y-109409761D01*
X227837976Y-109362142D01*
X228933214Y-109457380D02*
X229123690Y-109457380D01*
X229218928Y-109409761D01*
X229266547Y-109362142D01*
X229361785Y-109219285D01*
X229409404Y-109028809D01*
X229409404Y-108647857D01*
X229361785Y-108552619D01*
X229314166Y-108505000D01*
X229218928Y-108457380D01*
X229028452Y-108457380D01*
X228933214Y-108505000D01*
X228885595Y-108552619D01*
X228837976Y-108647857D01*
X228837976Y-108885952D01*
X228885595Y-108981190D01*
X228933214Y-109028809D01*
X229028452Y-109076428D01*
X229218928Y-109076428D01*
X229314166Y-109028809D01*
X229361785Y-108981190D01*
X229409404Y-108885952D01*
X223575595Y-109777380D02*
X223575595Y-108777380D01*
X224147023Y-109777380D02*
X223718452Y-109205952D01*
X224147023Y-108777380D02*
X223575595Y-109348809D01*
X207169523Y-109457380D02*
X206598095Y-109457380D01*
X206883809Y-109457380D02*
X206883809Y-108457380D01*
X206788571Y-108600238D01*
X206693333Y-108695476D01*
X206598095Y-108743095D01*
X207598095Y-109457380D02*
X207598095Y-108457380D01*
X208169523Y-109457380D01*
X208169523Y-108457380D01*
X208550476Y-108457380D02*
X209169523Y-108457380D01*
X208836190Y-108838333D01*
X208979047Y-108838333D01*
X209074285Y-108885952D01*
X209121904Y-108933571D01*
X209169523Y-109028809D01*
X209169523Y-109266904D01*
X209121904Y-109362142D01*
X209074285Y-109409761D01*
X208979047Y-109457380D01*
X208693333Y-109457380D01*
X208598095Y-109409761D01*
X208550476Y-109362142D01*
X209740952Y-108885952D02*
X209645714Y-108838333D01*
X209598095Y-108790714D01*
X209550476Y-108695476D01*
X209550476Y-108647857D01*
X209598095Y-108552619D01*
X209645714Y-108505000D01*
X209740952Y-108457380D01*
X209931428Y-108457380D01*
X210026666Y-108505000D01*
X210074285Y-108552619D01*
X210121904Y-108647857D01*
X210121904Y-108695476D01*
X210074285Y-108790714D01*
X210026666Y-108838333D01*
X209931428Y-108885952D01*
X209740952Y-108885952D01*
X209645714Y-108933571D01*
X209598095Y-108981190D01*
X209550476Y-109076428D01*
X209550476Y-109266904D01*
X209598095Y-109362142D01*
X209645714Y-109409761D01*
X209740952Y-109457380D01*
X209931428Y-109457380D01*
X210026666Y-109409761D01*
X210074285Y-109362142D01*
X210121904Y-109266904D01*
X210121904Y-109076428D01*
X210074285Y-108981190D01*
X210026666Y-108933571D01*
X209931428Y-108885952D01*
X204288095Y-109777380D02*
X204288095Y-108777380D01*
X204859523Y-109777380D02*
X204430952Y-109205952D01*
X204859523Y-108777380D02*
X204288095Y-109348809D01*
X188119523Y-109457380D02*
X187548095Y-109457380D01*
X187833809Y-109457380D02*
X187833809Y-108457380D01*
X187738571Y-108600238D01*
X187643333Y-108695476D01*
X187548095Y-108743095D01*
X188548095Y-109457380D02*
X188548095Y-108457380D01*
X189119523Y-109457380D01*
X189119523Y-108457380D01*
X189500476Y-108457380D02*
X190119523Y-108457380D01*
X189786190Y-108838333D01*
X189929047Y-108838333D01*
X190024285Y-108885952D01*
X190071904Y-108933571D01*
X190119523Y-109028809D01*
X190119523Y-109266904D01*
X190071904Y-109362142D01*
X190024285Y-109409761D01*
X189929047Y-109457380D01*
X189643333Y-109457380D01*
X189548095Y-109409761D01*
X189500476Y-109362142D01*
X190452857Y-108457380D02*
X191119523Y-108457380D01*
X190690952Y-109457380D01*
X185238095Y-109777380D02*
X185238095Y-108777380D01*
X185809523Y-109777380D02*
X185380952Y-109205952D01*
X185809523Y-108777380D02*
X185238095Y-109348809D01*
X169069523Y-109457380D02*
X168498095Y-109457380D01*
X168783809Y-109457380D02*
X168783809Y-108457380D01*
X168688571Y-108600238D01*
X168593333Y-108695476D01*
X168498095Y-108743095D01*
X169498095Y-109457380D02*
X169498095Y-108457380D01*
X170069523Y-109457380D01*
X170069523Y-108457380D01*
X170450476Y-108457380D02*
X171069523Y-108457380D01*
X170736190Y-108838333D01*
X170879047Y-108838333D01*
X170974285Y-108885952D01*
X171021904Y-108933571D01*
X171069523Y-109028809D01*
X171069523Y-109266904D01*
X171021904Y-109362142D01*
X170974285Y-109409761D01*
X170879047Y-109457380D01*
X170593333Y-109457380D01*
X170498095Y-109409761D01*
X170450476Y-109362142D01*
X171926666Y-108457380D02*
X171736190Y-108457380D01*
X171640952Y-108505000D01*
X171593333Y-108552619D01*
X171498095Y-108695476D01*
X171450476Y-108885952D01*
X171450476Y-109266904D01*
X171498095Y-109362142D01*
X171545714Y-109409761D01*
X171640952Y-109457380D01*
X171831428Y-109457380D01*
X171926666Y-109409761D01*
X171974285Y-109362142D01*
X172021904Y-109266904D01*
X172021904Y-109028809D01*
X171974285Y-108933571D01*
X171926666Y-108885952D01*
X171831428Y-108838333D01*
X171640952Y-108838333D01*
X171545714Y-108885952D01*
X171498095Y-108933571D01*
X171450476Y-109028809D01*
X166188095Y-109777380D02*
X166188095Y-108777380D01*
X166759523Y-109777380D02*
X166330952Y-109205952D01*
X166759523Y-108777380D02*
X166188095Y-109348809D01*
X140494523Y-109457380D02*
X139923095Y-109457380D01*
X140208809Y-109457380D02*
X140208809Y-108457380D01*
X140113571Y-108600238D01*
X140018333Y-108695476D01*
X139923095Y-108743095D01*
X140923095Y-109457380D02*
X140923095Y-108457380D01*
X141494523Y-109457380D01*
X141494523Y-108457380D01*
X141875476Y-108457380D02*
X142494523Y-108457380D01*
X142161190Y-108838333D01*
X142304047Y-108838333D01*
X142399285Y-108885952D01*
X142446904Y-108933571D01*
X142494523Y-109028809D01*
X142494523Y-109266904D01*
X142446904Y-109362142D01*
X142399285Y-109409761D01*
X142304047Y-109457380D01*
X142018333Y-109457380D01*
X141923095Y-109409761D01*
X141875476Y-109362142D01*
X143399285Y-108457380D02*
X142923095Y-108457380D01*
X142875476Y-108933571D01*
X142923095Y-108885952D01*
X143018333Y-108838333D01*
X143256428Y-108838333D01*
X143351666Y-108885952D01*
X143399285Y-108933571D01*
X143446904Y-109028809D01*
X143446904Y-109266904D01*
X143399285Y-109362142D01*
X143351666Y-109409761D01*
X143256428Y-109457380D01*
X143018333Y-109457380D01*
X142923095Y-109409761D01*
X142875476Y-109362142D01*
X137613095Y-109777380D02*
X137613095Y-108777380D01*
X138184523Y-109777380D02*
X137755952Y-109205952D01*
X138184523Y-108777380D02*
X137613095Y-109348809D01*
X112394523Y-109457380D02*
X111823095Y-109457380D01*
X112108809Y-109457380D02*
X112108809Y-108457380D01*
X112013571Y-108600238D01*
X111918333Y-108695476D01*
X111823095Y-108743095D01*
X112823095Y-109457380D02*
X112823095Y-108457380D01*
X113394523Y-109457380D01*
X113394523Y-108457380D01*
X113775476Y-108457380D02*
X114394523Y-108457380D01*
X114061190Y-108838333D01*
X114204047Y-108838333D01*
X114299285Y-108885952D01*
X114346904Y-108933571D01*
X114394523Y-109028809D01*
X114394523Y-109266904D01*
X114346904Y-109362142D01*
X114299285Y-109409761D01*
X114204047Y-109457380D01*
X113918333Y-109457380D01*
X113823095Y-109409761D01*
X113775476Y-109362142D01*
X115251666Y-108790714D02*
X115251666Y-109457380D01*
X115013571Y-108409761D02*
X114775476Y-109124047D01*
X115394523Y-109124047D01*
X109513095Y-109777380D02*
X109513095Y-108777380D01*
X110084523Y-109777380D02*
X109655952Y-109205952D01*
X110084523Y-108777380D02*
X109513095Y-109348809D01*
X93663273Y-109457380D02*
X93091845Y-109457380D01*
X93377559Y-109457380D02*
X93377559Y-108457380D01*
X93282321Y-108600238D01*
X93187083Y-108695476D01*
X93091845Y-108743095D01*
X94091845Y-109457380D02*
X94091845Y-108457380D01*
X94663273Y-109457380D01*
X94663273Y-108457380D01*
X95044226Y-108457380D02*
X95663273Y-108457380D01*
X95329940Y-108838333D01*
X95472797Y-108838333D01*
X95568035Y-108885952D01*
X95615654Y-108933571D01*
X95663273Y-109028809D01*
X95663273Y-109266904D01*
X95615654Y-109362142D01*
X95568035Y-109409761D01*
X95472797Y-109457380D01*
X95187083Y-109457380D01*
X95091845Y-109409761D01*
X95044226Y-109362142D01*
X95996607Y-108457380D02*
X96615654Y-108457380D01*
X96282321Y-108838333D01*
X96425178Y-108838333D01*
X96520416Y-108885952D01*
X96568035Y-108933571D01*
X96615654Y-109028809D01*
X96615654Y-109266904D01*
X96568035Y-109362142D01*
X96520416Y-109409761D01*
X96425178Y-109457380D01*
X96139464Y-109457380D01*
X96044226Y-109409761D01*
X95996607Y-109362142D01*
X90781845Y-109777380D02*
X90781845Y-108777380D01*
X91353273Y-109777380D02*
X90924702Y-109205952D01*
X91353273Y-108777380D02*
X90781845Y-109348809D01*
X74294523Y-109457380D02*
X73723095Y-109457380D01*
X74008809Y-109457380D02*
X74008809Y-108457380D01*
X73913571Y-108600238D01*
X73818333Y-108695476D01*
X73723095Y-108743095D01*
X74723095Y-109457380D02*
X74723095Y-108457380D01*
X75294523Y-109457380D01*
X75294523Y-108457380D01*
X75675476Y-108457380D02*
X76294523Y-108457380D01*
X75961190Y-108838333D01*
X76104047Y-108838333D01*
X76199285Y-108885952D01*
X76246904Y-108933571D01*
X76294523Y-109028809D01*
X76294523Y-109266904D01*
X76246904Y-109362142D01*
X76199285Y-109409761D01*
X76104047Y-109457380D01*
X75818333Y-109457380D01*
X75723095Y-109409761D01*
X75675476Y-109362142D01*
X76675476Y-108552619D02*
X76723095Y-108505000D01*
X76818333Y-108457380D01*
X77056428Y-108457380D01*
X77151666Y-108505000D01*
X77199285Y-108552619D01*
X77246904Y-108647857D01*
X77246904Y-108743095D01*
X77199285Y-108885952D01*
X76627857Y-109457380D01*
X77246904Y-109457380D01*
X71413095Y-109777380D02*
X71413095Y-108777380D01*
X71984523Y-109777380D02*
X71555952Y-109205952D01*
X71984523Y-108777380D02*
X71413095Y-109348809D01*
X55244523Y-109457380D02*
X54673095Y-109457380D01*
X54958809Y-109457380D02*
X54958809Y-108457380D01*
X54863571Y-108600238D01*
X54768333Y-108695476D01*
X54673095Y-108743095D01*
X55673095Y-109457380D02*
X55673095Y-108457380D01*
X56244523Y-109457380D01*
X56244523Y-108457380D01*
X56625476Y-108457380D02*
X57244523Y-108457380D01*
X56911190Y-108838333D01*
X57054047Y-108838333D01*
X57149285Y-108885952D01*
X57196904Y-108933571D01*
X57244523Y-109028809D01*
X57244523Y-109266904D01*
X57196904Y-109362142D01*
X57149285Y-109409761D01*
X57054047Y-109457380D01*
X56768333Y-109457380D01*
X56673095Y-109409761D01*
X56625476Y-109362142D01*
X58196904Y-109457380D02*
X57625476Y-109457380D01*
X57911190Y-109457380D02*
X57911190Y-108457380D01*
X57815952Y-108600238D01*
X57720714Y-108695476D01*
X57625476Y-108743095D01*
X52363095Y-109777380D02*
X52363095Y-108777380D01*
X52934523Y-109777380D02*
X52505952Y-109205952D01*
X52934523Y-108777380D02*
X52363095Y-109348809D01*
X35957023Y-109457380D02*
X35385595Y-109457380D01*
X35671309Y-109457380D02*
X35671309Y-108457380D01*
X35576071Y-108600238D01*
X35480833Y-108695476D01*
X35385595Y-108743095D01*
X36385595Y-109457380D02*
X36385595Y-108457380D01*
X36957023Y-109457380D01*
X36957023Y-108457380D01*
X37337976Y-108457380D02*
X37957023Y-108457380D01*
X37623690Y-108838333D01*
X37766547Y-108838333D01*
X37861785Y-108885952D01*
X37909404Y-108933571D01*
X37957023Y-109028809D01*
X37957023Y-109266904D01*
X37909404Y-109362142D01*
X37861785Y-109409761D01*
X37766547Y-109457380D01*
X37480833Y-109457380D01*
X37385595Y-109409761D01*
X37337976Y-109362142D01*
X38576071Y-108457380D02*
X38671309Y-108457380D01*
X38766547Y-108505000D01*
X38814166Y-108552619D01*
X38861785Y-108647857D01*
X38909404Y-108838333D01*
X38909404Y-109076428D01*
X38861785Y-109266904D01*
X38814166Y-109362142D01*
X38766547Y-109409761D01*
X38671309Y-109457380D01*
X38576071Y-109457380D01*
X38480833Y-109409761D01*
X38433214Y-109362142D01*
X38385595Y-109266904D01*
X38337976Y-109076428D01*
X38337976Y-108838333D01*
X38385595Y-108647857D01*
X38433214Y-108552619D01*
X38480833Y-108505000D01*
X38576071Y-108457380D01*
X33075595Y-109777380D02*
X33075595Y-108777380D01*
X33647023Y-109777380D02*
X33218452Y-109205952D01*
X33647023Y-108777380D02*
X33075595Y-109348809D01*
X245744523Y-90407380D02*
X245173095Y-90407380D01*
X245458809Y-90407380D02*
X245458809Y-89407380D01*
X245363571Y-89550238D01*
X245268333Y-89645476D01*
X245173095Y-89693095D01*
X246173095Y-90407380D02*
X246173095Y-89407380D01*
X246744523Y-90407380D01*
X246744523Y-89407380D01*
X247173095Y-89502619D02*
X247220714Y-89455000D01*
X247315952Y-89407380D01*
X247554047Y-89407380D01*
X247649285Y-89455000D01*
X247696904Y-89502619D01*
X247744523Y-89597857D01*
X247744523Y-89693095D01*
X247696904Y-89835952D01*
X247125476Y-90407380D01*
X247744523Y-90407380D01*
X248220714Y-90407380D02*
X248411190Y-90407380D01*
X248506428Y-90359761D01*
X248554047Y-90312142D01*
X248649285Y-90169285D01*
X248696904Y-89978809D01*
X248696904Y-89597857D01*
X248649285Y-89502619D01*
X248601666Y-89455000D01*
X248506428Y-89407380D01*
X248315952Y-89407380D01*
X248220714Y-89455000D01*
X248173095Y-89502619D01*
X248125476Y-89597857D01*
X248125476Y-89835952D01*
X248173095Y-89931190D01*
X248220714Y-89978809D01*
X248315952Y-90026428D01*
X248506428Y-90026428D01*
X248601666Y-89978809D01*
X248649285Y-89931190D01*
X248696904Y-89835952D01*
X242863095Y-90727380D02*
X242863095Y-89727380D01*
X243434523Y-90727380D02*
X243005952Y-90155952D01*
X243434523Y-89727380D02*
X242863095Y-90298809D01*
X226457023Y-90407380D02*
X225885595Y-90407380D01*
X226171309Y-90407380D02*
X226171309Y-89407380D01*
X226076071Y-89550238D01*
X225980833Y-89645476D01*
X225885595Y-89693095D01*
X226885595Y-90407380D02*
X226885595Y-89407380D01*
X227457023Y-90407380D01*
X227457023Y-89407380D01*
X227885595Y-89502619D02*
X227933214Y-89455000D01*
X228028452Y-89407380D01*
X228266547Y-89407380D01*
X228361785Y-89455000D01*
X228409404Y-89502619D01*
X228457023Y-89597857D01*
X228457023Y-89693095D01*
X228409404Y-89835952D01*
X227837976Y-90407380D01*
X228457023Y-90407380D01*
X229028452Y-89835952D02*
X228933214Y-89788333D01*
X228885595Y-89740714D01*
X228837976Y-89645476D01*
X228837976Y-89597857D01*
X228885595Y-89502619D01*
X228933214Y-89455000D01*
X229028452Y-89407380D01*
X229218928Y-89407380D01*
X229314166Y-89455000D01*
X229361785Y-89502619D01*
X229409404Y-89597857D01*
X229409404Y-89645476D01*
X229361785Y-89740714D01*
X229314166Y-89788333D01*
X229218928Y-89835952D01*
X229028452Y-89835952D01*
X228933214Y-89883571D01*
X228885595Y-89931190D01*
X228837976Y-90026428D01*
X228837976Y-90216904D01*
X228885595Y-90312142D01*
X228933214Y-90359761D01*
X229028452Y-90407380D01*
X229218928Y-90407380D01*
X229314166Y-90359761D01*
X229361785Y-90312142D01*
X229409404Y-90216904D01*
X229409404Y-90026428D01*
X229361785Y-89931190D01*
X229314166Y-89883571D01*
X229218928Y-89835952D01*
X223575595Y-90727380D02*
X223575595Y-89727380D01*
X224147023Y-90727380D02*
X223718452Y-90155952D01*
X224147023Y-89727380D02*
X223575595Y-90298809D01*
X207644523Y-90407380D02*
X207073095Y-90407380D01*
X207358809Y-90407380D02*
X207358809Y-89407380D01*
X207263571Y-89550238D01*
X207168333Y-89645476D01*
X207073095Y-89693095D01*
X208073095Y-90407380D02*
X208073095Y-89407380D01*
X208644523Y-90407380D01*
X208644523Y-89407380D01*
X209073095Y-89502619D02*
X209120714Y-89455000D01*
X209215952Y-89407380D01*
X209454047Y-89407380D01*
X209549285Y-89455000D01*
X209596904Y-89502619D01*
X209644523Y-89597857D01*
X209644523Y-89693095D01*
X209596904Y-89835952D01*
X209025476Y-90407380D01*
X209644523Y-90407380D01*
X209977857Y-89407380D02*
X210644523Y-89407380D01*
X210215952Y-90407380D01*
X204763095Y-90727380D02*
X204763095Y-89727380D01*
X205334523Y-90727380D02*
X204905952Y-90155952D01*
X205334523Y-89727380D02*
X204763095Y-90298809D01*
X188357023Y-90407380D02*
X187785595Y-90407380D01*
X188071309Y-90407380D02*
X188071309Y-89407380D01*
X187976071Y-89550238D01*
X187880833Y-89645476D01*
X187785595Y-89693095D01*
X188785595Y-90407380D02*
X188785595Y-89407380D01*
X189357023Y-90407380D01*
X189357023Y-89407380D01*
X189785595Y-89502619D02*
X189833214Y-89455000D01*
X189928452Y-89407380D01*
X190166547Y-89407380D01*
X190261785Y-89455000D01*
X190309404Y-89502619D01*
X190357023Y-89597857D01*
X190357023Y-89693095D01*
X190309404Y-89835952D01*
X189737976Y-90407380D01*
X190357023Y-90407380D01*
X191214166Y-89407380D02*
X191023690Y-89407380D01*
X190928452Y-89455000D01*
X190880833Y-89502619D01*
X190785595Y-89645476D01*
X190737976Y-89835952D01*
X190737976Y-90216904D01*
X190785595Y-90312142D01*
X190833214Y-90359761D01*
X190928452Y-90407380D01*
X191118928Y-90407380D01*
X191214166Y-90359761D01*
X191261785Y-90312142D01*
X191309404Y-90216904D01*
X191309404Y-89978809D01*
X191261785Y-89883571D01*
X191214166Y-89835952D01*
X191118928Y-89788333D01*
X190928452Y-89788333D01*
X190833214Y-89835952D01*
X190785595Y-89883571D01*
X190737976Y-89978809D01*
X185475595Y-90727380D02*
X185475595Y-89727380D01*
X186047023Y-90727380D02*
X185618452Y-90155952D01*
X186047023Y-89727380D02*
X185475595Y-90298809D01*
X169069523Y-90407380D02*
X168498095Y-90407380D01*
X168783809Y-90407380D02*
X168783809Y-89407380D01*
X168688571Y-89550238D01*
X168593333Y-89645476D01*
X168498095Y-89693095D01*
X169498095Y-90407380D02*
X169498095Y-89407380D01*
X170069523Y-90407380D01*
X170069523Y-89407380D01*
X170498095Y-89502619D02*
X170545714Y-89455000D01*
X170640952Y-89407380D01*
X170879047Y-89407380D01*
X170974285Y-89455000D01*
X171021904Y-89502619D01*
X171069523Y-89597857D01*
X171069523Y-89693095D01*
X171021904Y-89835952D01*
X170450476Y-90407380D01*
X171069523Y-90407380D01*
X171974285Y-89407380D02*
X171498095Y-89407380D01*
X171450476Y-89883571D01*
X171498095Y-89835952D01*
X171593333Y-89788333D01*
X171831428Y-89788333D01*
X171926666Y-89835952D01*
X171974285Y-89883571D01*
X172021904Y-89978809D01*
X172021904Y-90216904D01*
X171974285Y-90312142D01*
X171926666Y-90359761D01*
X171831428Y-90407380D01*
X171593333Y-90407380D01*
X171498095Y-90359761D01*
X171450476Y-90312142D01*
X166188095Y-90727380D02*
X166188095Y-89727380D01*
X166759523Y-90727380D02*
X166330952Y-90155952D01*
X166759523Y-89727380D02*
X166188095Y-90298809D01*
X150494523Y-90407380D02*
X149923095Y-90407380D01*
X150208809Y-90407380D02*
X150208809Y-89407380D01*
X150113571Y-89550238D01*
X150018333Y-89645476D01*
X149923095Y-89693095D01*
X150923095Y-90407380D02*
X150923095Y-89407380D01*
X151494523Y-90407380D01*
X151494523Y-89407380D01*
X151923095Y-89502619D02*
X151970714Y-89455000D01*
X152065952Y-89407380D01*
X152304047Y-89407380D01*
X152399285Y-89455000D01*
X152446904Y-89502619D01*
X152494523Y-89597857D01*
X152494523Y-89693095D01*
X152446904Y-89835952D01*
X151875476Y-90407380D01*
X152494523Y-90407380D01*
X153351666Y-89740714D02*
X153351666Y-90407380D01*
X153113571Y-89359761D02*
X152875476Y-90074047D01*
X153494523Y-90074047D01*
X147613095Y-90727380D02*
X147613095Y-89727380D01*
X148184523Y-90727380D02*
X147755952Y-90155952D01*
X148184523Y-89727380D02*
X147613095Y-90298809D01*
X130969523Y-90407380D02*
X130398095Y-90407380D01*
X130683809Y-90407380D02*
X130683809Y-89407380D01*
X130588571Y-89550238D01*
X130493333Y-89645476D01*
X130398095Y-89693095D01*
X131398095Y-90407380D02*
X131398095Y-89407380D01*
X131969523Y-90407380D01*
X131969523Y-89407380D01*
X132398095Y-89502619D02*
X132445714Y-89455000D01*
X132540952Y-89407380D01*
X132779047Y-89407380D01*
X132874285Y-89455000D01*
X132921904Y-89502619D01*
X132969523Y-89597857D01*
X132969523Y-89693095D01*
X132921904Y-89835952D01*
X132350476Y-90407380D01*
X132969523Y-90407380D01*
X133302857Y-89407380D02*
X133921904Y-89407380D01*
X133588571Y-89788333D01*
X133731428Y-89788333D01*
X133826666Y-89835952D01*
X133874285Y-89883571D01*
X133921904Y-89978809D01*
X133921904Y-90216904D01*
X133874285Y-90312142D01*
X133826666Y-90359761D01*
X133731428Y-90407380D01*
X133445714Y-90407380D01*
X133350476Y-90359761D01*
X133302857Y-90312142D01*
X128088095Y-90727380D02*
X128088095Y-89727380D01*
X128659523Y-90727380D02*
X128230952Y-90155952D01*
X128659523Y-89727380D02*
X128088095Y-90298809D01*
X112157023Y-90407380D02*
X111585595Y-90407380D01*
X111871309Y-90407380D02*
X111871309Y-89407380D01*
X111776071Y-89550238D01*
X111680833Y-89645476D01*
X111585595Y-89693095D01*
X112585595Y-90407380D02*
X112585595Y-89407380D01*
X113157023Y-90407380D01*
X113157023Y-89407380D01*
X113585595Y-89502619D02*
X113633214Y-89455000D01*
X113728452Y-89407380D01*
X113966547Y-89407380D01*
X114061785Y-89455000D01*
X114109404Y-89502619D01*
X114157023Y-89597857D01*
X114157023Y-89693095D01*
X114109404Y-89835952D01*
X113537976Y-90407380D01*
X114157023Y-90407380D01*
X114537976Y-89502619D02*
X114585595Y-89455000D01*
X114680833Y-89407380D01*
X114918928Y-89407380D01*
X115014166Y-89455000D01*
X115061785Y-89502619D01*
X115109404Y-89597857D01*
X115109404Y-89693095D01*
X115061785Y-89835952D01*
X114490357Y-90407380D01*
X115109404Y-90407380D01*
X109275595Y-90727380D02*
X109275595Y-89727380D01*
X109847023Y-90727380D02*
X109418452Y-90155952D01*
X109847023Y-89727380D02*
X109275595Y-90298809D01*
X93344523Y-90407380D02*
X92773095Y-90407380D01*
X93058809Y-90407380D02*
X93058809Y-89407380D01*
X92963571Y-89550238D01*
X92868333Y-89645476D01*
X92773095Y-89693095D01*
X93773095Y-90407380D02*
X93773095Y-89407380D01*
X94344523Y-90407380D01*
X94344523Y-89407380D01*
X94773095Y-89502619D02*
X94820714Y-89455000D01*
X94915952Y-89407380D01*
X95154047Y-89407380D01*
X95249285Y-89455000D01*
X95296904Y-89502619D01*
X95344523Y-89597857D01*
X95344523Y-89693095D01*
X95296904Y-89835952D01*
X94725476Y-90407380D01*
X95344523Y-90407380D01*
X96296904Y-90407380D02*
X95725476Y-90407380D01*
X96011190Y-90407380D02*
X96011190Y-89407380D01*
X95915952Y-89550238D01*
X95820714Y-89645476D01*
X95725476Y-89693095D01*
X90463095Y-90727380D02*
X90463095Y-89727380D01*
X91034523Y-90727380D02*
X90605952Y-90155952D01*
X91034523Y-89727380D02*
X90463095Y-90298809D01*
X74057023Y-90407380D02*
X73485595Y-90407380D01*
X73771309Y-90407380D02*
X73771309Y-89407380D01*
X73676071Y-89550238D01*
X73580833Y-89645476D01*
X73485595Y-89693095D01*
X74485595Y-90407380D02*
X74485595Y-89407380D01*
X75057023Y-90407380D01*
X75057023Y-89407380D01*
X75485595Y-89502619D02*
X75533214Y-89455000D01*
X75628452Y-89407380D01*
X75866547Y-89407380D01*
X75961785Y-89455000D01*
X76009404Y-89502619D01*
X76057023Y-89597857D01*
X76057023Y-89693095D01*
X76009404Y-89835952D01*
X75437976Y-90407380D01*
X76057023Y-90407380D01*
X76676071Y-89407380D02*
X76771309Y-89407380D01*
X76866547Y-89455000D01*
X76914166Y-89502619D01*
X76961785Y-89597857D01*
X77009404Y-89788333D01*
X77009404Y-90026428D01*
X76961785Y-90216904D01*
X76914166Y-90312142D01*
X76866547Y-90359761D01*
X76771309Y-90407380D01*
X76676071Y-90407380D01*
X76580833Y-90359761D01*
X76533214Y-90312142D01*
X76485595Y-90216904D01*
X76437976Y-90026428D01*
X76437976Y-89788333D01*
X76485595Y-89597857D01*
X76533214Y-89502619D01*
X76580833Y-89455000D01*
X76676071Y-89407380D01*
X71175595Y-90727380D02*
X71175595Y-89727380D01*
X71747023Y-90727380D02*
X71318452Y-90155952D01*
X71747023Y-89727380D02*
X71175595Y-90298809D01*
X55244523Y-90407380D02*
X54673095Y-90407380D01*
X54958809Y-90407380D02*
X54958809Y-89407380D01*
X54863571Y-89550238D01*
X54768333Y-89645476D01*
X54673095Y-89693095D01*
X55673095Y-90407380D02*
X55673095Y-89407380D01*
X56244523Y-90407380D01*
X56244523Y-89407380D01*
X57244523Y-90407380D02*
X56673095Y-90407380D01*
X56958809Y-90407380D02*
X56958809Y-89407380D01*
X56863571Y-89550238D01*
X56768333Y-89645476D01*
X56673095Y-89693095D01*
X57720714Y-90407380D02*
X57911190Y-90407380D01*
X58006428Y-90359761D01*
X58054047Y-90312142D01*
X58149285Y-90169285D01*
X58196904Y-89978809D01*
X58196904Y-89597857D01*
X58149285Y-89502619D01*
X58101666Y-89455000D01*
X58006428Y-89407380D01*
X57815952Y-89407380D01*
X57720714Y-89455000D01*
X57673095Y-89502619D01*
X57625476Y-89597857D01*
X57625476Y-89835952D01*
X57673095Y-89931190D01*
X57720714Y-89978809D01*
X57815952Y-90026428D01*
X58006428Y-90026428D01*
X58101666Y-89978809D01*
X58149285Y-89931190D01*
X58196904Y-89835952D01*
X52363095Y-90727380D02*
X52363095Y-89727380D01*
X52934523Y-90727380D02*
X52505952Y-90155952D01*
X52934523Y-89727380D02*
X52363095Y-90298809D01*
X36194523Y-90407380D02*
X35623095Y-90407380D01*
X35908809Y-90407380D02*
X35908809Y-89407380D01*
X35813571Y-89550238D01*
X35718333Y-89645476D01*
X35623095Y-89693095D01*
X36623095Y-90407380D02*
X36623095Y-89407380D01*
X37194523Y-90407380D01*
X37194523Y-89407380D01*
X38194523Y-90407380D02*
X37623095Y-90407380D01*
X37908809Y-90407380D02*
X37908809Y-89407380D01*
X37813571Y-89550238D01*
X37718333Y-89645476D01*
X37623095Y-89693095D01*
X38765952Y-89835952D02*
X38670714Y-89788333D01*
X38623095Y-89740714D01*
X38575476Y-89645476D01*
X38575476Y-89597857D01*
X38623095Y-89502619D01*
X38670714Y-89455000D01*
X38765952Y-89407380D01*
X38956428Y-89407380D01*
X39051666Y-89455000D01*
X39099285Y-89502619D01*
X39146904Y-89597857D01*
X39146904Y-89645476D01*
X39099285Y-89740714D01*
X39051666Y-89788333D01*
X38956428Y-89835952D01*
X38765952Y-89835952D01*
X38670714Y-89883571D01*
X38623095Y-89931190D01*
X38575476Y-90026428D01*
X38575476Y-90216904D01*
X38623095Y-90312142D01*
X38670714Y-90359761D01*
X38765952Y-90407380D01*
X38956428Y-90407380D01*
X39051666Y-90359761D01*
X39099285Y-90312142D01*
X39146904Y-90216904D01*
X39146904Y-90026428D01*
X39099285Y-89931190D01*
X39051666Y-89883571D01*
X38956428Y-89835952D01*
X33313095Y-90727380D02*
X33313095Y-89727380D01*
X33884523Y-90727380D02*
X33455952Y-90155952D01*
X33884523Y-89727380D02*
X33313095Y-90298809D01*
X245744523Y-71357380D02*
X245173095Y-71357380D01*
X245458809Y-71357380D02*
X245458809Y-70357380D01*
X245363571Y-70500238D01*
X245268333Y-70595476D01*
X245173095Y-70643095D01*
X246173095Y-71357380D02*
X246173095Y-70357380D01*
X246744523Y-71357380D01*
X246744523Y-70357380D01*
X247744523Y-71357380D02*
X247173095Y-71357380D01*
X247458809Y-71357380D02*
X247458809Y-70357380D01*
X247363571Y-70500238D01*
X247268333Y-70595476D01*
X247173095Y-70643095D01*
X248077857Y-70357380D02*
X248744523Y-70357380D01*
X248315952Y-71357380D01*
X242863095Y-71677380D02*
X242863095Y-70677380D01*
X243434523Y-71677380D02*
X243005952Y-71105952D01*
X243434523Y-70677380D02*
X242863095Y-71248809D01*
X226457023Y-71357380D02*
X225885595Y-71357380D01*
X226171309Y-71357380D02*
X226171309Y-70357380D01*
X226076071Y-70500238D01*
X225980833Y-70595476D01*
X225885595Y-70643095D01*
X226885595Y-71357380D02*
X226885595Y-70357380D01*
X227457023Y-71357380D01*
X227457023Y-70357380D01*
X228457023Y-71357380D02*
X227885595Y-71357380D01*
X228171309Y-71357380D02*
X228171309Y-70357380D01*
X228076071Y-70500238D01*
X227980833Y-70595476D01*
X227885595Y-70643095D01*
X229314166Y-70357380D02*
X229123690Y-70357380D01*
X229028452Y-70405000D01*
X228980833Y-70452619D01*
X228885595Y-70595476D01*
X228837976Y-70785952D01*
X228837976Y-71166904D01*
X228885595Y-71262142D01*
X228933214Y-71309761D01*
X229028452Y-71357380D01*
X229218928Y-71357380D01*
X229314166Y-71309761D01*
X229361785Y-71262142D01*
X229409404Y-71166904D01*
X229409404Y-70928809D01*
X229361785Y-70833571D01*
X229314166Y-70785952D01*
X229218928Y-70738333D01*
X229028452Y-70738333D01*
X228933214Y-70785952D01*
X228885595Y-70833571D01*
X228837976Y-70928809D01*
X223575595Y-71677380D02*
X223575595Y-70677380D01*
X224147023Y-71677380D02*
X223718452Y-71105952D01*
X224147023Y-70677380D02*
X223575595Y-71248809D01*
X207644523Y-71357380D02*
X207073095Y-71357380D01*
X207358809Y-71357380D02*
X207358809Y-70357380D01*
X207263571Y-70500238D01*
X207168333Y-70595476D01*
X207073095Y-70643095D01*
X208073095Y-71357380D02*
X208073095Y-70357380D01*
X208644523Y-71357380D01*
X208644523Y-70357380D01*
X209644523Y-71357380D02*
X209073095Y-71357380D01*
X209358809Y-71357380D02*
X209358809Y-70357380D01*
X209263571Y-70500238D01*
X209168333Y-70595476D01*
X209073095Y-70643095D01*
X210549285Y-70357380D02*
X210073095Y-70357380D01*
X210025476Y-70833571D01*
X210073095Y-70785952D01*
X210168333Y-70738333D01*
X210406428Y-70738333D01*
X210501666Y-70785952D01*
X210549285Y-70833571D01*
X210596904Y-70928809D01*
X210596904Y-71166904D01*
X210549285Y-71262142D01*
X210501666Y-71309761D01*
X210406428Y-71357380D01*
X210168333Y-71357380D01*
X210073095Y-71309761D01*
X210025476Y-71262142D01*
X204763095Y-71677380D02*
X204763095Y-70677380D01*
X205334523Y-71677380D02*
X204905952Y-71105952D01*
X205334523Y-70677380D02*
X204763095Y-71248809D01*
X188594523Y-71357380D02*
X188023095Y-71357380D01*
X188308809Y-71357380D02*
X188308809Y-70357380D01*
X188213571Y-70500238D01*
X188118333Y-70595476D01*
X188023095Y-70643095D01*
X189023095Y-71357380D02*
X189023095Y-70357380D01*
X189594523Y-71357380D01*
X189594523Y-70357380D01*
X190594523Y-71357380D02*
X190023095Y-71357380D01*
X190308809Y-71357380D02*
X190308809Y-70357380D01*
X190213571Y-70500238D01*
X190118333Y-70595476D01*
X190023095Y-70643095D01*
X191451666Y-70690714D02*
X191451666Y-71357380D01*
X191213571Y-70309761D02*
X190975476Y-71024047D01*
X191594523Y-71024047D01*
X185713095Y-71677380D02*
X185713095Y-70677380D01*
X186284523Y-71677380D02*
X185855952Y-71105952D01*
X186284523Y-70677380D02*
X185713095Y-71248809D01*
X169544523Y-71357380D02*
X168973095Y-71357380D01*
X169258809Y-71357380D02*
X169258809Y-70357380D01*
X169163571Y-70500238D01*
X169068333Y-70595476D01*
X168973095Y-70643095D01*
X169973095Y-71357380D02*
X169973095Y-70357380D01*
X170544523Y-71357380D01*
X170544523Y-70357380D01*
X171544523Y-71357380D02*
X170973095Y-71357380D01*
X171258809Y-71357380D02*
X171258809Y-70357380D01*
X171163571Y-70500238D01*
X171068333Y-70595476D01*
X170973095Y-70643095D01*
X171877857Y-70357380D02*
X172496904Y-70357380D01*
X172163571Y-70738333D01*
X172306428Y-70738333D01*
X172401666Y-70785952D01*
X172449285Y-70833571D01*
X172496904Y-70928809D01*
X172496904Y-71166904D01*
X172449285Y-71262142D01*
X172401666Y-71309761D01*
X172306428Y-71357380D01*
X172020714Y-71357380D01*
X171925476Y-71309761D01*
X171877857Y-71262142D01*
X166663095Y-71677380D02*
X166663095Y-70677380D01*
X167234523Y-71677380D02*
X166805952Y-71105952D01*
X167234523Y-70677380D02*
X166663095Y-71248809D01*
X150494523Y-71357380D02*
X149923095Y-71357380D01*
X150208809Y-71357380D02*
X150208809Y-70357380D01*
X150113571Y-70500238D01*
X150018333Y-70595476D01*
X149923095Y-70643095D01*
X150923095Y-71357380D02*
X150923095Y-70357380D01*
X151494523Y-71357380D01*
X151494523Y-70357380D01*
X152494523Y-71357380D02*
X151923095Y-71357380D01*
X152208809Y-71357380D02*
X152208809Y-70357380D01*
X152113571Y-70500238D01*
X152018333Y-70595476D01*
X151923095Y-70643095D01*
X152875476Y-70452619D02*
X152923095Y-70405000D01*
X153018333Y-70357380D01*
X153256428Y-70357380D01*
X153351666Y-70405000D01*
X153399285Y-70452619D01*
X153446904Y-70547857D01*
X153446904Y-70643095D01*
X153399285Y-70785952D01*
X152827857Y-71357380D01*
X153446904Y-71357380D01*
X147613095Y-71677380D02*
X147613095Y-70677380D01*
X148184523Y-71677380D02*
X147755952Y-71105952D01*
X148184523Y-70677380D02*
X147613095Y-71248809D01*
X131207023Y-71357380D02*
X130635595Y-71357380D01*
X130921309Y-71357380D02*
X130921309Y-70357380D01*
X130826071Y-70500238D01*
X130730833Y-70595476D01*
X130635595Y-70643095D01*
X131635595Y-71357380D02*
X131635595Y-70357380D01*
X132207023Y-71357380D01*
X132207023Y-70357380D01*
X133207023Y-71357380D02*
X132635595Y-71357380D01*
X132921309Y-71357380D02*
X132921309Y-70357380D01*
X132826071Y-70500238D01*
X132730833Y-70595476D01*
X132635595Y-70643095D01*
X134159404Y-71357380D02*
X133587976Y-71357380D01*
X133873690Y-71357380D02*
X133873690Y-70357380D01*
X133778452Y-70500238D01*
X133683214Y-70595476D01*
X133587976Y-70643095D01*
X128325595Y-71677380D02*
X128325595Y-70677380D01*
X128897023Y-71677380D02*
X128468452Y-71105952D01*
X128897023Y-70677380D02*
X128325595Y-71248809D01*
X112394523Y-71357380D02*
X111823095Y-71357380D01*
X112108809Y-71357380D02*
X112108809Y-70357380D01*
X112013571Y-70500238D01*
X111918333Y-70595476D01*
X111823095Y-70643095D01*
X112823095Y-71357380D02*
X112823095Y-70357380D01*
X113394523Y-71357380D01*
X113394523Y-70357380D01*
X114394523Y-71357380D02*
X113823095Y-71357380D01*
X114108809Y-71357380D02*
X114108809Y-70357380D01*
X114013571Y-70500238D01*
X113918333Y-70595476D01*
X113823095Y-70643095D01*
X115013571Y-70357380D02*
X115108809Y-70357380D01*
X115204047Y-70405000D01*
X115251666Y-70452619D01*
X115299285Y-70547857D01*
X115346904Y-70738333D01*
X115346904Y-70976428D01*
X115299285Y-71166904D01*
X115251666Y-71262142D01*
X115204047Y-71309761D01*
X115108809Y-71357380D01*
X115013571Y-71357380D01*
X114918333Y-71309761D01*
X114870714Y-71262142D01*
X114823095Y-71166904D01*
X114775476Y-70976428D01*
X114775476Y-70738333D01*
X114823095Y-70547857D01*
X114870714Y-70452619D01*
X114918333Y-70405000D01*
X115013571Y-70357380D01*
X109513095Y-71677380D02*
X109513095Y-70677380D01*
X110084523Y-71677380D02*
X109655952Y-71105952D01*
X110084523Y-70677380D02*
X109513095Y-71248809D01*
X93583214Y-71357380D02*
X93011785Y-71357380D01*
X93297500Y-71357380D02*
X93297500Y-70357380D01*
X93202261Y-70500238D01*
X93107023Y-70595476D01*
X93011785Y-70643095D01*
X94011785Y-71357380D02*
X94011785Y-70357380D01*
X94583214Y-71357380D01*
X94583214Y-70357380D01*
X95107023Y-71357380D02*
X95297500Y-71357380D01*
X95392738Y-71309761D01*
X95440357Y-71262142D01*
X95535595Y-71119285D01*
X95583214Y-70928809D01*
X95583214Y-70547857D01*
X95535595Y-70452619D01*
X95487976Y-70405000D01*
X95392738Y-70357380D01*
X95202261Y-70357380D01*
X95107023Y-70405000D01*
X95059404Y-70452619D01*
X95011785Y-70547857D01*
X95011785Y-70785952D01*
X95059404Y-70881190D01*
X95107023Y-70928809D01*
X95202261Y-70976428D01*
X95392738Y-70976428D01*
X95487976Y-70928809D01*
X95535595Y-70881190D01*
X95583214Y-70785952D01*
X90225595Y-71677380D02*
X90225595Y-70677380D01*
X90797023Y-71677380D02*
X90368452Y-71105952D01*
X90797023Y-70677380D02*
X90225595Y-71248809D01*
X74533214Y-71357380D02*
X73961785Y-71357380D01*
X74247500Y-71357380D02*
X74247500Y-70357380D01*
X74152261Y-70500238D01*
X74057023Y-70595476D01*
X73961785Y-70643095D01*
X74961785Y-71357380D02*
X74961785Y-70357380D01*
X75533214Y-71357380D01*
X75533214Y-70357380D01*
X76152261Y-70785952D02*
X76057023Y-70738333D01*
X76009404Y-70690714D01*
X75961785Y-70595476D01*
X75961785Y-70547857D01*
X76009404Y-70452619D01*
X76057023Y-70405000D01*
X76152261Y-70357380D01*
X76342738Y-70357380D01*
X76437976Y-70405000D01*
X76485595Y-70452619D01*
X76533214Y-70547857D01*
X76533214Y-70595476D01*
X76485595Y-70690714D01*
X76437976Y-70738333D01*
X76342738Y-70785952D01*
X76152261Y-70785952D01*
X76057023Y-70833571D01*
X76009404Y-70881190D01*
X75961785Y-70976428D01*
X75961785Y-71166904D01*
X76009404Y-71262142D01*
X76057023Y-71309761D01*
X76152261Y-71357380D01*
X76342738Y-71357380D01*
X76437976Y-71309761D01*
X76485595Y-71262142D01*
X76533214Y-71166904D01*
X76533214Y-70976428D01*
X76485595Y-70881190D01*
X76437976Y-70833571D01*
X76342738Y-70785952D01*
X71175595Y-71677380D02*
X71175595Y-70677380D01*
X71747023Y-71677380D02*
X71318452Y-71105952D01*
X71747023Y-70677380D02*
X71175595Y-71248809D01*
X55483214Y-71357380D02*
X54911785Y-71357380D01*
X55197500Y-71357380D02*
X55197500Y-70357380D01*
X55102261Y-70500238D01*
X55007023Y-70595476D01*
X54911785Y-70643095D01*
X55911785Y-71357380D02*
X55911785Y-70357380D01*
X56483214Y-71357380D01*
X56483214Y-70357380D01*
X56864166Y-70357380D02*
X57530833Y-70357380D01*
X57102261Y-71357380D01*
X52125595Y-71677380D02*
X52125595Y-70677380D01*
X52697023Y-71677380D02*
X52268452Y-71105952D01*
X52697023Y-70677380D02*
X52125595Y-71248809D01*
X36750714Y-71357380D02*
X36179285Y-71357380D01*
X36465000Y-71357380D02*
X36465000Y-70357380D01*
X36369761Y-70500238D01*
X36274523Y-70595476D01*
X36179285Y-70643095D01*
X37179285Y-71357380D02*
X37179285Y-70357380D01*
X37750714Y-71357380D01*
X37750714Y-70357380D01*
X38655476Y-70357380D02*
X38465000Y-70357380D01*
X38369761Y-70405000D01*
X38322142Y-70452619D01*
X38226904Y-70595476D01*
X38179285Y-70785952D01*
X38179285Y-71166904D01*
X38226904Y-71262142D01*
X38274523Y-71309761D01*
X38369761Y-71357380D01*
X38560238Y-71357380D01*
X38655476Y-71309761D01*
X38703095Y-71262142D01*
X38750714Y-71166904D01*
X38750714Y-70928809D01*
X38703095Y-70833571D01*
X38655476Y-70785952D01*
X38560238Y-70738333D01*
X38369761Y-70738333D01*
X38274523Y-70785952D01*
X38226904Y-70833571D01*
X38179285Y-70928809D01*
X33393095Y-71677380D02*
X33393095Y-70677380D01*
X33964523Y-71677380D02*
X33535952Y-71105952D01*
X33964523Y-70677380D02*
X33393095Y-71248809D01*
X245983214Y-52307380D02*
X245411785Y-52307380D01*
X245697500Y-52307380D02*
X245697500Y-51307380D01*
X245602261Y-51450238D01*
X245507023Y-51545476D01*
X245411785Y-51593095D01*
X246411785Y-52307380D02*
X246411785Y-51307380D01*
X246983214Y-52307380D01*
X246983214Y-51307380D01*
X247935595Y-51307380D02*
X247459404Y-51307380D01*
X247411785Y-51783571D01*
X247459404Y-51735952D01*
X247554642Y-51688333D01*
X247792738Y-51688333D01*
X247887976Y-51735952D01*
X247935595Y-51783571D01*
X247983214Y-51878809D01*
X247983214Y-52116904D01*
X247935595Y-52212142D01*
X247887976Y-52259761D01*
X247792738Y-52307380D01*
X247554642Y-52307380D01*
X247459404Y-52259761D01*
X247411785Y-52212142D01*
X242625595Y-52627380D02*
X242625595Y-51627380D01*
X243197023Y-52627380D02*
X242768452Y-52055952D01*
X243197023Y-51627380D02*
X242625595Y-52198809D01*
X227250714Y-52307380D02*
X226679285Y-52307380D01*
X226965000Y-52307380D02*
X226965000Y-51307380D01*
X226869761Y-51450238D01*
X226774523Y-51545476D01*
X226679285Y-51593095D01*
X227679285Y-52307380D02*
X227679285Y-51307380D01*
X228250714Y-52307380D01*
X228250714Y-51307380D01*
X229155476Y-51640714D02*
X229155476Y-52307380D01*
X228917380Y-51259761D02*
X228679285Y-51974047D01*
X229298333Y-51974047D01*
X223893095Y-52627380D02*
X223893095Y-51627380D01*
X224464523Y-52627380D02*
X224035952Y-52055952D01*
X224464523Y-51627380D02*
X223893095Y-52198809D01*
X207883214Y-52307380D02*
X207311785Y-52307380D01*
X207597500Y-52307380D02*
X207597500Y-51307380D01*
X207502261Y-51450238D01*
X207407023Y-51545476D01*
X207311785Y-51593095D01*
X208311785Y-52307380D02*
X208311785Y-51307380D01*
X208883214Y-52307380D01*
X208883214Y-51307380D01*
X209264166Y-51307380D02*
X209883214Y-51307380D01*
X209549880Y-51688333D01*
X209692738Y-51688333D01*
X209787976Y-51735952D01*
X209835595Y-51783571D01*
X209883214Y-51878809D01*
X209883214Y-52116904D01*
X209835595Y-52212142D01*
X209787976Y-52259761D01*
X209692738Y-52307380D01*
X209407023Y-52307380D01*
X209311785Y-52259761D01*
X209264166Y-52212142D01*
X204525595Y-52627380D02*
X204525595Y-51627380D01*
X205097023Y-52627380D02*
X204668452Y-52055952D01*
X205097023Y-51627380D02*
X204525595Y-52198809D01*
%LPC*%
X29761309Y-129039880D02*
X29761309Y-128039880D01*
X30094642Y-128373214D02*
X30475595Y-128373214D01*
X30237500Y-129039880D02*
X30237500Y-128182738D01*
X30285119Y-128087500D01*
X30380357Y-128039880D01*
X30475595Y-128039880D01*
X31427976Y-128373214D02*
X31808928Y-128373214D01*
X31570833Y-129039880D02*
X31570833Y-128182738D01*
X31618452Y-128087500D01*
X31713690Y-128039880D01*
X31808928Y-128039880D01*
X32285119Y-129039880D02*
X32189880Y-128992261D01*
X32142261Y-128944642D01*
X32094642Y-128849404D01*
X32094642Y-128563690D01*
X32142261Y-128468452D01*
X32189880Y-128420833D01*
X32285119Y-128373214D01*
X32427976Y-128373214D01*
X32523214Y-128420833D01*
X32570833Y-128468452D01*
X32618452Y-128563690D01*
X32618452Y-128849404D01*
X32570833Y-128944642D01*
X32523214Y-128992261D01*
X32427976Y-129039880D01*
X32285119Y-129039880D01*
X33475595Y-128373214D02*
X33475595Y-129039880D01*
X33047023Y-128373214D02*
X33047023Y-128897023D01*
X33094642Y-128992261D01*
X33189880Y-129039880D01*
X33332738Y-129039880D01*
X33427976Y-128992261D01*
X33475595Y-128944642D01*
X33951785Y-128373214D02*
X33951785Y-129039880D01*
X33951785Y-128468452D02*
X33999404Y-128420833D01*
X34094642Y-128373214D01*
X34237500Y-128373214D01*
X34332738Y-128420833D01*
X34380357Y-128516071D01*
X34380357Y-129039880D01*
X35285119Y-129039880D02*
X35285119Y-128039880D01*
X35285119Y-128992261D02*
X35189880Y-129039880D01*
X34999404Y-129039880D01*
X34904166Y-128992261D01*
X34856547Y-128944642D01*
X34808928Y-128849404D01*
X34808928Y-128563690D01*
X34856547Y-128468452D01*
X34904166Y-128420833D01*
X34999404Y-128373214D01*
X35189880Y-128373214D01*
X35285119Y-128420833D01*
X35808928Y-128992261D02*
X35808928Y-129039880D01*
X35761309Y-129135119D01*
X35713690Y-129182738D01*
X36999404Y-128373214D02*
X36999404Y-129373214D01*
X36999404Y-128420833D02*
X37094642Y-128373214D01*
X37285119Y-128373214D01*
X37380357Y-128420833D01*
X37427976Y-128468452D01*
X37475595Y-128563690D01*
X37475595Y-128849404D01*
X37427976Y-128944642D01*
X37380357Y-128992261D01*
X37285119Y-129039880D01*
X37094642Y-129039880D01*
X36999404Y-128992261D01*
X38047023Y-129039880D02*
X37951785Y-128992261D01*
X37904166Y-128897023D01*
X37904166Y-128039880D01*
X38808928Y-128992261D02*
X38713690Y-129039880D01*
X38523214Y-129039880D01*
X38427976Y-128992261D01*
X38380357Y-128897023D01*
X38380357Y-128516071D01*
X38427976Y-128420833D01*
X38523214Y-128373214D01*
X38713690Y-128373214D01*
X38808928Y-128420833D01*
X38856547Y-128516071D01*
X38856547Y-128611309D01*
X38380357Y-128706547D01*
X39713690Y-129039880D02*
X39713690Y-128516071D01*
X39666071Y-128420833D01*
X39570833Y-128373214D01*
X39380357Y-128373214D01*
X39285119Y-128420833D01*
X39713690Y-128992261D02*
X39618452Y-129039880D01*
X39380357Y-129039880D01*
X39285119Y-128992261D01*
X39237500Y-128897023D01*
X39237500Y-128801785D01*
X39285119Y-128706547D01*
X39380357Y-128658928D01*
X39618452Y-128658928D01*
X39713690Y-128611309D01*
X40142261Y-128992261D02*
X40237500Y-129039880D01*
X40427976Y-129039880D01*
X40523214Y-128992261D01*
X40570833Y-128897023D01*
X40570833Y-128849404D01*
X40523214Y-128754166D01*
X40427976Y-128706547D01*
X40285119Y-128706547D01*
X40189880Y-128658928D01*
X40142261Y-128563690D01*
X40142261Y-128516071D01*
X40189880Y-128420833D01*
X40285119Y-128373214D01*
X40427976Y-128373214D01*
X40523214Y-128420833D01*
X41380357Y-128992261D02*
X41285119Y-129039880D01*
X41094642Y-129039880D01*
X40999404Y-128992261D01*
X40951785Y-128897023D01*
X40951785Y-128516071D01*
X40999404Y-128420833D01*
X41094642Y-128373214D01*
X41285119Y-128373214D01*
X41380357Y-128420833D01*
X41427976Y-128516071D01*
X41427976Y-128611309D01*
X40951785Y-128706547D01*
X42999404Y-128992261D02*
X42904166Y-129039880D01*
X42713690Y-129039880D01*
X42618452Y-128992261D01*
X42570833Y-128897023D01*
X42570833Y-128516071D01*
X42618452Y-128420833D01*
X42713690Y-128373214D01*
X42904166Y-128373214D01*
X42999404Y-128420833D01*
X43047023Y-128516071D01*
X43047023Y-128611309D01*
X42570833Y-128706547D01*
X43475595Y-129039880D02*
X43475595Y-128373214D01*
X43475595Y-128468452D02*
X43523214Y-128420833D01*
X43618452Y-128373214D01*
X43761309Y-128373214D01*
X43856547Y-128420833D01*
X43904166Y-128516071D01*
X43904166Y-129039880D01*
X43904166Y-128516071D02*
X43951785Y-128420833D01*
X44047023Y-128373214D01*
X44189880Y-128373214D01*
X44285119Y-128420833D01*
X44332738Y-128516071D01*
X44332738Y-129039880D01*
X45237500Y-129039880D02*
X45237500Y-128516071D01*
X45189880Y-128420833D01*
X45094642Y-128373214D01*
X44904166Y-128373214D01*
X44808928Y-128420833D01*
X45237500Y-128992261D02*
X45142261Y-129039880D01*
X44904166Y-129039880D01*
X44808928Y-128992261D01*
X44761309Y-128897023D01*
X44761309Y-128801785D01*
X44808928Y-128706547D01*
X44904166Y-128658928D01*
X45142261Y-128658928D01*
X45237500Y-128611309D01*
X45713690Y-129039880D02*
X45713690Y-128373214D01*
X45713690Y-128039880D02*
X45666071Y-128087500D01*
X45713690Y-128135119D01*
X45761309Y-128087500D01*
X45713690Y-128039880D01*
X45713690Y-128135119D01*
X46332738Y-129039880D02*
X46237500Y-128992261D01*
X46189880Y-128897023D01*
X46189880Y-128039880D01*
X47427976Y-128992261D02*
X47523214Y-129039880D01*
X47713690Y-129039880D01*
X47808928Y-128992261D01*
X47856547Y-128897023D01*
X47856547Y-128849404D01*
X47808928Y-128754166D01*
X47713690Y-128706547D01*
X47570833Y-128706547D01*
X47475595Y-128658928D01*
X47427976Y-128563690D01*
X47427976Y-128516071D01*
X47475595Y-128420833D01*
X47570833Y-128373214D01*
X47713690Y-128373214D01*
X47808928Y-128420833D01*
X48713690Y-128373214D02*
X48713690Y-129373214D01*
X48713690Y-128992261D02*
X48618452Y-129039880D01*
X48427976Y-129039880D01*
X48332738Y-128992261D01*
X48285119Y-128944642D01*
X48237500Y-128849404D01*
X48237500Y-128563690D01*
X48285119Y-128468452D01*
X48332738Y-128420833D01*
X48427976Y-128373214D01*
X48618452Y-128373214D01*
X48713690Y-128420833D01*
X49094642Y-128039880D02*
X49713690Y-128039880D01*
X49380357Y-128420833D01*
X49523214Y-128420833D01*
X49618452Y-128468452D01*
X49666071Y-128516071D01*
X49713690Y-128611309D01*
X49713690Y-128849404D01*
X49666071Y-128944642D01*
X49618452Y-128992261D01*
X49523214Y-129039880D01*
X49237500Y-129039880D01*
X49142261Y-128992261D01*
X49094642Y-128944642D01*
X50047023Y-128039880D02*
X50713690Y-128039880D01*
X50285119Y-129039880D01*
X50999404Y-128039880D02*
X51618452Y-128039880D01*
X51285119Y-128420833D01*
X51427976Y-128420833D01*
X51523214Y-128468452D01*
X51570833Y-128516071D01*
X51618452Y-128611309D01*
X51618452Y-128849404D01*
X51570833Y-128944642D01*
X51523214Y-128992261D01*
X51427976Y-129039880D01*
X51142261Y-129039880D01*
X51047023Y-128992261D01*
X50999404Y-128944642D01*
X52475595Y-128039880D02*
X52285119Y-128039880D01*
X52189880Y-128087500D01*
X52142261Y-128135119D01*
X52047023Y-128277976D01*
X51999404Y-128468452D01*
X51999404Y-128849404D01*
X52047023Y-128944642D01*
X52094642Y-128992261D01*
X52189880Y-129039880D01*
X52380357Y-129039880D01*
X52475595Y-128992261D01*
X52523214Y-128944642D01*
X52570833Y-128849404D01*
X52570833Y-128611309D01*
X52523214Y-128516071D01*
X52475595Y-128468452D01*
X52380357Y-128420833D01*
X52189880Y-128420833D01*
X52094642Y-128468452D01*
X52047023Y-128516071D01*
X51999404Y-128611309D01*
X53618452Y-128563690D02*
X53570833Y-128516071D01*
X53475595Y-128468452D01*
X53380357Y-128468452D01*
X53285119Y-128516071D01*
X53237500Y-128563690D01*
X53189880Y-128658928D01*
X53189880Y-128754166D01*
X53237500Y-128849404D01*
X53285119Y-128897023D01*
X53380357Y-128944642D01*
X53475595Y-128944642D01*
X53570833Y-128897023D01*
X53618452Y-128849404D01*
X53618452Y-128468452D02*
X53618452Y-128849404D01*
X53666071Y-128897023D01*
X53713690Y-128897023D01*
X53808928Y-128849404D01*
X53856547Y-128754166D01*
X53856547Y-128516071D01*
X53761309Y-128373214D01*
X53618452Y-128277976D01*
X53427976Y-128230357D01*
X53237500Y-128277976D01*
X53094642Y-128373214D01*
X52999404Y-128516071D01*
X52951785Y-128706547D01*
X52999404Y-128897023D01*
X53094642Y-129039880D01*
X53237500Y-129135119D01*
X53427976Y-129182738D01*
X53618452Y-129135119D01*
X53761309Y-129039880D01*
X54713690Y-128373214D02*
X54713690Y-129182738D01*
X54666071Y-129277976D01*
X54618452Y-129325595D01*
X54523214Y-129373214D01*
X54380357Y-129373214D01*
X54285119Y-129325595D01*
X54713690Y-128992261D02*
X54618452Y-129039880D01*
X54427976Y-129039880D01*
X54332738Y-128992261D01*
X54285119Y-128944642D01*
X54237500Y-128849404D01*
X54237500Y-128563690D01*
X54285119Y-128468452D01*
X54332738Y-128420833D01*
X54427976Y-128373214D01*
X54618452Y-128373214D01*
X54713690Y-128420833D01*
X55189880Y-129039880D02*
X55189880Y-128373214D01*
X55189880Y-128468452D02*
X55237500Y-128420833D01*
X55332738Y-128373214D01*
X55475595Y-128373214D01*
X55570833Y-128420833D01*
X55618452Y-128516071D01*
X55618452Y-129039880D01*
X55618452Y-128516071D02*
X55666071Y-128420833D01*
X55761309Y-128373214D01*
X55904166Y-128373214D01*
X55999404Y-128420833D01*
X56047023Y-128516071D01*
X56047023Y-129039880D01*
X56951785Y-129039880D02*
X56951785Y-128516071D01*
X56904166Y-128420833D01*
X56808928Y-128373214D01*
X56618452Y-128373214D01*
X56523214Y-128420833D01*
X56951785Y-128992261D02*
X56856547Y-129039880D01*
X56618452Y-129039880D01*
X56523214Y-128992261D01*
X56475595Y-128897023D01*
X56475595Y-128801785D01*
X56523214Y-128706547D01*
X56618452Y-128658928D01*
X56856547Y-128658928D01*
X56951785Y-128611309D01*
X57427976Y-129039880D02*
X57427976Y-128373214D01*
X57427976Y-128039880D02*
X57380357Y-128087500D01*
X57427976Y-128135119D01*
X57475595Y-128087500D01*
X57427976Y-128039880D01*
X57427976Y-128135119D01*
X58047023Y-129039880D02*
X57951785Y-128992261D01*
X57904166Y-128897023D01*
X57904166Y-128039880D01*
X58427976Y-128944642D02*
X58475595Y-128992261D01*
X58427976Y-129039880D01*
X58380357Y-128992261D01*
X58427976Y-128944642D01*
X58427976Y-129039880D01*
X59332738Y-128992261D02*
X59237500Y-129039880D01*
X59047023Y-129039880D01*
X58951785Y-128992261D01*
X58904166Y-128944642D01*
X58856547Y-128849404D01*
X58856547Y-128563690D01*
X58904166Y-128468452D01*
X58951785Y-128420833D01*
X59047023Y-128373214D01*
X59237500Y-128373214D01*
X59332738Y-128420833D01*
X59904166Y-129039880D02*
X59808928Y-128992261D01*
X59761309Y-128944642D01*
X59713690Y-128849404D01*
X59713690Y-128563690D01*
X59761309Y-128468452D01*
X59808928Y-128420833D01*
X59904166Y-128373214D01*
X60047023Y-128373214D01*
X60142261Y-128420833D01*
X60189880Y-128468452D01*
X60237500Y-128563690D01*
X60237500Y-128849404D01*
X60189880Y-128944642D01*
X60142261Y-128992261D01*
X60047023Y-129039880D01*
X59904166Y-129039880D01*
X60666071Y-129039880D02*
X60666071Y-128373214D01*
X60666071Y-128468452D02*
X60713690Y-128420833D01*
X60808928Y-128373214D01*
X60951785Y-128373214D01*
X61047023Y-128420833D01*
X61094642Y-128516071D01*
X61094642Y-129039880D01*
X61094642Y-128516071D02*
X61142261Y-128420833D01*
X61237500Y-128373214D01*
X61380357Y-128373214D01*
X61475595Y-128420833D01*
X61523214Y-128516071D01*
X61523214Y-129039880D01*
X62904166Y-129039880D02*
X62808928Y-128992261D01*
X62761309Y-128944642D01*
X62713690Y-128849404D01*
X62713690Y-128563690D01*
X62761309Y-128468452D01*
X62808928Y-128420833D01*
X62904166Y-128373214D01*
X63047023Y-128373214D01*
X63142261Y-128420833D01*
X63189880Y-128468452D01*
X63237500Y-128563690D01*
X63237500Y-128849404D01*
X63189880Y-128944642D01*
X63142261Y-128992261D01*
X63047023Y-129039880D01*
X62904166Y-129039880D01*
X63666071Y-129039880D02*
X63666071Y-128373214D01*
X63666071Y-128563690D02*
X63713690Y-128468452D01*
X63761309Y-128420833D01*
X63856547Y-128373214D01*
X63951785Y-128373214D01*
X65475595Y-128992261D02*
X65380357Y-129039880D01*
X65189880Y-129039880D01*
X65094642Y-128992261D01*
X65047023Y-128944642D01*
X64999404Y-128849404D01*
X64999404Y-128563690D01*
X65047023Y-128468452D01*
X65094642Y-128420833D01*
X65189880Y-128373214D01*
X65380357Y-128373214D01*
X65475595Y-128420833D01*
X66332738Y-129039880D02*
X66332738Y-128516071D01*
X66285119Y-128420833D01*
X66189880Y-128373214D01*
X65999404Y-128373214D01*
X65904166Y-128420833D01*
X66332738Y-128992261D02*
X66237500Y-129039880D01*
X65999404Y-129039880D01*
X65904166Y-128992261D01*
X65856547Y-128897023D01*
X65856547Y-128801785D01*
X65904166Y-128706547D01*
X65999404Y-128658928D01*
X66237500Y-128658928D01*
X66332738Y-128611309D01*
X66951785Y-129039880D02*
X66856547Y-128992261D01*
X66808928Y-128897023D01*
X66808928Y-128039880D01*
X67475595Y-129039880D02*
X67380357Y-128992261D01*
X67332738Y-128897023D01*
X67332738Y-128039880D01*
X68761309Y-128468452D02*
X68666071Y-128420833D01*
X68618452Y-128373214D01*
X68570833Y-128277976D01*
X68570833Y-128230357D01*
X68618452Y-128135119D01*
X68666071Y-128087500D01*
X68761309Y-128039880D01*
X68951785Y-128039880D01*
X69047023Y-128087500D01*
X69094642Y-128135119D01*
X69142261Y-128230357D01*
X69142261Y-128277976D01*
X69094642Y-128373214D01*
X69047023Y-128420833D01*
X68951785Y-128468452D01*
X68761309Y-128468452D01*
X68666071Y-128516071D01*
X68618452Y-128563690D01*
X68570833Y-128658928D01*
X68570833Y-128849404D01*
X68618452Y-128944642D01*
X68666071Y-128992261D01*
X68761309Y-129039880D01*
X68951785Y-129039880D01*
X69047023Y-128992261D01*
X69094642Y-128944642D01*
X69142261Y-128849404D01*
X69142261Y-128658928D01*
X69094642Y-128563690D01*
X69047023Y-128516071D01*
X68951785Y-128468452D01*
X69999404Y-128039880D02*
X69808928Y-128039880D01*
X69713690Y-128087500D01*
X69666071Y-128135119D01*
X69570833Y-128277976D01*
X69523214Y-128468452D01*
X69523214Y-128849404D01*
X69570833Y-128944642D01*
X69618452Y-128992261D01*
X69713690Y-129039880D01*
X69904166Y-129039880D01*
X69999404Y-128992261D01*
X70047023Y-128944642D01*
X70094642Y-128849404D01*
X70094642Y-128611309D01*
X70047023Y-128516071D01*
X69999404Y-128468452D01*
X69904166Y-128420833D01*
X69713690Y-128420833D01*
X69618452Y-128468452D01*
X69570833Y-128516071D01*
X69523214Y-128611309D01*
X70951785Y-128373214D02*
X70951785Y-129039880D01*
X70713690Y-127992261D02*
X70475595Y-128706547D01*
X71094642Y-128706547D01*
X71475595Y-128658928D02*
X72237500Y-128658928D01*
X72618452Y-128039880D02*
X73237500Y-128039880D01*
X72904166Y-128420833D01*
X73047023Y-128420833D01*
X73142261Y-128468452D01*
X73189880Y-128516071D01*
X73237500Y-128611309D01*
X73237500Y-128849404D01*
X73189880Y-128944642D01*
X73142261Y-128992261D01*
X73047023Y-129039880D01*
X72761309Y-129039880D01*
X72666071Y-128992261D01*
X72618452Y-128944642D01*
X73618452Y-128135119D02*
X73666071Y-128087500D01*
X73761309Y-128039880D01*
X73999404Y-128039880D01*
X74094642Y-128087500D01*
X74142261Y-128135119D01*
X74189880Y-128230357D01*
X74189880Y-128325595D01*
X74142261Y-128468452D01*
X73570833Y-129039880D01*
X74189880Y-129039880D01*
X75094642Y-128039880D02*
X74618452Y-128039880D01*
X74570833Y-128516071D01*
X74618452Y-128468452D01*
X74713690Y-128420833D01*
X74951785Y-128420833D01*
X75047023Y-128468452D01*
X75094642Y-128516071D01*
X75142261Y-128611309D01*
X75142261Y-128849404D01*
X75094642Y-128944642D01*
X75047023Y-128992261D01*
X74951785Y-129039880D01*
X74713690Y-129039880D01*
X74618452Y-128992261D01*
X74570833Y-128944642D01*
X75570833Y-128658928D02*
X76332738Y-128658928D01*
X76951785Y-128468452D02*
X76856547Y-128420833D01*
X76808928Y-128373214D01*
X76761309Y-128277976D01*
X76761309Y-128230357D01*
X76808928Y-128135119D01*
X76856547Y-128087500D01*
X76951785Y-128039880D01*
X77142261Y-128039880D01*
X77237500Y-128087500D01*
X77285119Y-128135119D01*
X77332738Y-128230357D01*
X77332738Y-128277976D01*
X77285119Y-128373214D01*
X77237500Y-128420833D01*
X77142261Y-128468452D01*
X76951785Y-128468452D01*
X76856547Y-128516071D01*
X76808928Y-128563690D01*
X76761309Y-128658928D01*
X76761309Y-128849404D01*
X76808928Y-128944642D01*
X76856547Y-128992261D01*
X76951785Y-129039880D01*
X77142261Y-129039880D01*
X77237500Y-128992261D01*
X77285119Y-128944642D01*
X77332738Y-128849404D01*
X77332738Y-128658928D01*
X77285119Y-128563690D01*
X77237500Y-128516071D01*
X77142261Y-128468452D01*
X78189880Y-128373214D02*
X78189880Y-129039880D01*
X77951785Y-127992261D02*
X77713690Y-128706547D01*
X78332738Y-128706547D01*
X78856547Y-128468452D02*
X78761309Y-128420833D01*
X78713690Y-128373214D01*
X78666071Y-128277976D01*
X78666071Y-128230357D01*
X78713690Y-128135119D01*
X78761309Y-128087500D01*
X78856547Y-128039880D01*
X79047023Y-128039880D01*
X79142261Y-128087500D01*
X79189880Y-128135119D01*
X79237500Y-128230357D01*
X79237500Y-128277976D01*
X79189880Y-128373214D01*
X79142261Y-128420833D01*
X79047023Y-128468452D01*
X78856547Y-128468452D01*
X78761309Y-128516071D01*
X78713690Y-128563690D01*
X78666071Y-128658928D01*
X78666071Y-128849404D01*
X78713690Y-128944642D01*
X78761309Y-128992261D01*
X78856547Y-129039880D01*
X79047023Y-129039880D01*
X79142261Y-128992261D01*
X79189880Y-128944642D01*
X79237500Y-128849404D01*
X79237500Y-128658928D01*
X79189880Y-128563690D01*
X79142261Y-128516071D01*
X79047023Y-128468452D01*
X80142261Y-128039880D02*
X79666071Y-128039880D01*
X79618452Y-128516071D01*
X79666071Y-128468452D01*
X79761309Y-128420833D01*
X79999404Y-128420833D01*
X80094642Y-128468452D01*
X80142261Y-128516071D01*
X80189880Y-128611309D01*
X80189880Y-128849404D01*
X80142261Y-128944642D01*
X80094642Y-128992261D01*
X79999404Y-129039880D01*
X79761309Y-129039880D01*
X79666071Y-128992261D01*
X79618452Y-128944642D01*
X80618452Y-128944642D02*
X80666071Y-128992261D01*
X80618452Y-129039880D01*
X80570833Y-128992261D01*
X80618452Y-128944642D01*
X80618452Y-129039880D01*
X81713690Y-128039880D02*
X82285119Y-128039880D01*
X81999404Y-129039880D02*
X81999404Y-128039880D01*
X82618452Y-129039880D02*
X82618452Y-128039880D01*
X83047023Y-129039880D02*
X83047023Y-128516071D01*
X82999404Y-128420833D01*
X82904166Y-128373214D01*
X82761309Y-128373214D01*
X82666071Y-128420833D01*
X82618452Y-128468452D01*
X83951785Y-129039880D02*
X83951785Y-128516071D01*
X83904166Y-128420833D01*
X83808928Y-128373214D01*
X83618452Y-128373214D01*
X83523214Y-128420833D01*
X83951785Y-128992261D02*
X83856547Y-129039880D01*
X83618452Y-129039880D01*
X83523214Y-128992261D01*
X83475595Y-128897023D01*
X83475595Y-128801785D01*
X83523214Y-128706547D01*
X83618452Y-128658928D01*
X83856547Y-128658928D01*
X83951785Y-128611309D01*
X84427976Y-128373214D02*
X84427976Y-129039880D01*
X84427976Y-128468452D02*
X84475595Y-128420833D01*
X84570833Y-128373214D01*
X84713690Y-128373214D01*
X84808928Y-128420833D01*
X84856547Y-128516071D01*
X84856547Y-129039880D01*
X85332738Y-129039880D02*
X85332738Y-128039880D01*
X85427976Y-128658928D02*
X85713690Y-129039880D01*
X85713690Y-128373214D02*
X85332738Y-128754166D01*
X86094642Y-128992261D02*
X86189880Y-129039880D01*
X86380357Y-129039880D01*
X86475595Y-128992261D01*
X86523214Y-128897023D01*
X86523214Y-128849404D01*
X86475595Y-128754166D01*
X86380357Y-128706547D01*
X86237500Y-128706547D01*
X86142261Y-128658928D01*
X86094642Y-128563690D01*
X86094642Y-128516071D01*
X86142261Y-128420833D01*
X86237500Y-128373214D01*
X86380357Y-128373214D01*
X86475595Y-128420833D01*
X86951785Y-128944642D02*
X86999404Y-128992261D01*
X86951785Y-129039880D01*
X86904166Y-128992261D01*
X86951785Y-128944642D01*
X86951785Y-129039880D01*
X86951785Y-128658928D02*
X86904166Y-128087500D01*
X86951785Y-128039880D01*
X86999404Y-128087500D01*
X86951785Y-128658928D01*
X86951785Y-128039880D01*
D12*
X31387499Y-42318452D02*
X32387499Y-42627976D01*
X34054166Y-42627976D01*
X34720833Y-42318452D01*
X35054166Y-42008928D01*
X35387500Y-41389880D01*
X35387500Y-40770833D01*
X35054166Y-40151785D01*
X34720833Y-39842261D01*
X34054166Y-39532738D01*
X32720833Y-39223214D01*
X32054166Y-38913690D01*
X31720833Y-38604166D01*
X31387499Y-37985119D01*
X31387499Y-37366071D01*
X31720833Y-36747023D01*
X32054166Y-36437500D01*
X32720833Y-36127976D01*
X34387500Y-36127976D01*
X35387500Y-36437500D01*
X41387500Y-42627976D02*
X41387500Y-39223214D01*
X41054166Y-38604166D01*
X40387500Y-38294642D01*
X39054166Y-38294642D01*
X38387500Y-38604166D01*
X41387500Y-42318452D02*
X40720833Y-42627976D01*
X39054166Y-42627976D01*
X38387500Y-42318452D01*
X38054166Y-41699404D01*
X38054166Y-41080357D01*
X38387500Y-40461309D01*
X39054166Y-40151785D01*
X40720833Y-40151785D01*
X41387500Y-39842261D01*
X44720833Y-42627976D02*
X44720833Y-38294642D01*
X44720833Y-38913690D02*
X45054166Y-38604166D01*
X45720833Y-38294642D01*
X46720833Y-38294642D01*
X47387500Y-38604166D01*
X47720833Y-39223214D01*
X47720833Y-42627976D01*
X47720833Y-39223214D02*
X48054166Y-38604166D01*
X48720833Y-38294642D01*
X49720833Y-38294642D01*
X50387500Y-38604166D01*
X50720833Y-39223214D01*
X50720833Y-42627976D01*
X64054166Y-43247023D02*
X63387499Y-42937500D01*
X62720833Y-42318452D01*
X61720833Y-41389880D01*
X61054166Y-41080357D01*
X60387499Y-41080357D01*
X60720833Y-42627976D02*
X60054166Y-42318452D01*
X59387500Y-41699404D01*
X59054166Y-40461309D01*
X59054166Y-38294642D01*
X59387500Y-37056547D01*
X60054166Y-36437500D01*
X60720833Y-36127976D01*
X62054166Y-36127976D01*
X62720833Y-36437500D01*
X63387499Y-37056547D01*
X63720833Y-38294642D01*
X63720833Y-40461309D01*
X63387499Y-41699404D01*
X62720833Y-42318452D01*
X62054166Y-42627976D01*
X60720833Y-42627976D01*
X66720833Y-42627976D02*
X66720833Y-38294642D01*
X66720833Y-36127976D02*
X66387500Y-36437500D01*
X66720833Y-36747023D01*
X67054166Y-36437500D01*
X66720833Y-36127976D01*
X66720833Y-36747023D01*
X70054166Y-38294642D02*
X70054166Y-42627976D01*
X70054166Y-38913690D02*
X70387500Y-38604166D01*
X71054166Y-38294642D01*
X72054166Y-38294642D01*
X72720833Y-38604166D01*
X73054166Y-39223214D01*
X73054166Y-42627976D01*
D13*
X208280000Y-35242500D03*
X210820000Y-35242500D03*
X213360000Y-35242500D03*
X215900000Y-35242500D03*
X218440000Y-35242500D03*
X220980000Y-35242500D03*
X223520000Y-35242500D03*
X226060000Y-35242500D03*
X228600000Y-35242500D03*
X231140000Y-35242500D03*
X233680000Y-35242500D03*
X236220000Y-35242500D03*
X236220000Y-50482500D03*
X233680000Y-50482500D03*
X231140000Y-50482500D03*
X228600000Y-50482500D03*
X226060000Y-50482500D03*
X223520000Y-50482500D03*
X220980000Y-50482500D03*
X218440000Y-50482500D03*
X215900000Y-50482500D03*
X213360000Y-50482500D03*
X210820000Y-50482500D03*
D14*
X208280000Y-50482500D03*
D15*
X156686250Y-101600000D03*
X146526250Y-101600000D03*
D16*
X151606250Y-101600000D03*
D15*
X137636250Y-101600000D03*
X127476250Y-101600000D03*
D16*
X132556250Y-101600000D03*
D15*
X118586250Y-82550000D03*
X108426250Y-82550000D03*
D16*
X113506250Y-82550000D03*
D15*
X42386250Y-120650000D03*
X32226250Y-120650000D03*
D16*
X37306250Y-120650000D03*
D17*
X193357500Y-53975000D03*
D14*
X185737500Y-53975000D03*
D17*
X174307500Y-53975000D03*
D14*
X166687500Y-53975000D03*
D17*
X155257500Y-53975000D03*
D14*
X147637500Y-53975000D03*
D17*
X136445000Y-53975000D03*
D14*
X128825000Y-53975000D03*
D17*
X117395000Y-53975000D03*
D14*
X109775000Y-53975000D03*
D17*
X98345000Y-53975000D03*
D14*
X90725000Y-53975000D03*
D17*
X79057500Y-53975000D03*
D14*
X71437500Y-53975000D03*
D17*
X59845000Y-53975000D03*
D14*
X52225000Y-53975000D03*
D17*
X40957500Y-53975000D03*
D14*
X33337500Y-53975000D03*
D17*
X250507500Y-111125000D03*
D14*
X242887500Y-111125000D03*
D17*
X231457500Y-111125000D03*
D14*
X223837500Y-111125000D03*
D17*
X212170000Y-111125000D03*
D14*
X204550000Y-111125000D03*
D17*
X193120000Y-111125000D03*
D14*
X185500000Y-111125000D03*
D17*
X174070000Y-111125000D03*
D14*
X166450000Y-111125000D03*
D17*
X145495000Y-111125000D03*
D14*
X137875000Y-111125000D03*
D17*
X117395000Y-111125000D03*
D14*
X109775000Y-111125000D03*
D17*
X98663750Y-111125000D03*
D14*
X91043750Y-111125000D03*
D17*
X79295000Y-111125000D03*
D14*
X71675000Y-111125000D03*
D17*
X60245000Y-111125000D03*
D14*
X52625000Y-111125000D03*
D17*
X40957500Y-111125000D03*
D14*
X33337500Y-111125000D03*
D17*
X250745000Y-92075000D03*
D14*
X243125000Y-92075000D03*
D17*
X231457500Y-92075000D03*
D14*
X223837500Y-92075000D03*
D17*
X212645000Y-92075000D03*
D14*
X205025000Y-92075000D03*
D17*
X193357500Y-92075000D03*
D14*
X185737500Y-92075000D03*
D17*
X174070000Y-92075000D03*
D14*
X166450000Y-92075000D03*
D17*
X155495000Y-92075000D03*
D14*
X147875000Y-92075000D03*
D17*
X135970000Y-92075000D03*
D14*
X128350000Y-92075000D03*
D17*
X117157500Y-92075000D03*
D14*
X109537500Y-92075000D03*
D17*
X98345000Y-92075000D03*
D14*
X90725000Y-92075000D03*
D17*
X79057500Y-92075000D03*
D14*
X71437500Y-92075000D03*
D17*
X60245000Y-92075000D03*
D14*
X52625000Y-92075000D03*
D17*
X41195000Y-92075000D03*
D14*
X33575000Y-92075000D03*
D17*
X250745000Y-73025000D03*
D14*
X243125000Y-73025000D03*
D17*
X231457500Y-73025000D03*
D14*
X223837500Y-73025000D03*
D17*
X212645000Y-73025000D03*
D14*
X205025000Y-73025000D03*
D17*
X193595000Y-73025000D03*
D14*
X185975000Y-73025000D03*
D17*
X174545000Y-73025000D03*
D14*
X166925000Y-73025000D03*
D17*
X155495000Y-73025000D03*
D14*
X147875000Y-73025000D03*
D17*
X136207500Y-73025000D03*
D14*
X128587500Y-73025000D03*
D17*
X117395000Y-73025000D03*
D14*
X109775000Y-73025000D03*
D17*
X98107500Y-73025000D03*
D14*
X90487500Y-73025000D03*
D17*
X79057500Y-73025000D03*
D14*
X71437500Y-73025000D03*
D17*
X60007500Y-73025000D03*
D14*
X52387500Y-73025000D03*
D17*
X41275000Y-73025000D03*
D14*
X33655000Y-73025000D03*
D17*
X250507500Y-53975000D03*
D14*
X242887500Y-53975000D03*
D17*
X231775000Y-53975000D03*
D14*
X224155000Y-53975000D03*
D17*
X212407500Y-53975000D03*
D14*
X204787500Y-53975000D03*
D15*
X137636250Y-63500000D03*
X127476250Y-63500000D03*
D16*
X132556250Y-63500000D03*
D15*
X42386250Y-63500000D03*
X32226250Y-63500000D03*
D16*
X37306250Y-63500000D03*
D15*
X251936250Y-63500000D03*
X241776250Y-63500000D03*
D16*
X246856250Y-63500000D03*
D15*
X99536250Y-82550000D03*
X89376250Y-82550000D03*
D16*
X94456250Y-82550000D03*
D15*
X61436250Y-101600000D03*
X51276250Y-101600000D03*
D16*
X56356250Y-101600000D03*
D15*
X80486250Y-101600000D03*
X70326250Y-101600000D03*
D16*
X75406250Y-101600000D03*
D15*
X118586250Y-101600000D03*
X108426250Y-101600000D03*
D16*
X113506250Y-101600000D03*
X154019250Y-112395000D03*
X130143250Y-112395000D03*
D18*
X154019250Y-127635000D03*
X130143250Y-127635000D03*
D15*
X147161250Y-120650000D03*
X137001250Y-120650000D03*
D16*
X142081250Y-120650000D03*
D15*
X42386250Y-101600000D03*
X32226250Y-101600000D03*
D16*
X37306250Y-101600000D03*
D15*
X213836250Y-101600000D03*
X203676250Y-101600000D03*
D16*
X208756250Y-101600000D03*
D15*
X175736250Y-101600000D03*
X165576250Y-101600000D03*
D16*
X170656250Y-101600000D03*
D15*
X194786250Y-101600000D03*
X184626250Y-101600000D03*
D16*
X189706250Y-101600000D03*
D15*
X99536250Y-101600000D03*
X89376250Y-101600000D03*
D16*
X94456250Y-101600000D03*
D15*
X156686250Y-63500000D03*
X146526250Y-63500000D03*
D16*
X151606250Y-63500000D03*
D15*
X61436250Y-120650000D03*
X51276250Y-120650000D03*
D16*
X56356250Y-120650000D03*
D15*
X80486250Y-63500000D03*
X70326250Y-63500000D03*
D16*
X75406250Y-63500000D03*
D15*
X232886250Y-101600000D03*
X222726250Y-101600000D03*
D16*
X227806250Y-101600000D03*
D15*
X175736250Y-63500000D03*
X165576250Y-63500000D03*
D16*
X170656250Y-63500000D03*
D15*
X42386250Y-82550000D03*
X32226250Y-82550000D03*
D16*
X37306250Y-82550000D03*
D15*
X251936250Y-101600000D03*
X241776250Y-101600000D03*
D16*
X246856250Y-101600000D03*
D15*
X232886250Y-82550000D03*
X222726250Y-82550000D03*
D16*
X227806250Y-82550000D03*
D15*
X80486250Y-82550000D03*
X70326250Y-82550000D03*
D16*
X75406250Y-82550000D03*
D15*
X251936250Y-120650000D03*
X241776250Y-120650000D03*
D16*
X246856250Y-120650000D03*
D15*
X194786250Y-120650000D03*
X184626250Y-120650000D03*
D16*
X189706250Y-120650000D03*
D15*
X118586250Y-63500000D03*
X108426250Y-63500000D03*
D16*
X113506250Y-63500000D03*
D15*
X61436250Y-63500000D03*
X51276250Y-63500000D03*
D16*
X56356250Y-63500000D03*
D15*
X232886250Y-63500000D03*
X222726250Y-63500000D03*
D16*
X227806250Y-63500000D03*
D15*
X213836250Y-63500000D03*
X203676250Y-63500000D03*
D16*
X208756250Y-63500000D03*
D15*
X213836250Y-120650000D03*
X203676250Y-120650000D03*
D16*
X208756250Y-120650000D03*
D15*
X175736250Y-120650000D03*
X165576250Y-120650000D03*
D16*
X170656250Y-120650000D03*
D15*
X118586250Y-120650000D03*
X108426250Y-120650000D03*
D16*
X113506250Y-120650000D03*
D15*
X213836250Y-82550000D03*
X203676250Y-82550000D03*
D16*
X208756250Y-82550000D03*
D15*
X194786250Y-82550000D03*
X184626250Y-82550000D03*
D16*
X189706250Y-82550000D03*
D15*
X175736250Y-82550000D03*
X165576250Y-82550000D03*
D16*
X170656250Y-82550000D03*
D15*
X194786250Y-63500000D03*
X184626250Y-63500000D03*
D16*
X189706250Y-63500000D03*
D15*
X156686250Y-82550000D03*
X146526250Y-82550000D03*
D16*
X151606250Y-82550000D03*
D15*
X137636250Y-82550000D03*
X127476250Y-82550000D03*
D16*
X132556250Y-82550000D03*
D15*
X99536250Y-120650000D03*
X89376250Y-120650000D03*
D16*
X94456250Y-120650000D03*
D15*
X251936250Y-82550000D03*
X241776250Y-82550000D03*
D16*
X246856250Y-82550000D03*
D15*
X99536250Y-63500000D03*
X89376250Y-63500000D03*
D16*
X94456250Y-63500000D03*
D15*
X232886250Y-120650000D03*
X222726250Y-120650000D03*
D16*
X227806250Y-120650000D03*
D15*
X80486250Y-120650000D03*
X70326250Y-120650000D03*
D16*
X75406250Y-120650000D03*
D15*
X61436250Y-82550000D03*
X51276250Y-82550000D03*
D16*
X56356250Y-82550000D03*
M02*
