G04 #@! TF.GenerationSoftware,KiCad,Pcbnew,(5.1.10)-1*
G04 #@! TF.CreationDate,2022-01-10T13:39:26-05:00*
G04 #@! TF.ProjectId,40 plate,34302520-706c-4617-9465-2e6b69636164,rev?*
G04 #@! TF.SameCoordinates,Original*
G04 #@! TF.FileFunction,Soldermask,Top*
G04 #@! TF.FilePolarity,Negative*
%FSLAX46Y46*%
G04 Gerber Fmt 4.6, Leading zero omitted, Abs format (unit mm)*
G04 Created by KiCad (PCBNEW (5.1.10)-1) date 2022-01-10 13:39:26*
%MOMM*%
%LPD*%
G01*
G04 APERTURE LIST*
%ADD10O,0.300000X1.050000*%
%ADD11O,1.250000X0.300000*%
%ADD12O,0.300000X12.800000*%
%ADD13O,14.000000X0.300000*%
%ADD14O,0.304800X1.219200*%
%ADD15O,3.048000X0.304800*%
%ADD16O,33.050000X0.300000*%
G04 APERTURE END LIST*
D10*
X67175000Y-127275000D03*
D11*
X67650000Y-126900000D03*
X67650000Y-114400000D03*
D10*
X67175000Y-114025000D03*
X53475000Y-114025000D03*
D11*
X53000000Y-114400000D03*
X53000000Y-126900000D03*
D10*
X53475000Y-127275000D03*
D12*
X68125000Y-120650000D03*
X52525000Y-120650000D03*
D13*
X60325000Y-127650000D03*
X60325000Y-113650000D03*
D10*
X86225000Y-108225000D03*
D11*
X86700000Y-107850000D03*
X86700000Y-95350000D03*
D10*
X86225000Y-94975000D03*
X72525000Y-94975000D03*
D11*
X72050000Y-95350000D03*
X72050000Y-107850000D03*
D10*
X72525000Y-108225000D03*
D12*
X87175000Y-101600000D03*
X71575000Y-101600000D03*
D13*
X79375000Y-108600000D03*
X79375000Y-94600000D03*
D10*
X48125000Y-108225000D03*
D11*
X48600000Y-107850000D03*
X48600000Y-95350000D03*
D10*
X48125000Y-94975000D03*
X34425000Y-94975000D03*
D11*
X33950000Y-95350000D03*
X33950000Y-107850000D03*
D10*
X34425000Y-108225000D03*
D12*
X49075000Y-101600000D03*
X33475000Y-101600000D03*
D13*
X41275000Y-108600000D03*
X41275000Y-94600000D03*
D10*
X86225000Y-127275000D03*
D11*
X86700000Y-126900000D03*
X86700000Y-114400000D03*
D10*
X86225000Y-114025000D03*
X72525000Y-114025000D03*
D11*
X72050000Y-114400000D03*
X72050000Y-126900000D03*
D10*
X72525000Y-127275000D03*
D12*
X87175000Y-120650000D03*
X71575000Y-120650000D03*
D13*
X79375000Y-127650000D03*
X79375000Y-113650000D03*
D10*
X67175000Y-108225000D03*
D11*
X67650000Y-107850000D03*
X67650000Y-95350000D03*
D10*
X67175000Y-94975000D03*
X53475000Y-94975000D03*
D11*
X53000000Y-95350000D03*
X53000000Y-107850000D03*
D10*
X53475000Y-108225000D03*
D12*
X68125000Y-101600000D03*
X52525000Y-101600000D03*
D13*
X60325000Y-108600000D03*
X60325000Y-94600000D03*
D10*
X105275000Y-108225000D03*
D11*
X105750000Y-107850000D03*
X105750000Y-95350000D03*
D10*
X105275000Y-94975000D03*
X91575000Y-94975000D03*
D11*
X91100000Y-95350000D03*
X91100000Y-107850000D03*
D10*
X91575000Y-108225000D03*
D12*
X106225000Y-101600000D03*
X90625000Y-101600000D03*
D13*
X98425000Y-108600000D03*
X98425000Y-94600000D03*
D10*
X48125000Y-127275000D03*
D11*
X48600000Y-126900000D03*
X48600000Y-114400000D03*
D10*
X48125000Y-114025000D03*
X34425000Y-114025000D03*
D11*
X33950000Y-114400000D03*
X33950000Y-126900000D03*
D10*
X34425000Y-127275000D03*
D12*
X49075000Y-120650000D03*
X33475000Y-120650000D03*
D13*
X41275000Y-127650000D03*
X41275000Y-113650000D03*
D10*
X105275000Y-127275000D03*
D11*
X105750000Y-126900000D03*
X105750000Y-114400000D03*
D10*
X105275000Y-114025000D03*
X91575000Y-114025000D03*
D11*
X91100000Y-114400000D03*
X91100000Y-126900000D03*
D10*
X91575000Y-127275000D03*
D12*
X106225000Y-120650000D03*
X90625000Y-120650000D03*
D13*
X98425000Y-127650000D03*
X98425000Y-113650000D03*
X212700000Y-113625000D03*
X212700000Y-127625000D03*
D12*
X204900000Y-120625000D03*
X220500000Y-120625000D03*
D10*
X205850000Y-127250000D03*
D11*
X205375000Y-126875000D03*
X205375000Y-114375000D03*
D10*
X205850000Y-114000000D03*
X219550000Y-114000000D03*
D11*
X220025000Y-114375000D03*
X220025000Y-126875000D03*
D10*
X219550000Y-127250000D03*
D13*
X231750000Y-94575000D03*
X231750000Y-108575000D03*
D12*
X223950000Y-101575000D03*
X239550000Y-101575000D03*
D10*
X224900000Y-108200000D03*
D11*
X224425000Y-107825000D03*
X224425000Y-95325000D03*
D10*
X224900000Y-94950000D03*
X238600000Y-94950000D03*
D11*
X239075000Y-95325000D03*
X239075000Y-107825000D03*
D10*
X238600000Y-108200000D03*
D13*
X250800000Y-113625000D03*
X250800000Y-127625000D03*
D12*
X243000000Y-120625000D03*
X258600000Y-120625000D03*
D10*
X243950000Y-127250000D03*
D11*
X243475000Y-126875000D03*
X243475000Y-114375000D03*
D10*
X243950000Y-114000000D03*
X257650000Y-114000000D03*
D11*
X258125000Y-114375000D03*
X258125000Y-126875000D03*
D10*
X257650000Y-127250000D03*
D13*
X193650000Y-94575000D03*
X193650000Y-108575000D03*
D12*
X185850000Y-101575000D03*
X201450000Y-101575000D03*
D10*
X186800000Y-108200000D03*
D11*
X186325000Y-107825000D03*
X186325000Y-95325000D03*
D10*
X186800000Y-94950000D03*
X200500000Y-94950000D03*
D11*
X200975000Y-95325000D03*
X200975000Y-107825000D03*
D10*
X200500000Y-108200000D03*
D13*
X231750000Y-113625000D03*
X231750000Y-127625000D03*
D12*
X223950000Y-120625000D03*
X239550000Y-120625000D03*
D10*
X224900000Y-127250000D03*
D11*
X224425000Y-126875000D03*
X224425000Y-114375000D03*
D10*
X224900000Y-114000000D03*
X238600000Y-114000000D03*
D11*
X239075000Y-114375000D03*
X239075000Y-126875000D03*
D10*
X238600000Y-127250000D03*
D13*
X212700000Y-94575000D03*
X212700000Y-108575000D03*
D12*
X204900000Y-101575000D03*
X220500000Y-101575000D03*
D10*
X205850000Y-108200000D03*
D11*
X205375000Y-107825000D03*
X205375000Y-95325000D03*
D10*
X205850000Y-94950000D03*
X219550000Y-94950000D03*
D11*
X220025000Y-95325000D03*
X220025000Y-107825000D03*
D10*
X219550000Y-108200000D03*
D13*
X250800000Y-94575000D03*
X250800000Y-108575000D03*
D12*
X243000000Y-101575000D03*
X258600000Y-101575000D03*
D10*
X243950000Y-108200000D03*
D11*
X243475000Y-107825000D03*
X243475000Y-95325000D03*
D10*
X243950000Y-94950000D03*
X257650000Y-94950000D03*
D11*
X258125000Y-95325000D03*
X258125000Y-107825000D03*
D10*
X257650000Y-108200000D03*
D13*
X193650000Y-113625000D03*
X193650000Y-127625000D03*
D12*
X185850000Y-120625000D03*
X201450000Y-120625000D03*
D10*
X186800000Y-127250000D03*
D11*
X186325000Y-126875000D03*
X186325000Y-114375000D03*
D10*
X186800000Y-114000000D03*
X200500000Y-114000000D03*
D11*
X200975000Y-114375000D03*
X200975000Y-126875000D03*
D10*
X200500000Y-127250000D03*
D13*
X155550000Y-94575000D03*
X155550000Y-108575000D03*
D12*
X147750000Y-101575000D03*
X163350000Y-101575000D03*
D10*
X148700000Y-108200000D03*
D11*
X148225000Y-107825000D03*
X148225000Y-95325000D03*
D10*
X148700000Y-94950000D03*
X162400000Y-94950000D03*
D11*
X162875000Y-95325000D03*
X162875000Y-107825000D03*
D10*
X162400000Y-108200000D03*
D13*
X136500000Y-94575000D03*
X136500000Y-108575000D03*
D12*
X128700000Y-101575000D03*
X144300000Y-101575000D03*
D10*
X129650000Y-108200000D03*
D11*
X129175000Y-107825000D03*
X129175000Y-95325000D03*
D10*
X129650000Y-94950000D03*
X143350000Y-94950000D03*
D11*
X143825000Y-95325000D03*
X143825000Y-107825000D03*
D10*
X143350000Y-108200000D03*
D13*
X117450000Y-113625000D03*
X117450000Y-127625000D03*
D12*
X109650000Y-120625000D03*
X125250000Y-120625000D03*
D10*
X110600000Y-127250000D03*
D11*
X110125000Y-126875000D03*
X110125000Y-114375000D03*
D10*
X110600000Y-114000000D03*
X124300000Y-114000000D03*
D11*
X124775000Y-114375000D03*
X124775000Y-126875000D03*
D10*
X124300000Y-127250000D03*
D13*
X174600000Y-94575000D03*
X174600000Y-108575000D03*
D12*
X166800000Y-101575000D03*
X182400000Y-101575000D03*
D10*
X167750000Y-108200000D03*
D11*
X167275000Y-107825000D03*
X167275000Y-95325000D03*
D10*
X167750000Y-94950000D03*
X181450000Y-94950000D03*
D11*
X181925000Y-95325000D03*
X181925000Y-107825000D03*
D10*
X181450000Y-108200000D03*
D13*
X117450000Y-94575000D03*
X117450000Y-108575000D03*
D12*
X109650000Y-101575000D03*
X125250000Y-101575000D03*
D10*
X110600000Y-108200000D03*
D11*
X110125000Y-107825000D03*
X110125000Y-95325000D03*
D10*
X110600000Y-94950000D03*
X124300000Y-94950000D03*
D11*
X124775000Y-95325000D03*
X124775000Y-107825000D03*
D10*
X124300000Y-108200000D03*
D13*
X174600000Y-113625000D03*
X174600000Y-127625000D03*
D12*
X166800000Y-120625000D03*
X182400000Y-120625000D03*
D10*
X167750000Y-127250000D03*
D11*
X167275000Y-126875000D03*
X167275000Y-114375000D03*
D10*
X167750000Y-114000000D03*
X181450000Y-114000000D03*
D11*
X181925000Y-114375000D03*
X181925000Y-126875000D03*
D10*
X181450000Y-127250000D03*
X219550000Y-89150000D03*
D11*
X220025000Y-88775000D03*
X220025000Y-76275000D03*
D10*
X219550000Y-75900000D03*
X205850000Y-75900000D03*
D11*
X205375000Y-76275000D03*
X205375000Y-88775000D03*
D10*
X205850000Y-89150000D03*
D12*
X220500000Y-82525000D03*
X204900000Y-82525000D03*
D13*
X212700000Y-89525000D03*
X212700000Y-75525000D03*
D10*
X238600000Y-70100000D03*
D11*
X239075000Y-69725000D03*
X239075000Y-57225000D03*
D10*
X238600000Y-56850000D03*
X224900000Y-56850000D03*
D11*
X224425000Y-57225000D03*
X224425000Y-69725000D03*
D10*
X224900000Y-70100000D03*
D12*
X239550000Y-63475000D03*
X223950000Y-63475000D03*
D13*
X231750000Y-70475000D03*
X231750000Y-56475000D03*
D10*
X200500000Y-70100000D03*
D11*
X200975000Y-69725000D03*
X200975000Y-57225000D03*
D10*
X200500000Y-56850000D03*
X186800000Y-56850000D03*
D11*
X186325000Y-57225000D03*
X186325000Y-69725000D03*
D10*
X186800000Y-70100000D03*
D12*
X201450000Y-63475000D03*
X185850000Y-63475000D03*
D13*
X193650000Y-70475000D03*
X193650000Y-56475000D03*
D10*
X238600000Y-89150000D03*
D11*
X239075000Y-88775000D03*
X239075000Y-76275000D03*
D10*
X238600000Y-75900000D03*
X224900000Y-75900000D03*
D11*
X224425000Y-76275000D03*
X224425000Y-88775000D03*
D10*
X224900000Y-89150000D03*
D12*
X239550000Y-82525000D03*
X223950000Y-82525000D03*
D13*
X231750000Y-89525000D03*
X231750000Y-75525000D03*
D10*
X219550000Y-70100000D03*
D11*
X220025000Y-69725000D03*
X220025000Y-57225000D03*
D10*
X219550000Y-56850000D03*
X205850000Y-56850000D03*
D11*
X205375000Y-57225000D03*
X205375000Y-69725000D03*
D10*
X205850000Y-70100000D03*
D12*
X220500000Y-63475000D03*
X204900000Y-63475000D03*
D13*
X212700000Y-70475000D03*
X212700000Y-56475000D03*
D10*
X257650000Y-70100000D03*
D11*
X258125000Y-69725000D03*
X258125000Y-57225000D03*
D10*
X257650000Y-56850000D03*
X243950000Y-56850000D03*
D11*
X243475000Y-57225000D03*
X243475000Y-69725000D03*
D10*
X243950000Y-70100000D03*
D12*
X258600000Y-63475000D03*
X243000000Y-63475000D03*
D13*
X250800000Y-70475000D03*
X250800000Y-56475000D03*
D10*
X200500000Y-89150000D03*
D11*
X200975000Y-88775000D03*
X200975000Y-76275000D03*
D10*
X200500000Y-75900000D03*
X186800000Y-75900000D03*
D11*
X186325000Y-76275000D03*
X186325000Y-88775000D03*
D10*
X186800000Y-89150000D03*
D12*
X201450000Y-82525000D03*
X185850000Y-82525000D03*
D13*
X193650000Y-89525000D03*
X193650000Y-75525000D03*
D10*
X257650000Y-89150000D03*
D11*
X258125000Y-88775000D03*
X258125000Y-76275000D03*
D10*
X257650000Y-75900000D03*
X243950000Y-75900000D03*
D11*
X243475000Y-76275000D03*
X243475000Y-88775000D03*
D10*
X243950000Y-89150000D03*
D12*
X258600000Y-82525000D03*
X243000000Y-82525000D03*
D13*
X250800000Y-89525000D03*
X250800000Y-75525000D03*
D10*
X143350000Y-89150000D03*
D11*
X143825000Y-88775000D03*
X143825000Y-76275000D03*
D10*
X143350000Y-75900000D03*
X129650000Y-75900000D03*
D11*
X129175000Y-76275000D03*
X129175000Y-88775000D03*
D10*
X129650000Y-89150000D03*
D12*
X144300000Y-82525000D03*
X128700000Y-82525000D03*
D13*
X136500000Y-89525000D03*
X136500000Y-75525000D03*
D10*
X162400000Y-70100000D03*
D11*
X162875000Y-69725000D03*
X162875000Y-57225000D03*
D10*
X162400000Y-56850000D03*
X148700000Y-56850000D03*
D11*
X148225000Y-57225000D03*
X148225000Y-69725000D03*
D10*
X148700000Y-70100000D03*
D12*
X163350000Y-63475000D03*
X147750000Y-63475000D03*
D13*
X155550000Y-70475000D03*
X155550000Y-56475000D03*
D10*
X124300000Y-70100000D03*
D11*
X124775000Y-69725000D03*
X124775000Y-57225000D03*
D10*
X124300000Y-56850000D03*
X110600000Y-56850000D03*
D11*
X110125000Y-57225000D03*
X110125000Y-69725000D03*
D10*
X110600000Y-70100000D03*
D12*
X125250000Y-63475000D03*
X109650000Y-63475000D03*
D13*
X117450000Y-70475000D03*
X117450000Y-56475000D03*
D10*
X162400000Y-89150000D03*
D11*
X162875000Y-88775000D03*
X162875000Y-76275000D03*
D10*
X162400000Y-75900000D03*
X148700000Y-75900000D03*
D11*
X148225000Y-76275000D03*
X148225000Y-88775000D03*
D10*
X148700000Y-89150000D03*
D12*
X163350000Y-82525000D03*
X147750000Y-82525000D03*
D13*
X155550000Y-89525000D03*
X155550000Y-75525000D03*
D10*
X143350000Y-70100000D03*
D11*
X143825000Y-69725000D03*
X143825000Y-57225000D03*
D10*
X143350000Y-56850000D03*
X129650000Y-56850000D03*
D11*
X129175000Y-57225000D03*
X129175000Y-69725000D03*
D10*
X129650000Y-70100000D03*
D12*
X144300000Y-63475000D03*
X128700000Y-63475000D03*
D13*
X136500000Y-70475000D03*
X136500000Y-56475000D03*
D10*
X181450000Y-70100000D03*
D11*
X181925000Y-69725000D03*
X181925000Y-57225000D03*
D10*
X181450000Y-56850000D03*
X167750000Y-56850000D03*
D11*
X167275000Y-57225000D03*
X167275000Y-69725000D03*
D10*
X167750000Y-70100000D03*
D12*
X182400000Y-63475000D03*
X166800000Y-63475000D03*
D13*
X174600000Y-70475000D03*
X174600000Y-56475000D03*
D10*
X124300000Y-89150000D03*
D11*
X124775000Y-88775000D03*
X124775000Y-76275000D03*
D10*
X124300000Y-75900000D03*
X110600000Y-75900000D03*
D11*
X110125000Y-76275000D03*
X110125000Y-88775000D03*
D10*
X110600000Y-89150000D03*
D12*
X125250000Y-82525000D03*
X109650000Y-82525000D03*
D13*
X117450000Y-89525000D03*
X117450000Y-75525000D03*
D10*
X181450000Y-89150000D03*
D11*
X181925000Y-88775000D03*
X181925000Y-76275000D03*
D10*
X181450000Y-75900000D03*
X167750000Y-75900000D03*
D11*
X167275000Y-76275000D03*
X167275000Y-88775000D03*
D10*
X167750000Y-89150000D03*
D12*
X182400000Y-82525000D03*
X166800000Y-82525000D03*
D13*
X174600000Y-89525000D03*
X174600000Y-75525000D03*
D14*
X135483600Y-128115200D03*
X132740400Y-128115200D03*
X156616400Y-128115200D03*
D10*
X129675000Y-127275000D03*
D15*
X157988000Y-128572400D03*
X134112000Y-128572400D03*
D16*
X146050000Y-113650000D03*
D11*
X162900000Y-114400000D03*
X162900000Y-126900000D03*
D10*
X162425000Y-127275000D03*
X162425000Y-114025000D03*
D12*
X163375000Y-120650000D03*
D16*
X146050000Y-127650000D03*
D12*
X128725000Y-120650000D03*
D14*
X159359600Y-128115200D03*
D11*
X129200000Y-126900000D03*
X129200000Y-114400000D03*
D10*
X129675000Y-114025000D03*
D13*
X98425000Y-75550000D03*
X98425000Y-89550000D03*
D12*
X90625000Y-82550000D03*
X106225000Y-82550000D03*
D10*
X91575000Y-89175000D03*
D11*
X91100000Y-88800000D03*
X91100000Y-76300000D03*
D10*
X91575000Y-75925000D03*
X105275000Y-75925000D03*
D11*
X105750000Y-76300000D03*
X105750000Y-88800000D03*
D10*
X105275000Y-89175000D03*
D13*
X41275000Y-75550000D03*
X41275000Y-89550000D03*
D12*
X33475000Y-82550000D03*
X49075000Y-82550000D03*
D10*
X34425000Y-89175000D03*
D11*
X33950000Y-88800000D03*
X33950000Y-76300000D03*
D10*
X34425000Y-75925000D03*
X48125000Y-75925000D03*
D11*
X48600000Y-76300000D03*
X48600000Y-88800000D03*
D10*
X48125000Y-89175000D03*
D13*
X98425000Y-56500000D03*
X98425000Y-70500000D03*
D12*
X90625000Y-63500000D03*
X106225000Y-63500000D03*
D10*
X91575000Y-70125000D03*
D11*
X91100000Y-69750000D03*
X91100000Y-57250000D03*
D10*
X91575000Y-56875000D03*
X105275000Y-56875000D03*
D11*
X105750000Y-57250000D03*
X105750000Y-69750000D03*
D10*
X105275000Y-70125000D03*
D13*
X60325000Y-56500000D03*
X60325000Y-70500000D03*
D12*
X52525000Y-63500000D03*
X68125000Y-63500000D03*
D10*
X53475000Y-70125000D03*
D11*
X53000000Y-69750000D03*
X53000000Y-57250000D03*
D10*
X53475000Y-56875000D03*
X67175000Y-56875000D03*
D11*
X67650000Y-57250000D03*
X67650000Y-69750000D03*
D10*
X67175000Y-70125000D03*
D13*
X79375000Y-56500000D03*
X79375000Y-70500000D03*
D12*
X71575000Y-63500000D03*
X87175000Y-63500000D03*
D10*
X72525000Y-70125000D03*
D11*
X72050000Y-69750000D03*
X72050000Y-57250000D03*
D10*
X72525000Y-56875000D03*
X86225000Y-56875000D03*
D11*
X86700000Y-57250000D03*
X86700000Y-69750000D03*
D10*
X86225000Y-70125000D03*
D13*
X60325000Y-75550000D03*
X60325000Y-89550000D03*
D12*
X52525000Y-82550000D03*
X68125000Y-82550000D03*
D10*
X53475000Y-89175000D03*
D11*
X53000000Y-88800000D03*
X53000000Y-76300000D03*
D10*
X53475000Y-75925000D03*
X67175000Y-75925000D03*
D11*
X67650000Y-76300000D03*
X67650000Y-88800000D03*
D10*
X67175000Y-89175000D03*
D13*
X41275000Y-56500000D03*
X41275000Y-70500000D03*
D12*
X33475000Y-63500000D03*
X49075000Y-63500000D03*
D10*
X34425000Y-70125000D03*
D11*
X33950000Y-69750000D03*
X33950000Y-57250000D03*
D10*
X34425000Y-56875000D03*
X48125000Y-56875000D03*
D11*
X48600000Y-57250000D03*
X48600000Y-69750000D03*
D10*
X48125000Y-70125000D03*
D13*
X79375000Y-75550000D03*
X79375000Y-89550000D03*
D12*
X71575000Y-82550000D03*
X87175000Y-82550000D03*
D10*
X72525000Y-89175000D03*
D11*
X72050000Y-88800000D03*
X72050000Y-76300000D03*
D10*
X72525000Y-75925000D03*
X86225000Y-75925000D03*
D11*
X86700000Y-76300000D03*
X86700000Y-88800000D03*
D10*
X86225000Y-89175000D03*
M02*
