M48
; DRILL file {KiCad (5.1.10)-1} date 01/10/22 13:39:33
; FORMAT={-:-/ absolute / metric / decimal}
; #@! TF.CreationDate,2022-01-10T13:39:33-05:00
; #@! TF.GenerationSoftware,Kicad,Pcbnew,(5.1.10)-1
; #@! TF.FileFunction,NonPlated,1,2,NPTH
FMAT,2
METRIC
T1C0.300
T2C0.305
%
G90
G05
T1
X33.475Y-57.25G85X33.475Y-69.75
G05
X33.475Y-76.3G85X33.475Y-88.8
G05
X33.475Y-95.35G85X33.475Y-107.85
G05
X33.475Y-114.4G85X33.475Y-126.9
G05
X33.475Y-57.25G85X34.425Y-57.25
G05
X33.475Y-69.75G85X34.425Y-69.75
G05
X33.475Y-76.3G85X34.425Y-76.3
G05
X33.475Y-88.8G85X34.425Y-88.8
G05
X33.475Y-95.35G85X34.425Y-95.35
G05
X33.475Y-107.85G85X34.425Y-107.85
G05
X33.475Y-114.4G85X34.425Y-114.4
G05
X33.475Y-126.9G85X34.425Y-126.9
G05
X34.425Y-56.5G85X34.425Y-57.25
G05
X34.425Y-69.75G85X34.425Y-70.5
G05
X34.425Y-75.55G85X34.425Y-76.3
G05
X34.425Y-88.8G85X34.425Y-89.55
G05
X34.425Y-94.6G85X34.425Y-95.35
G05
X34.425Y-107.85G85X34.425Y-108.6
G05
X34.425Y-113.65G85X34.425Y-114.4
G05
X34.425Y-126.9G85X34.425Y-127.65
G05
X34.425Y-56.5G85X48.125Y-56.5
G05
X34.425Y-70.5G85X48.125Y-70.5
G05
X34.425Y-75.55G85X48.125Y-75.55
G05
X34.425Y-89.55G85X48.125Y-89.55
G05
X34.425Y-94.6G85X48.125Y-94.6
G05
X34.425Y-108.6G85X48.125Y-108.6
G05
X34.425Y-113.65G85X48.125Y-113.65
G05
X34.425Y-127.65G85X48.125Y-127.65
G05
X48.125Y-56.5G85X48.125Y-57.25
G05
X48.125Y-69.75G85X48.125Y-70.5
G05
X48.125Y-75.55G85X48.125Y-76.3
G05
X48.125Y-88.8G85X48.125Y-89.55
G05
X48.125Y-94.6G85X48.125Y-95.35
G05
X48.125Y-107.85G85X48.125Y-108.6
G05
X48.125Y-113.65G85X48.125Y-114.4
G05
X48.125Y-126.9G85X48.125Y-127.65
G05
X48.125Y-57.25G85X49.075Y-57.25
G05
X48.125Y-69.75G85X49.075Y-69.75
G05
X48.125Y-76.3G85X49.075Y-76.3
G05
X48.125Y-88.8G85X49.075Y-88.8
G05
X48.125Y-95.35G85X49.075Y-95.35
G05
X48.125Y-107.85G85X49.075Y-107.85
G05
X48.125Y-114.4G85X49.075Y-114.4
G05
X48.125Y-126.9G85X49.075Y-126.9
G05
X49.075Y-57.25G85X49.075Y-69.75
G05
X49.075Y-76.3G85X49.075Y-88.8
G05
X49.075Y-95.35G85X49.075Y-107.85
G05
X49.075Y-114.4G85X49.075Y-126.9
G05
X52.525Y-57.25G85X52.525Y-69.75
G05
X52.525Y-76.3G85X52.525Y-88.8
G05
X52.525Y-95.35G85X52.525Y-107.85
G05
X52.525Y-114.4G85X52.525Y-126.9
G05
X52.525Y-57.25G85X53.475Y-57.25
G05
X52.525Y-69.75G85X53.475Y-69.75
G05
X52.525Y-76.3G85X53.475Y-76.3
G05
X52.525Y-88.8G85X53.475Y-88.8
G05
X52.525Y-95.35G85X53.475Y-95.35
G05
X52.525Y-107.85G85X53.475Y-107.85
G05
X52.525Y-114.4G85X53.475Y-114.4
G05
X52.525Y-126.9G85X53.475Y-126.9
G05
X53.475Y-56.5G85X53.475Y-57.25
G05
X53.475Y-69.75G85X53.475Y-70.5
G05
X53.475Y-75.55G85X53.475Y-76.3
G05
X53.475Y-88.8G85X53.475Y-89.55
G05
X53.475Y-94.6G85X53.475Y-95.35
G05
X53.475Y-107.85G85X53.475Y-108.6
G05
X53.475Y-113.65G85X53.475Y-114.4
G05
X53.475Y-126.9G85X53.475Y-127.65
G05
X53.475Y-56.5G85X67.175Y-56.5
G05
X53.475Y-70.5G85X67.175Y-70.5
G05
X53.475Y-75.55G85X67.175Y-75.55
G05
X53.475Y-89.55G85X67.175Y-89.55
G05
X53.475Y-94.6G85X67.175Y-94.6
G05
X53.475Y-108.6G85X67.175Y-108.6
G05
X53.475Y-113.65G85X67.175Y-113.65
G05
X53.475Y-127.65G85X67.175Y-127.65
G05
X67.175Y-56.5G85X67.175Y-57.25
G05
X67.175Y-69.75G85X67.175Y-70.5
G05
X67.175Y-75.55G85X67.175Y-76.3
G05
X67.175Y-88.8G85X67.175Y-89.55
G05
X67.175Y-94.6G85X67.175Y-95.35
G05
X67.175Y-107.85G85X67.175Y-108.6
G05
X67.175Y-113.65G85X67.175Y-114.4
G05
X67.175Y-126.9G85X67.175Y-127.65
G05
X67.175Y-57.25G85X68.125Y-57.25
G05
X67.175Y-69.75G85X68.125Y-69.75
G05
X67.175Y-76.3G85X68.125Y-76.3
G05
X67.175Y-88.8G85X68.125Y-88.8
G05
X67.175Y-95.35G85X68.125Y-95.35
G05
X67.175Y-107.85G85X68.125Y-107.85
G05
X67.175Y-114.4G85X68.125Y-114.4
G05
X67.175Y-126.9G85X68.125Y-126.9
G05
X68.125Y-57.25G85X68.125Y-69.75
G05
X68.125Y-76.3G85X68.125Y-88.8
G05
X68.125Y-95.35G85X68.125Y-107.85
G05
X68.125Y-114.4G85X68.125Y-126.9
G05
X71.575Y-57.25G85X71.575Y-69.75
G05
X71.575Y-76.3G85X71.575Y-88.8
G05
X71.575Y-95.35G85X71.575Y-107.85
G05
X71.575Y-114.4G85X71.575Y-126.9
G05
X71.575Y-57.25G85X72.525Y-57.25
G05
X71.575Y-69.75G85X72.525Y-69.75
G05
X71.575Y-76.3G85X72.525Y-76.3
G05
X71.575Y-88.8G85X72.525Y-88.8
G05
X71.575Y-95.35G85X72.525Y-95.35
G05
X71.575Y-107.85G85X72.525Y-107.85
G05
X71.575Y-114.4G85X72.525Y-114.4
G05
X71.575Y-126.9G85X72.525Y-126.9
G05
X72.525Y-56.5G85X72.525Y-57.25
G05
X72.525Y-69.75G85X72.525Y-70.5
G05
X72.525Y-75.55G85X72.525Y-76.3
G05
X72.525Y-88.8G85X72.525Y-89.55
G05
X72.525Y-94.6G85X72.525Y-95.35
G05
X72.525Y-107.85G85X72.525Y-108.6
G05
X72.525Y-113.65G85X72.525Y-114.4
G05
X72.525Y-126.9G85X72.525Y-127.65
G05
X72.525Y-56.5G85X86.225Y-56.5
G05
X72.525Y-70.5G85X86.225Y-70.5
G05
X72.525Y-75.55G85X86.225Y-75.55
G05
X72.525Y-89.55G85X86.225Y-89.55
G05
X72.525Y-94.6G85X86.225Y-94.6
G05
X72.525Y-108.6G85X86.225Y-108.6
G05
X72.525Y-113.65G85X86.225Y-113.65
G05
X72.525Y-127.65G85X86.225Y-127.65
G05
X86.225Y-56.5G85X86.225Y-57.25
G05
X86.225Y-69.75G85X86.225Y-70.5
G05
X86.225Y-75.55G85X86.225Y-76.3
G05
X86.225Y-88.8G85X86.225Y-89.55
G05
X86.225Y-94.6G85X86.225Y-95.35
G05
X86.225Y-107.85G85X86.225Y-108.6
G05
X86.225Y-113.65G85X86.225Y-114.4
G05
X86.225Y-126.9G85X86.225Y-127.65
G05
X86.225Y-57.25G85X87.175Y-57.25
G05
X86.225Y-69.75G85X87.175Y-69.75
G05
X86.225Y-76.3G85X87.175Y-76.3
G05
X86.225Y-88.8G85X87.175Y-88.8
G05
X86.225Y-95.35G85X87.175Y-95.35
G05
X86.225Y-107.85G85X87.175Y-107.85
G05
X86.225Y-114.4G85X87.175Y-114.4
G05
X86.225Y-126.9G85X87.175Y-126.9
G05
X87.175Y-57.25G85X87.175Y-69.75
G05
X87.175Y-76.3G85X87.175Y-88.8
G05
X87.175Y-95.35G85X87.175Y-107.85
G05
X87.175Y-114.4G85X87.175Y-126.9
G05
X90.625Y-57.25G85X90.625Y-69.75
G05
X90.625Y-76.3G85X90.625Y-88.8
G05
X90.625Y-95.35G85X90.625Y-107.85
G05
X90.625Y-114.4G85X90.625Y-126.9
G05
X90.625Y-57.25G85X91.575Y-57.25
G05
X90.625Y-69.75G85X91.575Y-69.75
G05
X90.625Y-76.3G85X91.575Y-76.3
G05
X90.625Y-88.8G85X91.575Y-88.8
G05
X90.625Y-95.35G85X91.575Y-95.35
G05
X90.625Y-107.85G85X91.575Y-107.85
G05
X90.625Y-114.4G85X91.575Y-114.4
G05
X90.625Y-126.9G85X91.575Y-126.9
G05
X91.575Y-56.5G85X91.575Y-57.25
G05
X91.575Y-69.75G85X91.575Y-70.5
G05
X91.575Y-75.55G85X91.575Y-76.3
G05
X91.575Y-88.8G85X91.575Y-89.55
G05
X91.575Y-94.6G85X91.575Y-95.35
G05
X91.575Y-107.85G85X91.575Y-108.6
G05
X91.575Y-113.65G85X91.575Y-114.4
G05
X91.575Y-126.9G85X91.575Y-127.65
G05
X91.575Y-56.5G85X105.275Y-56.5
G05
X91.575Y-70.5G85X105.275Y-70.5
G05
X91.575Y-75.55G85X105.275Y-75.55
G05
X91.575Y-89.55G85X105.275Y-89.55
G05
X91.575Y-94.6G85X105.275Y-94.6
G05
X91.575Y-108.6G85X105.275Y-108.6
G05
X91.575Y-113.65G85X105.275Y-113.65
G05
X91.575Y-127.65G85X105.275Y-127.65
G05
X105.275Y-56.5G85X105.275Y-57.25
G05
X105.275Y-69.75G85X105.275Y-70.5
G05
X105.275Y-75.55G85X105.275Y-76.3
G05
X105.275Y-88.8G85X105.275Y-89.55
G05
X105.275Y-94.6G85X105.275Y-95.35
G05
X105.275Y-107.85G85X105.275Y-108.6
G05
X105.275Y-113.65G85X105.275Y-114.4
G05
X105.275Y-126.9G85X105.275Y-127.65
G05
X105.275Y-57.25G85X106.225Y-57.25
G05
X105.275Y-69.75G85X106.225Y-69.75
G05
X105.275Y-76.3G85X106.225Y-76.3
G05
X105.275Y-88.8G85X106.225Y-88.8
G05
X105.275Y-95.35G85X106.225Y-95.35
G05
X105.275Y-107.85G85X106.225Y-107.85
G05
X105.275Y-114.4G85X106.225Y-114.4
G05
X105.275Y-126.9G85X106.225Y-126.9
G05
X106.225Y-57.25G85X106.225Y-69.75
G05
X106.225Y-76.3G85X106.225Y-88.8
G05
X106.225Y-95.35G85X106.225Y-107.85
G05
X106.225Y-114.4G85X106.225Y-126.9
G05
X109.65Y-57.225G85X109.65Y-69.725
G05
X109.65Y-76.275G85X109.65Y-88.775
G05
X109.65Y-95.325G85X109.65Y-107.825
G05
X109.65Y-114.375G85X109.65Y-126.875
G05
X109.65Y-57.225G85X110.6Y-57.225
G05
X109.65Y-69.725G85X110.6Y-69.725
G05
X109.65Y-76.275G85X110.6Y-76.275
G05
X109.65Y-88.775G85X110.6Y-88.775
G05
X109.65Y-95.325G85X110.6Y-95.325
G05
X109.65Y-107.825G85X110.6Y-107.825
G05
X109.65Y-114.375G85X110.6Y-114.375
G05
X109.65Y-126.875G85X110.6Y-126.875
G05
X110.6Y-56.475G85X110.6Y-57.225
G05
X110.6Y-69.725G85X110.6Y-70.475
G05
X110.6Y-75.525G85X110.6Y-76.275
G05
X110.6Y-88.775G85X110.6Y-89.525
G05
X110.6Y-94.575G85X110.6Y-95.325
G05
X110.6Y-107.825G85X110.6Y-108.575
G05
X110.6Y-113.625G85X110.6Y-114.375
G05
X110.6Y-126.875G85X110.6Y-127.625
G05
X110.6Y-56.475G85X124.3Y-56.475
G05
X110.6Y-70.475G85X124.3Y-70.475
G05
X110.6Y-75.525G85X124.3Y-75.525
G05
X110.6Y-89.525G85X124.3Y-89.525
G05
X110.6Y-94.575G85X124.3Y-94.575
G05
X110.6Y-108.575G85X124.3Y-108.575
G05
X110.6Y-113.625G85X124.3Y-113.625
G05
X110.6Y-127.625G85X124.3Y-127.625
G05
X124.3Y-56.475G85X124.3Y-57.225
G05
X124.3Y-69.725G85X124.3Y-70.475
G05
X124.3Y-75.525G85X124.3Y-76.275
G05
X124.3Y-88.775G85X124.3Y-89.525
G05
X124.3Y-94.575G85X124.3Y-95.325
G05
X124.3Y-107.825G85X124.3Y-108.575
G05
X124.3Y-113.625G85X124.3Y-114.375
G05
X124.3Y-126.875G85X124.3Y-127.625
G05
X124.3Y-57.225G85X125.25Y-57.225
G05
X124.3Y-69.725G85X125.25Y-69.725
G05
X124.3Y-76.275G85X125.25Y-76.275
G05
X124.3Y-88.775G85X125.25Y-88.775
G05
X124.3Y-95.325G85X125.25Y-95.325
G05
X124.3Y-107.825G85X125.25Y-107.825
G05
X124.3Y-114.375G85X125.25Y-114.375
G05
X124.3Y-126.875G85X125.25Y-126.875
G05
X125.25Y-57.225G85X125.25Y-69.725
G05
X125.25Y-76.275G85X125.25Y-88.775
G05
X125.25Y-95.325G85X125.25Y-107.825
G05
X125.25Y-114.375G85X125.25Y-126.875
G05
X128.7Y-57.225G85X128.7Y-69.725
G05
X128.7Y-76.275G85X128.7Y-88.775
G05
X128.7Y-95.325G85X128.7Y-107.825
G05
X128.725Y-114.4G85X128.725Y-126.9
G05
X128.7Y-57.225G85X129.65Y-57.225
G05
X128.7Y-69.725G85X129.65Y-69.725
G05
X128.7Y-76.275G85X129.65Y-76.275
G05
X128.7Y-88.775G85X129.65Y-88.775
G05
X128.7Y-95.325G85X129.65Y-95.325
G05
X128.7Y-107.825G85X129.65Y-107.825
G05
X128.725Y-114.4G85X129.675Y-114.4
G05
X128.725Y-126.9G85X129.675Y-126.9
G05
X129.65Y-56.475G85X129.65Y-57.225
G05
X129.65Y-69.725G85X129.65Y-70.475
G05
X129.65Y-75.525G85X129.65Y-76.275
G05
X129.65Y-88.775G85X129.65Y-89.525
G05
X129.65Y-94.575G85X129.65Y-95.325
G05
X129.65Y-107.825G85X129.65Y-108.575
G05
X129.675Y-113.65G85X129.675Y-114.4
G05
X129.675Y-126.9G85X129.675Y-127.65
G05
X129.65Y-56.475G85X143.35Y-56.475
G05
X129.65Y-70.475G85X143.35Y-70.475
G05
X129.65Y-75.525G85X143.35Y-75.525
G05
X129.65Y-89.525G85X143.35Y-89.525
G05
X129.65Y-94.575G85X143.35Y-94.575
G05
X129.65Y-108.575G85X143.35Y-108.575
G05
X143.35Y-56.475G85X143.35Y-57.225
G05
X143.35Y-69.725G85X143.35Y-70.475
G05
X143.35Y-75.525G85X143.35Y-76.275
G05
X143.35Y-88.775G85X143.35Y-89.525
G05
X143.35Y-94.575G85X143.35Y-95.325
G05
X143.35Y-107.825G85X143.35Y-108.575
G05
X143.35Y-57.225G85X144.3Y-57.225
G05
X143.35Y-69.725G85X144.3Y-69.725
G05
X143.35Y-76.275G85X144.3Y-76.275
G05
X143.35Y-88.775G85X144.3Y-88.775
G05
X143.35Y-95.325G85X144.3Y-95.325
G05
X143.35Y-107.825G85X144.3Y-107.825
G05
X144.3Y-57.225G85X144.3Y-69.725
G05
X144.3Y-76.275G85X144.3Y-88.775
G05
X144.3Y-95.325G85X144.3Y-107.825
G05
X129.675Y-113.65G85X162.425Y-113.65
G05
X129.675Y-127.65G85X162.425Y-127.65
G05
X147.75Y-57.225G85X147.75Y-69.725
G05
X147.75Y-76.275G85X147.75Y-88.775
G05
X147.75Y-95.325G85X147.75Y-107.825
G05
X147.75Y-57.225G85X148.7Y-57.225
G05
X147.75Y-69.725G85X148.7Y-69.725
G05
X147.75Y-76.275G85X148.7Y-76.275
G05
X147.75Y-88.775G85X148.7Y-88.775
G05
X147.75Y-95.325G85X148.7Y-95.325
G05
X147.75Y-107.825G85X148.7Y-107.825
G05
X148.7Y-56.475G85X148.7Y-57.225
G05
X148.7Y-69.725G85X148.7Y-70.475
G05
X148.7Y-75.525G85X148.7Y-76.275
G05
X148.7Y-88.775G85X148.7Y-89.525
G05
X148.7Y-94.575G85X148.7Y-95.325
G05
X148.7Y-107.825G85X148.7Y-108.575
G05
X148.7Y-56.475G85X162.4Y-56.475
G05
X148.7Y-70.475G85X162.4Y-70.475
G05
X148.7Y-75.525G85X162.4Y-75.525
G05
X148.7Y-89.525G85X162.4Y-89.525
G05
X148.7Y-94.575G85X162.4Y-94.575
G05
X148.7Y-108.575G85X162.4Y-108.575
G05
X162.4Y-56.475G85X162.4Y-57.225
G05
X162.4Y-69.725G85X162.4Y-70.475
G05
X162.4Y-75.525G85X162.4Y-76.275
G05
X162.4Y-88.775G85X162.4Y-89.525
G05
X162.4Y-94.575G85X162.4Y-95.325
G05
X162.4Y-107.825G85X162.4Y-108.575
G05
X162.425Y-113.65G85X162.425Y-114.4
G05
X162.425Y-126.9G85X162.425Y-127.65
G05
X162.4Y-57.225G85X163.35Y-57.225
G05
X162.4Y-69.725G85X163.35Y-69.725
G05
X162.4Y-76.275G85X163.35Y-76.275
G05
X162.4Y-88.775G85X163.35Y-88.775
G05
X162.4Y-95.325G85X163.35Y-95.325
G05
X162.4Y-107.825G85X163.35Y-107.825
G05
X162.425Y-114.4G85X163.375Y-114.4
G05
X162.425Y-126.9G85X163.375Y-126.9
G05
X163.35Y-57.225G85X163.35Y-69.725
G05
X163.35Y-76.275G85X163.35Y-88.775
G05
X163.35Y-95.325G85X163.35Y-107.825
G05
X163.375Y-114.4G85X163.375Y-126.9
G05
X166.8Y-57.225G85X166.8Y-69.725
G05
X166.8Y-76.275G85X166.8Y-88.775
G05
X166.8Y-95.325G85X166.8Y-107.825
G05
X166.8Y-114.375G85X166.8Y-126.875
G05
X166.8Y-57.225G85X167.75Y-57.225
G05
X166.8Y-69.725G85X167.75Y-69.725
G05
X166.8Y-76.275G85X167.75Y-76.275
G05
X166.8Y-88.775G85X167.75Y-88.775
G05
X166.8Y-95.325G85X167.75Y-95.325
G05
X166.8Y-107.825G85X167.75Y-107.825
G05
X166.8Y-114.375G85X167.75Y-114.375
G05
X166.8Y-126.875G85X167.75Y-126.875
G05
X167.75Y-56.475G85X167.75Y-57.225
G05
X167.75Y-69.725G85X167.75Y-70.475
G05
X167.75Y-75.525G85X167.75Y-76.275
G05
X167.75Y-88.775G85X167.75Y-89.525
G05
X167.75Y-94.575G85X167.75Y-95.325
G05
X167.75Y-107.825G85X167.75Y-108.575
G05
X167.75Y-113.625G85X167.75Y-114.375
G05
X167.75Y-126.875G85X167.75Y-127.625
G05
X167.75Y-56.475G85X181.45Y-56.475
G05
X167.75Y-70.475G85X181.45Y-70.475
G05
X167.75Y-75.525G85X181.45Y-75.525
G05
X167.75Y-89.525G85X181.45Y-89.525
G05
X167.75Y-94.575G85X181.45Y-94.575
G05
X167.75Y-108.575G85X181.45Y-108.575
G05
X167.75Y-113.625G85X181.45Y-113.625
G05
X167.75Y-127.625G85X181.45Y-127.625
G05
X181.45Y-56.475G85X181.45Y-57.225
G05
X181.45Y-69.725G85X181.45Y-70.475
G05
X181.45Y-75.525G85X181.45Y-76.275
G05
X181.45Y-88.775G85X181.45Y-89.525
G05
X181.45Y-94.575G85X181.45Y-95.325
G05
X181.45Y-107.825G85X181.45Y-108.575
G05
X181.45Y-113.625G85X181.45Y-114.375
G05
X181.45Y-126.875G85X181.45Y-127.625
G05
X181.45Y-57.225G85X182.4Y-57.225
G05
X181.45Y-69.725G85X182.4Y-69.725
G05
X181.45Y-76.275G85X182.4Y-76.275
G05
X181.45Y-88.775G85X182.4Y-88.775
G05
X181.45Y-95.325G85X182.4Y-95.325
G05
X181.45Y-107.825G85X182.4Y-107.825
G05
X181.45Y-114.375G85X182.4Y-114.375
G05
X181.45Y-126.875G85X182.4Y-126.875
G05
X182.4Y-57.225G85X182.4Y-69.725
G05
X182.4Y-76.275G85X182.4Y-88.775
G05
X182.4Y-95.325G85X182.4Y-107.825
G05
X182.4Y-114.375G85X182.4Y-126.875
G05
X185.85Y-57.225G85X185.85Y-69.725
G05
X185.85Y-76.275G85X185.85Y-88.775
G05
X185.85Y-95.325G85X185.85Y-107.825
G05
X185.85Y-114.375G85X185.85Y-126.875
G05
X185.85Y-57.225G85X186.8Y-57.225
G05
X185.85Y-69.725G85X186.8Y-69.725
G05
X185.85Y-76.275G85X186.8Y-76.275
G05
X185.85Y-88.775G85X186.8Y-88.775
G05
X185.85Y-95.325G85X186.8Y-95.325
G05
X185.85Y-107.825G85X186.8Y-107.825
G05
X185.85Y-114.375G85X186.8Y-114.375
G05
X185.85Y-126.875G85X186.8Y-126.875
G05
X186.8Y-56.475G85X186.8Y-57.225
G05
X186.8Y-69.725G85X186.8Y-70.475
G05
X186.8Y-75.525G85X186.8Y-76.275
G05
X186.8Y-88.775G85X186.8Y-89.525
G05
X186.8Y-94.575G85X186.8Y-95.325
G05
X186.8Y-107.825G85X186.8Y-108.575
G05
X186.8Y-113.625G85X186.8Y-114.375
G05
X186.8Y-126.875G85X186.8Y-127.625
G05
X186.8Y-56.475G85X200.5Y-56.475
G05
X186.8Y-70.475G85X200.5Y-70.475
G05
X186.8Y-75.525G85X200.5Y-75.525
G05
X186.8Y-89.525G85X200.5Y-89.525
G05
X186.8Y-94.575G85X200.5Y-94.575
G05
X186.8Y-108.575G85X200.5Y-108.575
G05
X186.8Y-113.625G85X200.5Y-113.625
G05
X186.8Y-127.625G85X200.5Y-127.625
G05
X200.5Y-56.475G85X200.5Y-57.225
G05
X200.5Y-69.725G85X200.5Y-70.475
G05
X200.5Y-75.525G85X200.5Y-76.275
G05
X200.5Y-88.775G85X200.5Y-89.525
G05
X200.5Y-94.575G85X200.5Y-95.325
G05
X200.5Y-107.825G85X200.5Y-108.575
G05
X200.5Y-113.625G85X200.5Y-114.375
G05
X200.5Y-126.875G85X200.5Y-127.625
G05
X200.5Y-57.225G85X201.45Y-57.225
G05
X200.5Y-69.725G85X201.45Y-69.725
G05
X200.5Y-76.275G85X201.45Y-76.275
G05
X200.5Y-88.775G85X201.45Y-88.775
G05
X200.5Y-95.325G85X201.45Y-95.325
G05
X200.5Y-107.825G85X201.45Y-107.825
G05
X200.5Y-114.375G85X201.45Y-114.375
G05
X200.5Y-126.875G85X201.45Y-126.875
G05
X201.45Y-57.225G85X201.45Y-69.725
G05
X201.45Y-76.275G85X201.45Y-88.775
G05
X201.45Y-95.325G85X201.45Y-107.825
G05
X201.45Y-114.375G85X201.45Y-126.875
G05
X204.9Y-57.225G85X204.9Y-69.725
G05
X204.9Y-76.275G85X204.9Y-88.775
G05
X204.9Y-95.325G85X204.9Y-107.825
G05
X204.9Y-114.375G85X204.9Y-126.875
G05
X204.9Y-57.225G85X205.85Y-57.225
G05
X204.9Y-69.725G85X205.85Y-69.725
G05
X204.9Y-76.275G85X205.85Y-76.275
G05
X204.9Y-88.775G85X205.85Y-88.775
G05
X204.9Y-95.325G85X205.85Y-95.325
G05
X204.9Y-107.825G85X205.85Y-107.825
G05
X204.9Y-114.375G85X205.85Y-114.375
G05
X204.9Y-126.875G85X205.85Y-126.875
G05
X205.85Y-56.475G85X205.85Y-57.225
G05
X205.85Y-69.725G85X205.85Y-70.475
G05
X205.85Y-75.525G85X205.85Y-76.275
G05
X205.85Y-88.775G85X205.85Y-89.525
G05
X205.85Y-94.575G85X205.85Y-95.325
G05
X205.85Y-107.825G85X205.85Y-108.575
G05
X205.85Y-113.625G85X205.85Y-114.375
G05
X205.85Y-126.875G85X205.85Y-127.625
G05
X205.85Y-56.475G85X219.55Y-56.475
G05
X205.85Y-70.475G85X219.55Y-70.475
G05
X205.85Y-75.525G85X219.55Y-75.525
G05
X205.85Y-89.525G85X219.55Y-89.525
G05
X205.85Y-94.575G85X219.55Y-94.575
G05
X205.85Y-108.575G85X219.55Y-108.575
G05
X205.85Y-113.625G85X219.55Y-113.625
G05
X205.85Y-127.625G85X219.55Y-127.625
G05
X219.55Y-56.475G85X219.55Y-57.225
G05
X219.55Y-69.725G85X219.55Y-70.475
G05
X219.55Y-75.525G85X219.55Y-76.275
G05
X219.55Y-88.775G85X219.55Y-89.525
G05
X219.55Y-94.575G85X219.55Y-95.325
G05
X219.55Y-107.825G85X219.55Y-108.575
G05
X219.55Y-113.625G85X219.55Y-114.375
G05
X219.55Y-126.875G85X219.55Y-127.625
G05
X219.55Y-57.225G85X220.5Y-57.225
G05
X219.55Y-69.725G85X220.5Y-69.725
G05
X219.55Y-76.275G85X220.5Y-76.275
G05
X219.55Y-88.775G85X220.5Y-88.775
G05
X219.55Y-95.325G85X220.5Y-95.325
G05
X219.55Y-107.825G85X220.5Y-107.825
G05
X219.55Y-114.375G85X220.5Y-114.375
G05
X219.55Y-126.875G85X220.5Y-126.875
G05
X220.5Y-57.225G85X220.5Y-69.725
G05
X220.5Y-76.275G85X220.5Y-88.775
G05
X220.5Y-95.325G85X220.5Y-107.825
G05
X220.5Y-114.375G85X220.5Y-126.875
G05
X223.95Y-57.225G85X223.95Y-69.725
G05
X223.95Y-76.275G85X223.95Y-88.775
G05
X223.95Y-95.325G85X223.95Y-107.825
G05
X223.95Y-114.375G85X223.95Y-126.875
G05
X223.95Y-57.225G85X224.9Y-57.225
G05
X223.95Y-69.725G85X224.9Y-69.725
G05
X223.95Y-76.275G85X224.9Y-76.275
G05
X223.95Y-88.775G85X224.9Y-88.775
G05
X223.95Y-95.325G85X224.9Y-95.325
G05
X223.95Y-107.825G85X224.9Y-107.825
G05
X223.95Y-114.375G85X224.9Y-114.375
G05
X223.95Y-126.875G85X224.9Y-126.875
G05
X224.9Y-56.475G85X224.9Y-57.225
G05
X224.9Y-69.725G85X224.9Y-70.475
G05
X224.9Y-75.525G85X224.9Y-76.275
G05
X224.9Y-88.775G85X224.9Y-89.525
G05
X224.9Y-94.575G85X224.9Y-95.325
G05
X224.9Y-107.825G85X224.9Y-108.575
G05
X224.9Y-113.625G85X224.9Y-114.375
G05
X224.9Y-126.875G85X224.9Y-127.625
G05
X224.9Y-56.475G85X238.6Y-56.475
G05
X224.9Y-70.475G85X238.6Y-70.475
G05
X224.9Y-75.525G85X238.6Y-75.525
G05
X224.9Y-89.525G85X238.6Y-89.525
G05
X224.9Y-94.575G85X238.6Y-94.575
G05
X224.9Y-108.575G85X238.6Y-108.575
G05
X224.9Y-113.625G85X238.6Y-113.625
G05
X224.9Y-127.625G85X238.6Y-127.625
G05
X238.6Y-56.475G85X238.6Y-57.225
G05
X238.6Y-69.725G85X238.6Y-70.475
G05
X238.6Y-75.525G85X238.6Y-76.275
G05
X238.6Y-88.775G85X238.6Y-89.525
G05
X238.6Y-94.575G85X238.6Y-95.325
G05
X238.6Y-107.825G85X238.6Y-108.575
G05
X238.6Y-113.625G85X238.6Y-114.375
G05
X238.6Y-126.875G85X238.6Y-127.625
G05
X238.6Y-57.225G85X239.55Y-57.225
G05
X238.6Y-69.725G85X239.55Y-69.725
G05
X238.6Y-76.275G85X239.55Y-76.275
G05
X238.6Y-88.775G85X239.55Y-88.775
G05
X238.6Y-95.325G85X239.55Y-95.325
G05
X238.6Y-107.825G85X239.55Y-107.825
G05
X238.6Y-114.375G85X239.55Y-114.375
G05
X238.6Y-126.875G85X239.55Y-126.875
G05
X239.55Y-57.225G85X239.55Y-69.725
G05
X239.55Y-76.275G85X239.55Y-88.775
G05
X239.55Y-95.325G85X239.55Y-107.825
G05
X239.55Y-114.375G85X239.55Y-126.875
G05
X243.0Y-57.225G85X243.0Y-69.725
G05
X243.0Y-76.275G85X243.0Y-88.775
G05
X243.0Y-95.325G85X243.0Y-107.825
G05
X243.0Y-114.375G85X243.0Y-126.875
G05
X243.0Y-57.225G85X243.95Y-57.225
G05
X243.0Y-69.725G85X243.95Y-69.725
G05
X243.0Y-76.275G85X243.95Y-76.275
G05
X243.0Y-88.775G85X243.95Y-88.775
G05
X243.0Y-95.325G85X243.95Y-95.325
G05
X243.0Y-107.825G85X243.95Y-107.825
G05
X243.0Y-114.375G85X243.95Y-114.375
G05
X243.0Y-126.875G85X243.95Y-126.875
G05
X243.95Y-56.475G85X243.95Y-57.225
G05
X243.95Y-69.725G85X243.95Y-70.475
G05
X243.95Y-75.525G85X243.95Y-76.275
G05
X243.95Y-88.775G85X243.95Y-89.525
G05
X243.95Y-94.575G85X243.95Y-95.325
G05
X243.95Y-107.825G85X243.95Y-108.575
G05
X243.95Y-113.625G85X243.95Y-114.375
G05
X243.95Y-126.875G85X243.95Y-127.625
G05
X243.95Y-56.475G85X257.65Y-56.475
G05
X243.95Y-70.475G85X257.65Y-70.475
G05
X243.95Y-75.525G85X257.65Y-75.525
G05
X243.95Y-89.525G85X257.65Y-89.525
G05
X243.95Y-94.575G85X257.65Y-94.575
G05
X243.95Y-108.575G85X257.65Y-108.575
G05
X243.95Y-113.625G85X257.65Y-113.625
G05
X243.95Y-127.625G85X257.65Y-127.625
G05
X257.65Y-56.475G85X257.65Y-57.225
G05
X257.65Y-69.725G85X257.65Y-70.475
G05
X257.65Y-75.525G85X257.65Y-76.275
G05
X257.65Y-88.775G85X257.65Y-89.525
G05
X257.65Y-94.575G85X257.65Y-95.325
G05
X257.65Y-107.825G85X257.65Y-108.575
G05
X257.65Y-113.625G85X257.65Y-114.375
G05
X257.65Y-126.875G85X257.65Y-127.625
G05
X257.65Y-57.225G85X258.6Y-57.225
G05
X257.65Y-69.725G85X258.6Y-69.725
G05
X257.65Y-76.275G85X258.6Y-76.275
G05
X257.65Y-88.775G85X258.6Y-88.775
G05
X257.65Y-95.325G85X258.6Y-95.325
G05
X257.65Y-107.825G85X258.6Y-107.825
G05
X257.65Y-114.375G85X258.6Y-114.375
G05
X257.65Y-126.875G85X258.6Y-126.875
G05
X258.6Y-57.225G85X258.6Y-69.725
G05
X258.6Y-76.275G85X258.6Y-88.775
G05
X258.6Y-95.325G85X258.6Y-107.825
G05
X258.6Y-114.375G85X258.6Y-126.875
G05
T2
X132.74Y-127.658G85X132.74Y-128.572
G05
X132.74Y-128.572G85X135.484Y-128.572
G05
X135.484Y-127.658G85X135.484Y-128.572
G05
X156.616Y-127.658G85X156.616Y-128.572
G05
X156.616Y-128.572G85X159.36Y-128.572
G05
X159.36Y-127.658G85X159.36Y-128.572
G05
T0
M30
