G04 #@! TF.GenerationSoftware,KiCad,Pcbnew,(5.1.10)-1*
G04 #@! TF.CreationDate,2022-01-10T13:39:26-05:00*
G04 #@! TF.ProjectId,40 plate,34302520-706c-4617-9465-2e6b69636164,rev?*
G04 #@! TF.SameCoordinates,Original*
G04 #@! TF.FileFunction,OtherDrawing,Comment*
%FSLAX46Y46*%
G04 Gerber Fmt 4.6, Leading zero omitted, Abs format (unit mm)*
G04 Created by KiCad (PCBNEW (5.1.10)-1) date 2022-01-10 13:39:26*
%MOMM*%
%LPD*%
G01*
G04 APERTURE LIST*
%ADD10C,0.150000*%
G04 APERTURE END LIST*
D10*
X50825000Y-111150000D02*
X69825000Y-111150000D01*
X50825000Y-130150000D02*
X50825000Y-111150000D01*
X69825000Y-130150000D02*
X50825000Y-130150000D01*
X69825000Y-111150000D02*
X69825000Y-130150000D01*
X69875000Y-92100000D02*
X88875000Y-92100000D01*
X69875000Y-111100000D02*
X69875000Y-92100000D01*
X88875000Y-111100000D02*
X69875000Y-111100000D01*
X88875000Y-92100000D02*
X88875000Y-111100000D01*
X31775000Y-92100000D02*
X50775000Y-92100000D01*
X31775000Y-111100000D02*
X31775000Y-92100000D01*
X50775000Y-111100000D02*
X31775000Y-111100000D01*
X50775000Y-92100000D02*
X50775000Y-111100000D01*
X69875000Y-111150000D02*
X88875000Y-111150000D01*
X69875000Y-130150000D02*
X69875000Y-111150000D01*
X88875000Y-130150000D02*
X69875000Y-130150000D01*
X88875000Y-111150000D02*
X88875000Y-130150000D01*
X50825000Y-92100000D02*
X69825000Y-92100000D01*
X50825000Y-111100000D02*
X50825000Y-92100000D01*
X69825000Y-111100000D02*
X50825000Y-111100000D01*
X69825000Y-92100000D02*
X69825000Y-111100000D01*
X88925000Y-92100000D02*
X107925000Y-92100000D01*
X88925000Y-111100000D02*
X88925000Y-92100000D01*
X107925000Y-111100000D02*
X88925000Y-111100000D01*
X107925000Y-92100000D02*
X107925000Y-111100000D01*
X31775000Y-111150000D02*
X50775000Y-111150000D01*
X31775000Y-130150000D02*
X31775000Y-111150000D01*
X50775000Y-130150000D02*
X31775000Y-130150000D01*
X50775000Y-111150000D02*
X50775000Y-130150000D01*
X88925000Y-111150000D02*
X107925000Y-111150000D01*
X88925000Y-130150000D02*
X88925000Y-111150000D01*
X107925000Y-130150000D02*
X88925000Y-130150000D01*
X107925000Y-111150000D02*
X107925000Y-130150000D01*
X203200000Y-111125000D02*
X222200000Y-111125000D01*
X203200000Y-130125000D02*
X203200000Y-111125000D01*
X222200000Y-130125000D02*
X203200000Y-130125000D01*
X222200000Y-111125000D02*
X222200000Y-130125000D01*
X222250000Y-92075000D02*
X241250000Y-92075000D01*
X222250000Y-111075000D02*
X222250000Y-92075000D01*
X241250000Y-111075000D02*
X222250000Y-111075000D01*
X241250000Y-92075000D02*
X241250000Y-111075000D01*
X241300000Y-111125000D02*
X260300000Y-111125000D01*
X241300000Y-130125000D02*
X241300000Y-111125000D01*
X260300000Y-130125000D02*
X241300000Y-130125000D01*
X260300000Y-111125000D02*
X260300000Y-130125000D01*
X184150000Y-92075000D02*
X203150000Y-92075000D01*
X184150000Y-111075000D02*
X184150000Y-92075000D01*
X203150000Y-111075000D02*
X184150000Y-111075000D01*
X203150000Y-92075000D02*
X203150000Y-111075000D01*
X222250000Y-111125000D02*
X241250000Y-111125000D01*
X222250000Y-130125000D02*
X222250000Y-111125000D01*
X241250000Y-130125000D02*
X222250000Y-130125000D01*
X241250000Y-111125000D02*
X241250000Y-130125000D01*
X203200000Y-92075000D02*
X222200000Y-92075000D01*
X203200000Y-111075000D02*
X203200000Y-92075000D01*
X222200000Y-111075000D02*
X203200000Y-111075000D01*
X222200000Y-92075000D02*
X222200000Y-111075000D01*
X241300000Y-92075000D02*
X260300000Y-92075000D01*
X241300000Y-111075000D02*
X241300000Y-92075000D01*
X260300000Y-111075000D02*
X241300000Y-111075000D01*
X260300000Y-92075000D02*
X260300000Y-111075000D01*
X184150000Y-111125000D02*
X203150000Y-111125000D01*
X184150000Y-130125000D02*
X184150000Y-111125000D01*
X203150000Y-130125000D02*
X184150000Y-130125000D01*
X203150000Y-111125000D02*
X203150000Y-130125000D01*
X146050000Y-92075000D02*
X165050000Y-92075000D01*
X146050000Y-111075000D02*
X146050000Y-92075000D01*
X165050000Y-111075000D02*
X146050000Y-111075000D01*
X165050000Y-92075000D02*
X165050000Y-111075000D01*
X127000000Y-92075000D02*
X146000000Y-92075000D01*
X127000000Y-111075000D02*
X127000000Y-92075000D01*
X146000000Y-111075000D02*
X127000000Y-111075000D01*
X146000000Y-92075000D02*
X146000000Y-111075000D01*
X107950000Y-111125000D02*
X126950000Y-111125000D01*
X107950000Y-130125000D02*
X107950000Y-111125000D01*
X126950000Y-130125000D02*
X107950000Y-130125000D01*
X126950000Y-111125000D02*
X126950000Y-130125000D01*
X165100000Y-92075000D02*
X184100000Y-92075000D01*
X165100000Y-111075000D02*
X165100000Y-92075000D01*
X184100000Y-111075000D02*
X165100000Y-111075000D01*
X184100000Y-92075000D02*
X184100000Y-111075000D01*
X107950000Y-92075000D02*
X126950000Y-92075000D01*
X107950000Y-111075000D02*
X107950000Y-92075000D01*
X126950000Y-111075000D02*
X107950000Y-111075000D01*
X126950000Y-92075000D02*
X126950000Y-111075000D01*
X165100000Y-111125000D02*
X184100000Y-111125000D01*
X165100000Y-130125000D02*
X165100000Y-111125000D01*
X184100000Y-130125000D02*
X165100000Y-130125000D01*
X184100000Y-111125000D02*
X184100000Y-130125000D01*
X203200000Y-73025000D02*
X222200000Y-73025000D01*
X203200000Y-92025000D02*
X203200000Y-73025000D01*
X222200000Y-92025000D02*
X203200000Y-92025000D01*
X222200000Y-73025000D02*
X222200000Y-92025000D01*
X222250000Y-53975000D02*
X241250000Y-53975000D01*
X222250000Y-72975000D02*
X222250000Y-53975000D01*
X241250000Y-72975000D02*
X222250000Y-72975000D01*
X241250000Y-53975000D02*
X241250000Y-72975000D01*
X184150000Y-53975000D02*
X203150000Y-53975000D01*
X184150000Y-72975000D02*
X184150000Y-53975000D01*
X203150000Y-72975000D02*
X184150000Y-72975000D01*
X203150000Y-53975000D02*
X203150000Y-72975000D01*
X222250000Y-73025000D02*
X241250000Y-73025000D01*
X222250000Y-92025000D02*
X222250000Y-73025000D01*
X241250000Y-92025000D02*
X222250000Y-92025000D01*
X241250000Y-73025000D02*
X241250000Y-92025000D01*
X203200000Y-53975000D02*
X222200000Y-53975000D01*
X203200000Y-72975000D02*
X203200000Y-53975000D01*
X222200000Y-72975000D02*
X203200000Y-72975000D01*
X222200000Y-53975000D02*
X222200000Y-72975000D01*
X241300000Y-53975000D02*
X260300000Y-53975000D01*
X241300000Y-72975000D02*
X241300000Y-53975000D01*
X260300000Y-72975000D02*
X241300000Y-72975000D01*
X260300000Y-53975000D02*
X260300000Y-72975000D01*
X184150000Y-73025000D02*
X203150000Y-73025000D01*
X184150000Y-92025000D02*
X184150000Y-73025000D01*
X203150000Y-92025000D02*
X184150000Y-92025000D01*
X203150000Y-73025000D02*
X203150000Y-92025000D01*
X241300000Y-73025000D02*
X260300000Y-73025000D01*
X241300000Y-92025000D02*
X241300000Y-73025000D01*
X260300000Y-92025000D02*
X241300000Y-92025000D01*
X260300000Y-73025000D02*
X260300000Y-92025000D01*
X127000000Y-73025000D02*
X146000000Y-73025000D01*
X127000000Y-92025000D02*
X127000000Y-73025000D01*
X146000000Y-92025000D02*
X127000000Y-92025000D01*
X146000000Y-73025000D02*
X146000000Y-92025000D01*
X146050000Y-53975000D02*
X165050000Y-53975000D01*
X146050000Y-72975000D02*
X146050000Y-53975000D01*
X165050000Y-72975000D02*
X146050000Y-72975000D01*
X165050000Y-53975000D02*
X165050000Y-72975000D01*
X107950000Y-53975000D02*
X126950000Y-53975000D01*
X107950000Y-72975000D02*
X107950000Y-53975000D01*
X126950000Y-72975000D02*
X107950000Y-72975000D01*
X126950000Y-53975000D02*
X126950000Y-72975000D01*
X146050000Y-73025000D02*
X165050000Y-73025000D01*
X146050000Y-92025000D02*
X146050000Y-73025000D01*
X165050000Y-92025000D02*
X146050000Y-92025000D01*
X165050000Y-73025000D02*
X165050000Y-92025000D01*
X127000000Y-53975000D02*
X146000000Y-53975000D01*
X127000000Y-72975000D02*
X127000000Y-53975000D01*
X146000000Y-72975000D02*
X127000000Y-72975000D01*
X146000000Y-53975000D02*
X146000000Y-72975000D01*
X165100000Y-53975000D02*
X184100000Y-53975000D01*
X165100000Y-72975000D02*
X165100000Y-53975000D01*
X184100000Y-72975000D02*
X165100000Y-72975000D01*
X184100000Y-53975000D02*
X184100000Y-72975000D01*
X107950000Y-73025000D02*
X126950000Y-73025000D01*
X107950000Y-92025000D02*
X107950000Y-73025000D01*
X126950000Y-92025000D02*
X107950000Y-92025000D01*
X126950000Y-73025000D02*
X126950000Y-92025000D01*
X165100000Y-73025000D02*
X184100000Y-73025000D01*
X165100000Y-92025000D02*
X165100000Y-73025000D01*
X184100000Y-92025000D02*
X165100000Y-92025000D01*
X184100000Y-73025000D02*
X184100000Y-92025000D01*
X127025000Y-111150000D02*
X146025000Y-111150000D01*
X127025000Y-130150000D02*
X127025000Y-111150000D01*
X146025000Y-130150000D02*
X127025000Y-130150000D01*
X146025000Y-111150000D02*
X146025000Y-130150000D01*
X165075000Y-130150000D02*
X146075000Y-130150000D01*
X146075000Y-111150000D02*
X165075000Y-111150000D01*
X146075000Y-130150000D02*
X146075000Y-111150000D01*
X165075000Y-111150000D02*
X165075000Y-130150000D01*
X88925000Y-73050000D02*
X107925000Y-73050000D01*
X88925000Y-92050000D02*
X88925000Y-73050000D01*
X107925000Y-92050000D02*
X88925000Y-92050000D01*
X107925000Y-73050000D02*
X107925000Y-92050000D01*
X31775000Y-73050000D02*
X50775000Y-73050000D01*
X31775000Y-92050000D02*
X31775000Y-73050000D01*
X50775000Y-92050000D02*
X31775000Y-92050000D01*
X50775000Y-73050000D02*
X50775000Y-92050000D01*
X88925000Y-54000000D02*
X107925000Y-54000000D01*
X88925000Y-73000000D02*
X88925000Y-54000000D01*
X107925000Y-73000000D02*
X88925000Y-73000000D01*
X107925000Y-54000000D02*
X107925000Y-73000000D01*
X50825000Y-54000000D02*
X69825000Y-54000000D01*
X50825000Y-73000000D02*
X50825000Y-54000000D01*
X69825000Y-73000000D02*
X50825000Y-73000000D01*
X69825000Y-54000000D02*
X69825000Y-73000000D01*
X69875000Y-54000000D02*
X88875000Y-54000000D01*
X69875000Y-73000000D02*
X69875000Y-54000000D01*
X88875000Y-73000000D02*
X69875000Y-73000000D01*
X88875000Y-54000000D02*
X88875000Y-73000000D01*
X50825000Y-73050000D02*
X69825000Y-73050000D01*
X50825000Y-92050000D02*
X50825000Y-73050000D01*
X69825000Y-92050000D02*
X50825000Y-92050000D01*
X69825000Y-73050000D02*
X69825000Y-92050000D01*
X31775000Y-54000000D02*
X50775000Y-54000000D01*
X31775000Y-73000000D02*
X31775000Y-54000000D01*
X50775000Y-73000000D02*
X31775000Y-73000000D01*
X50775000Y-54000000D02*
X50775000Y-73000000D01*
X69875000Y-73050000D02*
X88875000Y-73050000D01*
X69875000Y-92050000D02*
X69875000Y-73050000D01*
X88875000Y-92050000D02*
X69875000Y-92050000D01*
X88875000Y-73050000D02*
X88875000Y-92050000D01*
M02*
